<svg width="1600" height="500" viewBox="0 0 1600 500" fill="none" xmlns="http://www.w3.org/2000/svg">
<g clip-path="url(#clip0)">
<g clip-path="url(#clip1)">
<path d="M1564.97 341.632H1283.07C1283.07 263.793 1266.86 198.73 1234.91 148.238C1203.03 97.8661 1156 62.8308 1095.13 44.1039V341.63H500V0H1490.65C1496.79 11.239 1502.63 23.0135 1508.01 34.9951C1513.39 46.9767 1518.45 59.4961 1523.07 72.2084C1527.69 84.9207 1531.99 98.1913 1535.84 111.632C1539.69 125.073 1543.21 139.084 1546.31 153.262C1549.4 167.44 1552.14 182.19 1554.46 197.082C1556.78 211.973 1558.74 227.453 1560.29 243.089C1561.84 258.726 1563.02 274.934 1563.8 291.276C1564.57 307.618 1564.97 324.566 1564.97 341.634L1564.97 341.632Z" fill="white"/>
</g>
</g>
<defs>
<clipPath id="clip0">
<rect width="1600" height="500" fill="white"/>
</clipPath>
<clipPath id="clip1">
<rect width="1064.97" height="580" fill="white" transform="translate(500)"/>
</clipPath>
</defs>
</svg>
