<svg xmlns="http://www.w3.org/2000/svg" width="982.222" height="535" viewBox="0 0 982.222 535"><defs><style>.a{fill:#fff;}</style></defs><path class="a" d="M2444.252,535H1683.628V459.569h433.333c22.454,0,44.55.739,65.674,2.2,21.1,1.456,41.823,3.669,61.59,6.577,19.741,2.9,39.081,6.583,57.484,10.935,18.377,4.346,36.331,9.485,53.36,15.273a509.442,509.442,0,0,1,49.212,19.59c13.771,6.352,27.217,13.369,39.967,20.857l0,0h0Zm221.6-219.874h-260c0-71.8-14.944-131.815-44.417-178.389-29.4-46.464-72.776-78.781-128.917-96.055V315.124H1683.628V0H2597.31c5.659,10.367,11.044,21.228,16.006,32.28s9.634,22.6,13.894,34.326,8.224,23.967,11.778,36.365,6.8,25.322,9.651,38.4,5.38,26.684,7.519,40.42,3.95,28.015,5.38,42.438,2.517,29.374,3.233,44.448,1.079,30.707,1.079,46.451Z" transform="translate(-1683.628)"/></svg>