<svg xmlns="http://www.w3.org/2000/svg" xmlns:xlink="http://www.w3.org/1999/xlink" width="1443.749" height="2011.001" viewBox="0 0 1443.749 2011.001"><defs><linearGradient id="a" x1="0.5" y1="0.232" x2="0.5" y2="1" gradientUnits="objectBoundingBox"><stop offset="0" stop-color="#e72c30"/><stop offset="1" stop-color="#e4e311"/></linearGradient></defs><path d="M2055.5,2051H1647.031L2388.78,303.549a705.75,705.75,0,0,1-117.741-44.828,589.435,589.435,0,0,1-99.285-61.047c-29.63-22.721-55.514-47.617-76.935-74-21.673-26.691-38.726-54.844-50.685-83.677H3090.779a251.046,251.046,0,0,1-12.212,45.75,267.764,267.764,0,0,1-20.491,42.9c-16.088,27.244-37.417,52.8-63.391,75.964-25.59,22.818-55.6,43.238-89.211,60.691A570.62,570.62,0,0,1,2795.3,308.144L2055.5,2051Z" transform="translate(-1647.031 -40)" fill="url(#a)"/></svg>