<svg xmlns="http://www.w3.org/2000/svg" width="171" height="66" viewBox="0 0 171 66"><defs><style>.a{fill:none;}.a,.b{stroke:#807119;stroke-linecap:round;stroke-linejoin:round;stroke-miterlimit:10;stroke-width:3px;}.b{fill:#fbf3c2;}</style></defs><g transform="translate(-634.5 -1677.5)"><g transform="translate(-14 14)"><g transform="translate(795 1706)"><path class="a" d="M1,1H23V17H13L6,22V17H1Z"/><line class="a" x2="8" transform="translate(5 12)"/><line class="a" x2="2" transform="translate(17 12)"/></g><g transform="translate(650 1707)"><path class="a" d="M23,1H1V17H11l7,5V17h5Z" transform="translate(-1 -1)"/><line class="a" x1="8" transform="translate(10 11)"/><line class="a" x1="2" transform="translate(4 11)"/></g></g><g transform="translate(696 1675)"><path class="b" d="M46,4H2V34H16l8,10,8-10H46Z"/><line class="a" x2="20" transform="translate(14 14)"/><line class="a" x2="12" transform="translate(14 24)"/></g></g></svg>