<svg xmlns="http://www.w3.org/2000/svg" width="118" height="20" viewBox="0 0 118 20"><defs><style>.a{fill:#d92c27;}</style></defs><path class="a" d="M20.931,26.849a1.138,1.138,0,0,1-.2.683.7.7,0,0,1-.526.308l-4.853.027a.821.821,0,0,1-.674-.348l-3.613-5.141-3.8,5.114a.776.776,0,0,1-.364.375A1.175,1.175,0,0,1,6.347,28H2.491a1.042,1.042,0,0,1-.768-.281,1.027,1.027,0,0,1-.283-.763V10.624a1.012,1.012,0,0,1,.3-.75,1.026,1.026,0,0,1,.755-.295H6.347a1.015,1.015,0,0,1,.741.308,1,1,0,0,1,.31.736v7.1L13.356,10.2a1.768,1.768,0,0,1,1.618-.535l4.152.027H19.1a.609.609,0,0,1,.593.669,1.5,1.5,0,0,1-.324.857L14.785,17.4,20.77,26.26A1.118,1.118,0,0,1,20.931,26.849Zm1.833.08a2.8,2.8,0,0,1,.148-.9q.148-.442.175-.5l5.985-15.074a1.914,1.914,0,0,1,.714-.87,2.171,2.171,0,0,1,1.119-.335h3.882a1.993,1.993,0,0,1,1.159.375,1.727,1.727,0,0,1,.62.83l6.039,15.074q.027.134.162.549a2.557,2.557,0,0,1,.135.79q0,.964-1.078,1.124H38.131a2.077,2.077,0,0,1-.957-.2.925.925,0,0,1-.5-.576l-.836-2.677H29.828l-.836,2.677a.93.93,0,0,1-.485.576,1.993,1.993,0,0,1-.944.2H23.816Q22.765,27.839,22.765,26.929Zm10.352-6.908h1.752l-2.13-6.292-2.1,6.292Zm12,7.523V9.767a.566.566,0,0,1,.27-.482,1.2,1.2,0,0,1,.7-.187h3.963l1.914-.054a12.975,12.975,0,0,1,4.839.723,4.419,4.419,0,0,1,2.372,1.954,6.43,6.43,0,0,1,.634,2.972,5.14,5.14,0,0,1-1,3.159,5.092,5.092,0,0,1,2.035,1.807,5.2,5.2,0,0,1,.607,2.664,6.387,6.387,0,0,1-.027.669,6.877,6.877,0,0,1-.62,2.584,4.42,4.42,0,0,1-2.157,1.941,10.689,10.689,0,0,1-4.637.8H46.246a1.371,1.371,0,0,1-.809-.228A.66.66,0,0,1,45.114,27.545Zm8.2-3.266a2.777,2.777,0,0,0,1.779-.589,1.851,1.851,0,0,0,.593-1.446,1.741,1.741,0,0,0-.647-1.432,3.685,3.685,0,0,0-2.211-.549H50.748q-.4,0-.4.187v3.588a.2.2,0,0,0,.108.174.561.561,0,0,0,.3.067Zm-.674-7.684a2.084,2.084,0,0,0,1.442-.509,1.606,1.606,0,0,0,.5-1.2q0-1.687-2.265-1.794H50.586a.307.307,0,0,0-.2.08.24.24,0,0,0-.094.187V16.38a.18.18,0,0,0,.081.161.385.385,0,0,0,.216.054Zm10.7,2.142a9.429,9.429,0,0,1,1.334-4.9,9.978,9.978,0,0,1,3.6-3.574,9.87,9.87,0,0,1,9.881,0,9.946,9.946,0,0,1,3.613,3.574,9.662,9.662,0,0,1,0,9.8,9.946,9.946,0,0,1-3.613,3.574,9.87,9.87,0,0,1-9.881,0,9.978,9.978,0,0,1-3.6-3.574A9.429,9.429,0,0,1,63.338,18.736ZM77.411,18.5a3.959,3.959,0,0,0-.593-2.115,4.478,4.478,0,0,0-1.577-1.539,4.121,4.121,0,0,0-2.116-.576A4.286,4.286,0,0,0,69.4,16.38a4.1,4.1,0,0,0-.566,2.115,4.172,4.172,0,0,0,.566,2.129,4.261,4.261,0,0,0,3.72,2.129,4.121,4.121,0,0,0,2.116-.576,4.44,4.44,0,0,0,1.577-1.553A4.027,4.027,0,0,0,77.411,18.5Zm7.845,9.05V9.767a.566.566,0,0,1,.27-.482,1.2,1.2,0,0,1,.7-.187h3.963L92.1,9.044a12.975,12.975,0,0,1,4.839.723,4.419,4.419,0,0,1,2.372,1.954,6.43,6.43,0,0,1,.634,2.972,5.14,5.14,0,0,1-1,3.159,5.092,5.092,0,0,1,2.035,1.807,5.2,5.2,0,0,1,.607,2.664,6.385,6.385,0,0,1-.027.669,6.877,6.877,0,0,1-.62,2.584,4.42,4.42,0,0,1-2.157,1.941,10.689,10.689,0,0,1-4.637.8H86.388a1.371,1.371,0,0,1-.809-.228A.66.66,0,0,1,85.256,27.545Zm8.2-3.266a2.777,2.777,0,0,0,1.779-.589,1.851,1.851,0,0,0,.593-1.446,1.741,1.741,0,0,0-.647-1.432,3.684,3.684,0,0,0-2.211-.549H90.89q-.4,0-.4.187v3.588a.2.2,0,0,0,.108.174.561.561,0,0,0,.3.067Zm-.674-7.684a2.084,2.084,0,0,0,1.442-.509,1.606,1.606,0,0,0,.5-1.2q0-1.687-2.265-1.794H90.729a.307.307,0,0,0-.2.08.24.24,0,0,0-.094.187V16.38a.18.18,0,0,0,.081.161.385.385,0,0,0,.216.054Zm10.406,8.059a1.976,1.976,0,0,1,.485-1.124l1-1.285a6.892,6.892,0,0,1,.687-.87.775.775,0,0,1,.553-.254,1.483,1.483,0,0,1,.593.161,10.477,10.477,0,0,1,.971.535q.081.054,1.375.937a5.089,5.089,0,0,0,3.235.776,1.536,1.536,0,0,0,1.011-.361,1.068,1.068,0,0,0,.364-.817,1.529,1.529,0,0,0-.647-1.178,3.149,3.149,0,0,0-1.833-.616H111a13.136,13.136,0,0,1-3.693-1.218,4.678,4.678,0,0,1-1.887-1.754,6.027,6.027,0,0,1-.674-2.517,5.533,5.533,0,0,1,.755-3.226,6.053,6.053,0,0,1,2.48-2.3A7.931,7.931,0,0,1,111.7,8.7a11.142,11.142,0,0,1,3.127.455,10.891,10.891,0,0,1,2.359.924,5.614,5.614,0,0,1,1.685,1.325,1.042,1.042,0,0,1,.377.7,1.064,1.064,0,0,1-.2.576,7.628,7.628,0,0,1-.687.843l-.782.83a4.792,4.792,0,0,1-.58.549.669.669,0,0,1-.391.147,1.092,1.092,0,0,1-.485-.161q-.3-.161-.58-.335l-.5-.308a6.347,6.347,0,0,0-3.262-1.178,2.064,2.064,0,0,0-1.361.415,1.264,1.264,0,0,0-.5,1,1.437,1.437,0,0,0,.485,1.058,2.448,2.448,0,0,0,1.375.6,11.091,11.091,0,0,1,5.756,2.276,5.047,5.047,0,0,1,1.9,3.855,5.421,5.421,0,0,1-1.011,3.092,7.411,7.411,0,0,1-2.8,2.41,8.611,8.611,0,0,1-4,.924,12.7,12.7,0,0,1-7.252-2.517Q103.184,25.376,103.184,24.653Z" transform="translate(-1.44 -8.696)"/></svg>