<svg xmlns="http://www.w3.org/2000/svg" xmlns:xlink="http://www.w3.org/1999/xlink" width="453.904" height="700" viewBox="0 0 453.904 700"><defs><style>.a{fill:#fff;}.b{fill:#111;font-size:18px;font-family:Aquino-Demo, Aquino Demo;letter-spacing:0.024em;}.c{fill:#f50;}.d{fill:#d92c27;}.e{fill:#43b049;}.f{filter:url(#y);}.g{filter:url(#w);}.h{filter:url(#u);}.i{filter:url(#s);}.j{filter:url(#q);}.k{filter:url(#o);}.l{filter:url(#m);}.m{filter:url(#k);}.n{filter:url(#i);}.o{filter:url(#g);}.p{filter:url(#e);}.q{filter:url(#c);}.r{filter:url(#a);}</style><filter id="a" x="86.419" y="428.539" width="74.369" height="90.443" filterUnits="userSpaceOnUse"><feOffset dx="1" dy="4" input="SourceAlpha"/><feGaussianBlur result="b"/><feFlood/><feComposite operator="in" in2="b"/><feComposite in="SourceGraphic"/></filter><filter id="c" x="156.621" y="449.093" width="81.147" height="88.063" filterUnits="userSpaceOnUse"><feOffset dx="1" dy="4" input="SourceAlpha"/><feGaussianBlur result="d"/><feFlood/><feComposite operator="in" in2="d"/><feComposite in="SourceGraphic"/></filter><filter id="e" x="243.649" y="435.911" width="93.605" height="89.026" filterUnits="userSpaceOnUse"><feOffset dx="1" dy="4" input="SourceAlpha"/><feGaussianBlur result="f"/><feFlood/><feComposite operator="in" in2="f"/><feComposite in="SourceGraphic"/></filter><filter id="g" x="344.928" y="416.855" width="41.939" height="104.967" filterUnits="userSpaceOnUse"><feOffset dx="1" dy="4" input="SourceAlpha"/><feGaussianBlur result="h"/><feFlood/><feComposite operator="in" in2="h"/><feComposite in="SourceGraphic"/></filter><filter id="i" x="54.559" y="161.059" width="121.335" height="112.77" filterUnits="userSpaceOnUse"><feOffset dx="-3" dy="4" input="SourceAlpha"/><feGaussianBlur result="j"/><feFlood/><feComposite operator="in" in2="j"/><feComposite in="SourceGraphic"/></filter><filter id="k" x="177.283" y="167.464" width="69.771" height="86.317" filterUnits="userSpaceOnUse"><feOffset dx="-3" dy="4" input="SourceAlpha"/><feGaussianBlur result="l"/><feFlood/><feComposite operator="in" in2="l"/><feComposite in="SourceGraphic"/></filter><filter id="m" x="247.654" y="154.113" width="94.416" height="90.396" filterUnits="userSpaceOnUse"><feOffset dx="-3" dy="4" input="SourceAlpha"/><feGaussianBlur result="n"/><feFlood/><feComposite operator="in" in2="n"/><feComposite in="SourceGraphic"/></filter><filter id="o" x="317.509" y="174.95" width="96.55" height="103.468" filterUnits="userSpaceOnUse"><feOffset dx="-3" dy="4" input="SourceAlpha"/><feGaussianBlur result="p"/><feFlood/><feComposite operator="in" in2="p"/><feComposite in="SourceGraphic"/></filter><filter id="q" x="142.024" y="299.905" width="73.754" height="89.406" filterUnits="userSpaceOnUse"><feOffset dx="3" dy="4" input="SourceAlpha"/><feGaussianBlur result="r"/><feFlood/><feComposite operator="in" in2="r"/><feComposite in="SourceGraphic"/></filter><filter id="s" x="339.398" y="292.555" width="79.956" height="94.031" filterUnits="userSpaceOnUse"><feOffset dx="3" dy="4" input="SourceAlpha"/><feGaussianBlur result="t"/><feFlood/><feComposite operator="in" in2="t"/><feComposite in="SourceGraphic"/></filter><filter id="u" x="40.659" y="310.741" width="101.384" height="86.535" filterUnits="userSpaceOnUse"><feOffset dx="3" dy="4" input="SourceAlpha"/><feGaussianBlur result="v"/><feFlood/><feComposite operator="in" in2="v"/><feComposite in="SourceGraphic"/></filter><filter id="w" x="214.807" y="309.323" width="91.401" height="91.406" filterUnits="userSpaceOnUse"><feOffset dx="3" dy="4" input="SourceAlpha"/><feGaussianBlur result="x"/><feFlood/><feComposite operator="in" in2="x"/><feComposite in="SourceGraphic"/></filter><filter id="y" x="303.776" y="317.387" width="37.988" height="83.535" filterUnits="userSpaceOnUse"><feOffset dx="3" dy="4" input="SourceAlpha"/><feGaussianBlur result="z"/><feFlood/><feComposite operator="in" in2="z"/><feComposite in="SourceGraphic"/></filter></defs><g transform="translate(-37.535 -82.14)"><g transform="translate(291.047 690.258) rotate(146)"><g transform="translate(0 0)"><path d="M160.234,71.353c5.271-12.417,5.46-24.824.411-37.147C145.5-2.771,99.117-3.826,76.928,3.753A157.715,157.715,0,0,0,27.786,30.57Q6.124,48.184,1.022,60.211-2.14,67.59,4.48,67.179,36.1,65.007,57.048,73.893A87.609,87.609,0,0,1,70.329,80.9c4.216,2.688,6.894,4.448,8.085,5.271q12.207,7.864,18.436,10.509a46.76,46.76,0,0,0,37.157.411A46.254,46.254,0,0,0,160.234,71.353Z"/><ellipse class="a" cx="3.689" cy="3.689" rx="3.689" ry="3.689" transform="translate(136.538 72.597)"/><path class="a" d="M35.491,1.038a3.311,3.311,0,0,1-.285.242l-.379.285c-.264.19-.538.379-.833.559A19.91,19.91,0,0,1,32.2,3.178a25.433,25.433,0,0,1-3.9,1.644A31.159,31.159,0,0,1,19.869,6.33a35.729,35.729,0,0,1-4.375-.19c-.727-.095-1.465-.116-2.193-.264L11.13,5.444A15.458,15.458,0,0,1,9.022,4.9L6.914,4.274C5.5,3.768,4.11,3.22,2.7,2.651l-.19-.074A2.108,2.108,0,0,0,.927,6.393C2.413,7.057,3.878,7.774,5.4,8.406l2.319.833a18.6,18.6,0,0,0,2.361.748l2.414.622c.8.211,1.644.3,2.467.453a41.514,41.514,0,0,0,5.007.5,36.515,36.515,0,0,0,10.109-1.2,31.624,31.624,0,0,0,4.88-1.729c.791-.369,1.581-.738,2.351-1.191.379-.211.769-.432,1.16-.7.19-.116.379-.232.58-.379s.379-.264.654-.485l.264-.211A3.183,3.183,0,0,0,35.975.7,1.3,1.3,0,0,0,35.491,1.038Z" transform="translate(94.786 80.74)"/></g></g><text class="b" transform="translate(241.158 503.955)"><tspan x="0" y="0">MORE</tspan></text><text class="b" transform="translate(241.158 362.918)"><tspan x="0" y="0">MORE</tspan></text><text class="b" transform="translate(241.158 227.925)"><tspan x="0" y="0">MORE</tspan></text><g transform="translate(123.954 498.995)"><g class="r" transform="matrix(1, 0, 0, 1, -86.42, -416.85)"><path class="c" d="M60.917,4.891v10a5.189,5.189,0,0,1-1.39,3.557,4.16,4.16,0,0,1-3.168,1.556H23.9v9.338H54.8a4.266,4.266,0,0,1,3.113,1.334,4.808,4.808,0,0,1,1.334,3.557v10A5.311,5.311,0,0,1,57.916,47.8,4,4,0,0,1,54.8,49.356H23.9V71.922a5.081,5.081,0,0,1-1.445,3.557,4.326,4.326,0,0,1-3.224,1.556H4.669A4.265,4.265,0,0,1,1.39,75.479,5.189,5.189,0,0,1,0,71.922V4.78A4.663,4.663,0,0,1,1.334,1.334,4.525,4.525,0,0,1,4.669,0h51.69a4.364,4.364,0,0,1,3.168,1.39A4.747,4.747,0,0,1,60.917,4.891Z" transform="matrix(0.98, -0.17, 0.17, 0.98, 86.42, 439.12)"/></g><g class="q" transform="matrix(1, 0, 0, 1, -86.42, -416.85)"><path class="c" d="M.111,42.019,0,3.335Q0,0,3.78,0H18.342a5.779,5.779,0,0,1,3.446.889,2.859,2.859,0,0,1,1.223,2.446l.445,36.239Q23.566,46.8,27.4,50.968T37.8,55.137q12.895,0,12.895-14.673l.222-36.906a3.083,3.083,0,0,1,1.39-2.5A5.265,5.265,0,0,1,55.581,0H70.366a5.083,5.083,0,0,1,3.279.945A2.906,2.906,0,0,1,74.7,3.557V20.009q0,15.34.056,19.12t.056,4a44.683,44.683,0,0,1-3.057,17.063,28.412,28.412,0,0,1-11.45,13.451q-8.282,5.391-22.288,5.391-12.784,0-21.288-5.225A32.35,32.35,0,0,1,4.169,60.194,41.2,41.2,0,0,1,.111,42.019Z" transform="matrix(1, 0.07, -0.07, 1, 162.13, 449.09)"/></g><g class="p" transform="matrix(1, 0, 0, 1, -86.42, -416.85)"><path class="c" d="M63.251,77.036q-.667-.333-9.671-9.782t-26.345-27.9q-1.667-1.667-2.112-1.667a.543.543,0,0,0-.556.5,8.256,8.256,0,0,0-.111,1.612V73.034a4.357,4.357,0,0,1-1.278,3.113,4.211,4.211,0,0,1-3.168,1.334H5.225a4.794,4.794,0,0,1-3.668-1.723A5.856,5.856,0,0,1,0,71.7V6.225A6.363,6.363,0,0,1,1.667,1.89,5.052,5.052,0,0,1,5.558,0H19.342a7.029,7.029,0,0,1,2.946.5,10.447,10.447,0,0,1,2.723,2.279l16.674,17.4Q53.247,32.237,59.805,38.907a3.063,3.063,0,0,0,1.223.556q.667,0,.667-1.779V4.558A4.45,4.45,0,0,1,63.029,1.39a4.073,4.073,0,0,1,3-1.39H80.148a5.771,5.771,0,0,1,4.224,1.779,5.647,5.647,0,0,1,1.779,4.113V72.033a5.613,5.613,0,0,1-1.723,4,5.351,5.351,0,0,1-3.946,1.779H67.92a17.426,17.426,0,0,1-2.946-.167A6.889,6.889,0,0,1,63.251,77.036Z" transform="matrix(1, -0.09, 0.09, 1, 243.65, 443.42)"/></g><g class="o" transform="matrix(1, 0, 0, 1, -86.42, -416.85)"><path class="c" d="M24.122,65.012a5.809,5.809,0,0,1-1.334,4.169,4.7,4.7,0,0,1-3.557,1.39H4.669A4.077,4.077,0,0,1,1.39,68.791,6.182,6.182,0,0,1,0,64.9L.124,5A4.92,4.92,0,0,1,1.458,1.278,4.629,4.629,0,0,1,4.793,0H19.355a4.926,4.926,0,0,1,3.557,1.278A4.92,4.92,0,0,1,24.246,5Zm-12.45,11.45a12,12,0,0,1,8.337,3.113,9.931,9.931,0,0,1,3.446,7.67,10.271,10.271,0,0,1-3.446,7.781,11.764,11.764,0,0,1-8.337,3.224,11.746,11.746,0,0,1-8.115-3.224A10.13,10.13,0,0,1,0,87.244a9.983,9.983,0,0,1,3.446-7.615A11.737,11.737,0,0,1,11.672,76.461Z" transform="matrix(0.98, 0.17, -0.17, 0.98, 361.99, 416.85)"/></g></g><g transform="translate(95.094 236.253)"><g class="n" transform="matrix(1, 0, 0, 1, -57.56, -154.11)"><path class="d" d="M0,76.448V4.03A3.866,3.866,0,0,1,1.209,1.209,4,4,0,0,1,4.145,0H21.99a6.384,6.384,0,0,1,2.418.518,4.307,4.307,0,0,1,1.727,1.094L47.55,25.1,70,1.727A5.59,5.59,0,0,1,73.052.23,29.555,29.555,0,0,1,77.024,0H92.566a3.866,3.866,0,0,1,2.821,1.209A3.866,3.866,0,0,1,96.6,4.03V76.448a4.1,4.1,0,0,1-1.151,2.936,3.81,3.81,0,0,1-2.878,1.209H77.139a4.391,4.391,0,0,1-3.051-1.209,3.829,3.829,0,0,1-1.324-2.936V34.079L54.227,57.566a7.022,7.022,0,0,1-5.872,3.109,7.47,7.47,0,0,1-3.281-.748A6.45,6.45,0,0,1,42.6,57.912l-19-23.832.115,42.369a4.1,4.1,0,0,1-1.151,2.936,3.81,3.81,0,0,1-2.878,1.209H4.145a3.907,3.907,0,0,1-2.936-1.266A4.058,4.058,0,0,1,0,76.448Z" transform="matrix(0.94, -0.34, 0.34, 0.94, 57.56, 194.1)"/></g><g class="m" transform="matrix(1, 0, 0, 1, -57.56, -154.11)"><path class="d" d="M25.1,20.148v9.326H57.566a4.519,4.519,0,0,1,3.281,1.439,4.917,4.917,0,0,1,1.439,3.627V44.556a5.034,5.034,0,0,1-1.439,3.512,4.37,4.37,0,0,1-3.281,1.554H25.1V59.869H59.178a4.645,4.645,0,0,1,3.4,1.439,5.062,5.062,0,0,1,1.439,3.742v9.9a5.17,5.17,0,0,1-1.439,3.627,4.484,4.484,0,0,1-3.4,1.554H4.836a4.484,4.484,0,0,1-3.4-1.554A5.17,5.17,0,0,1,0,74.951V5.066A4.917,4.917,0,0,1,1.439,1.439,4.645,4.645,0,0,1,4.836,0H59.178a4.645,4.645,0,0,1,3.4,1.439,4.917,4.917,0,0,1,1.439,3.627V15.082a4.935,4.935,0,0,1-1.5,3.512,4.547,4.547,0,0,1-3.339,1.554Z" transform="translate(183.08 167.46) rotate(2)"/></g><g class="l" transform="matrix(1, 0, 0, 1, -57.56, -154.11)"><path class="d" d="M0,75.987A12.124,12.124,0,0,1,.633,72.13q.633-1.9.748-2.13L26.941,5.181a8.217,8.217,0,0,1,3.051-3.742A9.226,9.226,0,0,1,34.77,0H51.349A8.474,8.474,0,0,1,56.3,1.612a7.423,7.423,0,0,1,2.648,3.569L84.738,70q.115.576.691,2.36a11.066,11.066,0,0,1,.576,3.4Q86,79.9,81.4,80.593H65.625a8.817,8.817,0,0,1-4.087-.863,3.968,3.968,0,0,1-2.13-2.475L55.839,65.741H30.165L26.6,77.254a3.991,3.991,0,0,1-2.072,2.475,8.464,8.464,0,0,1-4.03.863h-16Q0,79.9,0,75.987Zm44.211-29.7h7.484L42.6,19.227l-8.98,27.056Z" transform="matrix(1, 0.07, -0.07, 1, 256.28, 154.11)"/></g><g class="k" transform="matrix(1, 0, 0, 1, -57.56, -154.11)"><path class="d" d="M65.4,0a4.837,4.837,0,0,1,3.454,1.439,4.44,4.44,0,0,1,1.5,3.281V18.076a4.744,4.744,0,0,1-1.5,3.454,4.745,4.745,0,0,1-3.454,1.5H47.2v52.04a5.361,5.361,0,0,1-1.324,3.684,4.206,4.206,0,0,1-3.281,1.5H27.286a4.279,4.279,0,0,1-3.281-1.439,5.15,5.15,0,0,1-1.324-3.627l.806-52.155H5.066a4.819,4.819,0,0,1-3.627-1.5A4.837,4.837,0,0,1,0,18.076V4.72A4.459,4.459,0,0,1,1.439,1.382,5.027,5.027,0,0,1,5.066,0Z" transform="translate(347.96 174.95) rotate(20)"/></g></g><g transform="translate(78.194 374.696)"><g class="j" transform="matrix(1, 0, 0, 1, -40.66, -292.56)"><path class="e" d="M25.1,20.148v9.326H57.566a4.519,4.519,0,0,1,3.281,1.439,4.917,4.917,0,0,1,1.439,3.627V44.556a5.034,5.034,0,0,1-1.439,3.512,4.37,4.37,0,0,1-3.281,1.554H25.1V59.869H59.178a4.645,4.645,0,0,1,3.4,1.439,5.062,5.062,0,0,1,1.439,3.742v9.9a5.17,5.17,0,0,1-1.439,3.627,4.484,4.484,0,0,1-3.4,1.554H4.836a4.484,4.484,0,0,1-3.4-1.554A5.17,5.17,0,0,1,0,74.951V5.066A4.917,4.917,0,0,1,1.439,1.439,4.645,4.645,0,0,1,4.836,0H59.178a4.645,4.645,0,0,1,3.4,1.439,4.917,4.917,0,0,1,1.439,3.627V15.082a4.935,4.935,0,0,1-1.5,3.512,4.547,4.547,0,0,1-3.339,1.554Z" transform="matrix(1, -0.09, 0.09, 1, 142.02, 305.48)"/></g><g class="i" transform="matrix(1, 0, 0, 1, -40.66, -292.56)"><path class="e" d="M25.1,20.148v9.326H57.566a4.519,4.519,0,0,1,3.281,1.439,4.917,4.917,0,0,1,1.439,3.627V44.556a5.034,5.034,0,0,1-1.439,3.512,4.37,4.37,0,0,1-3.281,1.554H25.1V59.869H59.178a4.645,4.645,0,0,1,3.4,1.439,5.062,5.062,0,0,1,1.439,3.742v9.9a5.17,5.17,0,0,1-1.439,3.627,4.484,4.484,0,0,1-3.4,1.554H4.836a4.484,4.484,0,0,1-3.4-1.554A5.17,5.17,0,0,1,0,74.951V5.066A4.917,4.917,0,0,1,1.439,1.439,4.645,4.645,0,0,1,4.836,0H59.178a4.645,4.645,0,0,1,3.4,1.439,4.917,4.917,0,0,1,1.439,3.627V15.082a4.935,4.935,0,0,1-1.5,3.512,4.547,4.547,0,0,1-3.339,1.554Z" transform="matrix(0.98, -0.17, 0.17, 0.98, 339.4, 303.67)"/></g><g class="h" transform="matrix(1, 0, 0, 1, -40.66, -292.56)"><path class="e" d="M27.375,69.424.219,5.037A2.731,2.731,0,0,1,0,3.833,4.374,4.374,0,0,1,.876,1.2,2.536,2.536,0,0,1,2.957,0H24.09a2.541,2.541,0,0,1,1.588.547,3.271,3.271,0,0,1,1.04,1.314L47.085,48.071l19.6-46.319A2.9,2.9,0,0,1,67.726.493,2.726,2.726,0,0,1,69.314,0H90.448a2.46,2.46,0,0,1,1.971,1.2,4.374,4.374,0,0,1,.876,2.628,2.731,2.731,0,0,1-.219,1.2L65.591,70.409a15.842,15.842,0,0,1-2.464,3.833,5.093,5.093,0,0,1-3.668,1.971H33.617a5.674,5.674,0,0,1-3.833-2.519A15.165,15.165,0,0,1,27.375,69.424Z" transform="matrix(1, 0.07, -0.07, 1, 45.98, 310.74)"/></g><g class="g" transform="matrix(1, 0, 0, 1, -40.66, -292.56)"><path class="e" d="M0,40.3A40.623,40.623,0,0,1,5.256,19.874,38.951,38.951,0,0,1,19.491,5.311,37.61,37.61,0,0,1,38.982,0q2.081,0,3.176.11a51.379,51.379,0,0,1,9.855,1.424l.548.11a2.654,2.654,0,0,1,1.862.876,2.922,2.922,0,0,1,.657,1.971,5.066,5.066,0,0,1-.438,2.081l-4.49,10.184q-1.752,4.49-5.256,4.49-8.979,0-14.509,3.723a17.254,17.254,0,0,0-7.172,11.06,21.4,21.4,0,0,0-.548,4.49,17.664,17.664,0,0,0,3.23,10.4q3.23,4.6,9.8,6.242a34.282,34.282,0,0,0,6.242.657q6.9,0,11-3.34a15.087,15.087,0,0,0,5.311-8.486H52.122a3.754,3.754,0,0,1-2.847-1.15,4.039,4.039,0,0,1-1.1-2.9l-.505-8.382a3.986,3.986,0,0,1,1.15-2.847,3.716,3.716,0,0,1,2.792-1.2L72.9,27.671a14.889,14.889,0,0,1,4.8.876c.933.488,2.378,2.262,3.99,6.931q-.11,1.314-.274,4.654t-.493,6.187a35.3,35.3,0,0,1-6.68,17.465A40.37,40.37,0,0,1,59.788,76.1a39.808,39.808,0,0,1-18.4,4.49,40.328,40.328,0,0,1-20.258-5.42A42.653,42.653,0,0,1,5.8,60.445,37.379,37.379,0,0,1,0,40.3Z" transform="matrix(1, -0.09, 0.09, 1, 214.81, 316.44)"/></g><g class="f" transform="matrix(1, 0, 0, 1, -40.66, -292.56)"><path class="e" d="M0,71.833V5.037A5.172,5.172,0,0,1,1.314,1.478,4.457,4.457,0,0,1,4.818,0h15a4.379,4.379,0,0,1,3.34,1.478,5.053,5.053,0,0,1,1.369,3.559v66.8A4.957,4.957,0,0,1,23.159,75.5a4.544,4.544,0,0,1-3.34,1.369h-15a4.632,4.632,0,0,1-3.5-1.369A5.075,5.075,0,0,1,0,71.833Z" transform="translate(314.47 317.39) rotate(8)"/></g></g><g transform="matrix(0.829, 0.559, -0.559, 0.829, 418.374, 615.254)"><g transform="translate(0 0)"><path d="M80.117,14.694a23.259,23.259,0,0,1,.206,18.573C72.749,51.756,49.558,52.283,38.464,48.494A78.857,78.857,0,0,1,13.893,35.086Q3.062,26.279.511,20.265-1.07,16.576,2.24,16.781q15.812,1.086,26.284-3.357a43.8,43.8,0,0,0,6.641-3.5c2.108-1.344,3.447-2.224,4.042-2.635a69.27,69.27,0,0,1,9.218-5.255A23.38,23.38,0,0,1,67,1.823,23.127,23.127,0,0,1,80.117,14.694Z"/><ellipse class="a" cx="1.845" cy="1.845" rx="1.845" ry="1.845" transform="translate(68.269 10.383)"/><path class="a" d="M17.745,5.264a1.656,1.656,0,0,0-.142-.121L17.413,5c-.132-.095-.269-.19-.416-.279a9.955,9.955,0,0,0-.9-.527,12.717,12.717,0,0,0-1.95-.822,15.579,15.579,0,0,0-4.216-.754,17.865,17.865,0,0,0-2.187.095c-.364.047-.733.058-1.1.132l-1.086.216a7.729,7.729,0,0,0-1.054.274l-1.054.311c-.706.253-1.4.527-2.108.812l-.095.037A1.054,1.054,0,0,1,.463,2.587C1.206,2.255,1.939,1.9,2.7,1.58l1.16-.416A9.3,9.3,0,0,1,5.038.79L6.245.479c.4-.105.822-.148,1.233-.227A20.757,20.757,0,0,1,9.982,0a18.258,18.258,0,0,1,5.054.6,15.812,15.812,0,0,1,2.44.864c.4.184.791.369,1.175.6.19.105.385.216.58.348.095.058.19.116.29.19s.19.132.327.242l.132.105a1.591,1.591,0,0,1-1.992,2.482A.649.649,0,0,1,17.745,5.264Z" transform="translate(47.393 4.217)"/></g></g><g transform="translate(37.535 364.638) rotate(-32)"><g transform="translate(0 0)"><path d="M1.192,20.86A13.6,13.6,0,0,1,1.072,10C5.5-.81,19.06-1.118,25.547,1.1a46.109,46.109,0,0,1,14.367,7.84q6.333,5.15,7.825,8.666.925,2.157-1.011,2.037-9.245-.635-15.369,1.963a25.612,25.612,0,0,0-3.883,2.049c-1.233.786-2.015,1.3-2.364,1.541a40.5,40.5,0,0,1-5.39,3.072,13.671,13.671,0,0,1-10.863.12A13.523,13.523,0,0,1,1.192,20.86Z"/><path class="a" d="M10.458,1.016a8.352,8.352,0,0,0-1.341.16,10.426,10.426,0,0,0-1.334.37A10.194,10.194,0,0,0,5.318,2.779a6.305,6.305,0,0,0-.549.407,5.088,5.088,0,0,0-.527.438l-.49.475-.459.508a11.852,11.852,0,0,0-.844,1.072c-.262.376-.484.78-.727,1.165l-.055.086A.925.925,0,0,1,.106,5.947L.14,5.9c.308-.422.589-.857.925-1.26A14.33,14.33,0,0,1,2.106,3.482c.188-.179.37-.364.564-.539l.616-.49A5.781,5.781,0,0,1,3.922,2a7.4,7.4,0,0,1,.656-.419A11.55,11.55,0,0,1,7.435.385,12.068,12.068,0,0,1,8.948.076,9.1,9.1,0,0,1,10.523.009a.508.508,0,0,1,0,1.014Z" transform="translate(4.877 2.99)"/><circle class="a" cx="1.079" cy="1.079" r="1.079" transform="translate(3.189 11.054)"/></g></g><g transform="translate(441.554 236.303) rotate(165)"><g transform="translate(0 0)"><path d="M1.631,11.755a18.607,18.607,0,0,0-.164,14.859C7.526,41.4,26.078,41.827,34.954,38.795A63.086,63.086,0,0,0,54.611,28.068q8.665-7.046,10.705-11.857,1.265-2.951-1.383-2.787-12.649.869-21.027-2.686a35.043,35.043,0,0,1-5.313-2.8c-1.687-1.075-2.758-1.779-3.234-2.108a55.416,55.416,0,0,0-7.374-4.2,18.7,18.7,0,0,0-14.863-.164,18.5,18.5,0,0,0-10.49,10.3Z"/><path class="a" d="M14.308,8.6a11.427,11.427,0,0,1-1.834-.219,14.264,14.264,0,0,1-1.826-.506A13.948,13.948,0,0,1,7.276,6.188a8.627,8.627,0,0,1-.751-.557,6.962,6.962,0,0,1-.721-.6l-.67-.649-.628-.7A16.216,16.216,0,0,1,3.35,2.221c-.358-.514-.662-1.067-1-1.594L2.279.509A1.265,1.265,0,0,0,.146,1.854l.046.067C.614,2.5,1,3.093,1.457,3.646A19.607,19.607,0,0,0,2.882,5.227c.257.245.506.5.772.738l.843.67a7.91,7.91,0,0,0,.869.62,10.12,10.12,0,0,0,.9.573,15.8,15.8,0,0,0,3.909,1.636,16.512,16.512,0,0,0,2.07.422,12.451,12.451,0,0,0,2.155.093.7.7,0,0,0,0-1.387Z" transform="translate(6.672 26.215)"/><ellipse class="a" cx="1.476" cy="1.476" rx="1.476" ry="1.476" transform="translate(4.364 22.22)"/></g></g><g transform="translate(104.231 197.477) rotate(24)"><g transform="translate(0 0)"><path d="M1.224,21.406A13.955,13.955,0,0,1,1.1,10.262C5.645-.831,19.559-1.148,26.215,1.126A47.314,47.314,0,0,1,40.958,9.171q6.5,5.284,8.029,8.892.949,2.214-1.037,2.09-9.487-.651-15.77,2.014a26.282,26.282,0,0,0-3.984,2.1c-1.265.806-2.068,1.334-2.425,1.581A41.561,41.561,0,0,1,20.239,29a14.028,14.028,0,0,1-11.147.123,13.876,13.876,0,0,1-7.868-7.722Z"/><path class="a" d="M10.731,1.043a8.57,8.57,0,0,0-1.376.164,10.7,10.7,0,0,0-1.369.379,10.461,10.461,0,0,0-2.53,1.265,6.47,6.47,0,0,0-.563.417,5.222,5.222,0,0,0-.541.449l-.5.487-.471.522a12.162,12.162,0,0,0-.866,1.1c-.269.386-.5.8-.746,1.2l-.057.089A.949.949,0,0,1,.109,6.1l.035-.051c.316-.433.6-.879.949-1.293A14.705,14.705,0,0,1,2.162,3.573c.193-.183.379-.373.579-.553l.632-.5a5.933,5.933,0,0,1,.651-.465,7.59,7.59,0,0,1,.674-.43A11.852,11.852,0,0,1,7.629.395,12.383,12.383,0,0,1,9.182.078,9.338,9.338,0,0,1,10.8.009a.522.522,0,0,1,0,1.04Z" transform="translate(5.004 3.068)"/><circle class="a" cx="1.107" cy="1.107" r="1.107" transform="translate(3.273 11.343)"/></g></g><g transform="translate(487.756 373.294) rotate(-173)"><g transform="translate(0 0)"><path d="M1.224,8.816A13.955,13.955,0,0,0,1.1,19.96C5.645,31.054,19.559,31.37,26.215,29.1a47.314,47.314,0,0,0,14.743-8.045q6.5-5.284,8.029-8.892.949-2.214-1.037-2.09-9.487.651-15.77-2.014a26.282,26.282,0,0,1-3.984-2.1c-1.265-.806-2.068-1.334-2.425-1.581a41.561,41.561,0,0,0-5.531-3.153A14.028,14.028,0,0,0,9.091,1.094,13.876,13.876,0,0,0,1.224,8.816Z"/><path class="a" d="M10.731,6.45a8.57,8.57,0,0,1-1.376-.164,10.7,10.7,0,0,1-1.369-.379,10.461,10.461,0,0,1-2.53-1.265,6.47,6.47,0,0,1-.563-.417,5.221,5.221,0,0,1-.541-.449l-.5-.487-.471-.522a12.162,12.162,0,0,1-.866-1.1c-.269-.386-.5-.8-.746-1.2L1.709.382A.949.949,0,0,0,.109,1.39l.035.051c.316.433.6.879.949,1.293A14.7,14.7,0,0,0,2.162,3.92c.193.183.379.373.579.553l.632.5a5.933,5.933,0,0,0,.651.465,7.59,7.59,0,0,0,.674.43A11.852,11.852,0,0,0,7.629,7.1a12.383,12.383,0,0,0,1.553.316,9.339,9.339,0,0,0,1.616.07.522.522,0,0,0,0-1.04Z" transform="translate(5.004 19.661)"/><ellipse class="a" cx="1.107" cy="1.107" rx="1.107" ry="1.107" transform="translate(3.273 16.665)"/></g></g><g transform="matrix(0.438, -0.899, 0.899, 0.438, 91.668, 602.983)"><g transform="translate(0 0)"><path d="M.991,17.342a11.306,11.306,0,0,1-.1-9.028C4.573-.674,15.846-.93,21.238.912A38.332,38.332,0,0,1,33.182,7.43q5.265,4.281,6.5,7.2.769,1.793-.84,1.693Q31.161,15.8,26.07,17.96a21.292,21.292,0,0,0-3.228,1.7c-1.025.653-1.676,1.081-1.965,1.281A33.671,33.671,0,0,1,16.4,23.5a11.365,11.365,0,0,1-9.031.1A11.242,11.242,0,0,1,.991,17.342Z"/><path class="a" d="M8.694.845A6.943,6.943,0,0,0,7.58.978a8.667,8.667,0,0,0-1.109.307A8.475,8.475,0,0,0,4.421,2.31a5.241,5.241,0,0,0-.456.338,4.23,4.23,0,0,0-.438.364l-.407.395-.382.423a9.853,9.853,0,0,0-.7.892c-.218.313-.4.648-.6.968l-.046.072a.769.769,0,0,1-1.3-.817L.117,4.9c.256-.351.489-.712.769-1.048a11.913,11.913,0,0,1,.866-.961c.156-.149.307-.3.469-.448l.512-.407a4.806,4.806,0,0,1,.528-.377,6.149,6.149,0,0,1,.546-.348A9.6,9.6,0,0,1,6.181.32,10.032,10.032,0,0,1,7.439.064,7.566,7.566,0,0,1,8.748.007a.423.423,0,0,1,0,.843Z" transform="translate(4.054 2.486)"/><circle class="a" cx="0.897" cy="0.897" r="0.897" transform="translate(2.651 9.19)"/></g></g><g transform="matrix(0.829, 0.559, -0.559, 0.829, 231.789, 134.145)"><g transform="translate(0 0)"><path d="M1.631,28.541a18.607,18.607,0,0,1-.164-14.859C7.526-1.109,26.078-1.53,34.954,1.5A63.086,63.086,0,0,1,54.611,12.228q8.665,7.046,10.705,11.857,1.265,2.951-1.383,2.787Q51.284,26,42.906,29.557a35.043,35.043,0,0,0-5.313,2.8c-1.687,1.075-2.758,1.779-3.234,2.108a55.415,55.415,0,0,1-7.374,4.2,18.7,18.7,0,0,1-14.863.164,18.5,18.5,0,0,1-10.49-10.3Z"/><path class="a" d="M14.308,1.391a11.427,11.427,0,0,0-1.834.219,14.264,14.264,0,0,0-1.826.506A13.948,13.948,0,0,0,7.276,3.8a8.627,8.627,0,0,0-.751.557,6.962,6.962,0,0,0-.721.6l-.67.649-.628.7A16.217,16.217,0,0,0,3.35,7.77c-.358.514-.662,1.067-1,1.594l-.076.118A1.265,1.265,0,0,1,.146,8.137l.046-.067C.614,7.492,1,6.9,1.457,6.345A19.606,19.606,0,0,1,2.882,4.764c.257-.245.506-.5.772-.738l.843-.67a7.91,7.91,0,0,1,.869-.62,10.12,10.12,0,0,1,.9-.573A15.8,15.8,0,0,1,10.172.526,16.511,16.511,0,0,1,12.242.1,12.451,12.451,0,0,1,14.4.012a.7.7,0,0,1,0,1.387Z" transform="translate(6.672 4.091)"/><circle class="a" cx="1.476" cy="1.476" r="1.476" transform="translate(4.364 15.125)"/></g></g><g transform="translate(299.648 192.044) rotate(141)"><g transform="translate(0 0)"><g transform="translate(0 0)"><path d="M.653,4.7a7.443,7.443,0,0,0-.066,5.943c2.424,5.916,9.844,6.085,13.395,4.872a25.234,25.234,0,0,0,7.863-4.291q3.466-2.818,4.282-4.743.506-1.181-.553-1.115A18.348,18.348,0,0,1,17.162,4.3a14.017,14.017,0,0,1-2.125-1.122c-.675-.43-1.1-.712-1.294-.843A22.166,22.166,0,0,0,10.794.649,7.482,7.482,0,0,0,4.849.583,7.4,7.4,0,0,0,.653,4.7Z"/><path class="a" d="M5.723,3.44a4.571,4.571,0,0,1-.734-.088,5.706,5.706,0,0,1-.73-.2A5.579,5.579,0,0,1,2.91,2.475a3.45,3.45,0,0,1-.3-.223,2.785,2.785,0,0,1-.288-.239l-.268-.26L1.8,1.475A6.487,6.487,0,0,1,1.34.888C1.2.683,1.075.462.942.251L.912.2A.506.506,0,0,0,.058.742L.077.769c.169.231.322.469.506.69a7.843,7.843,0,0,0,.57.632c.1.1.2.2.309.3l.337.268a3.164,3.164,0,0,0,.347.248,4.048,4.048,0,0,0,.359.229,6.321,6.321,0,0,0,1.563.654,6.6,6.6,0,0,0,.828.169,4.98,4.98,0,0,0,.862.037.278.278,0,0,0,0-.555Z" transform="translate(2.669 10.486)"/><circle class="a" cx="0.59" cy="0.59" r="0.59" transform="translate(1.745 8.888)"/></g></g></g><g transform="translate(362.895 125.096) rotate(136)"><path d="M2.418,17.42a27.574,27.574,0,0,0-.244,22.019C11.153,61.359,38.646,61.983,51.8,57.491a93.488,93.488,0,0,0,29.13-15.9q12.84-10.441,15.865-17.57,1.875-4.374-2.049-4.13Q76,21.182,63.583,15.914a51.931,51.931,0,0,1-7.873-4.155c-2.5-1.593-4.086-2.637-4.792-3.124a82.12,82.12,0,0,0-10.928-6.23,27.718,27.718,0,0,0-22.025-.244A27.418,27.418,0,0,0,2.418,17.42Z" transform="translate(0 0)"/><path class="a" d="M21.2,12.745a16.934,16.934,0,0,1-2.718-.325,21.138,21.138,0,0,1-2.706-.75,20.669,20.669,0,0,1-5-2.5,12.783,12.783,0,0,1-1.112-.825A10.316,10.316,0,0,1,8.6,7.458L7.607,6.5,6.676,5.465A24.031,24.031,0,0,1,4.964,3.291C4.433,2.529,3.983,1.71,3.49.929L3.377.754A1.875,1.875,0,0,0,.216,2.747l.069.1C.909,3.7,1.478,4.584,2.159,5.4A29.056,29.056,0,0,0,4.271,7.746c.381.362.75.737,1.143,1.093l1.25.993a11.722,11.722,0,0,0,1.287.919,15,15,0,0,0,1.331.85,23.418,23.418,0,0,0,5.792,2.424,24.468,24.468,0,0,0,3.068.625,18.452,18.452,0,0,0,3.193.137,1.031,1.031,0,0,0,0-2.056Z" transform="translate(9.887 38.848)"/><ellipse class="a" cx="2.187" cy="2.187" rx="2.187" ry="2.187" transform="translate(6.467 32.929)"/></g></g></svg>