<svg xmlns="http://www.w3.org/2000/svg" width="964.191" height="809.367" viewBox="0 0 964.191 809.367"><defs><style>.a{fill:#fff;}</style></defs><g transform="translate(749.82 809.367) rotate(-155)"><g transform="translate(0 0)"><path class="a" d="M806.8,147.972c26.538,62.523,27.493,124.993,2.07,187.038-76.27,186.189-309.8,191.5-421.525,153.335A794.114,794.114,0,0,1,139.906,353.322Q30.836,264.633,5.147,204.073-10.775,166.92,22.556,168.99q159.226,10.934,264.687-33.809a441.122,441.122,0,0,0,66.875-35.3c21.23-13.534,34.711-22.4,40.709-26.538q61.461-39.594,92.829-52.916a235.442,235.442,0,0,1,187.09-2.07A232.9,232.9,0,0,1,806.8,147.972Z" transform="translate(0 0)"/></g></g></svg>