<svg xmlns="http://www.w3.org/2000/svg" width="119.054" height="93.125" viewBox="0 0 119.054 93.125"><defs><style>.a{fill:#ffce06;}.b{fill:#fff;}</style></defs><g transform="matrix(0.951, -0.309, 0.309, 0.951, 0, 32.257)"><path class="a" d="M2.591,45.33a29.552,29.552,0,0,1-.261-23.6C11.953-1.761,41.418-2.43,55.515,2.385a100.2,100.2,0,0,1,31.22,17.036q13.762,11.19,17,18.831,2.009,4.688-2.2,4.426-20.09-1.379-33.4,4.266A55.657,55.657,0,0,0,59.707,51.4c-2.679,1.708-4.38,2.826-5.136,3.348a88.011,88.011,0,0,1-11.712,6.677,29.706,29.706,0,0,1-23.606.261A29.385,29.385,0,0,1,2.591,45.33Z" transform="translate(0 0)"/><path class="b" d="M22.725,2.209a18.148,18.148,0,0,0-2.913.348,22.655,22.655,0,0,0-2.9.8,22.152,22.152,0,0,0-5.357,2.679,13.7,13.7,0,0,0-1.192.884,11.057,11.057,0,0,0-1.145.951L8.153,8.905l-1,1.1a25.755,25.755,0,0,0-1.835,2.33c-.569.817-1.051,1.694-1.58,2.531l-.121.188A2.009,2.009,0,0,1,.231,12.923L.3,12.816c.67-.917,1.279-1.862,2.009-2.739A31.14,31.14,0,0,1,4.577,7.566c.408-.388.8-.79,1.225-1.172L7.142,5.329a12.563,12.563,0,0,1,1.38-.984,16.073,16.073,0,0,1,1.426-.911,25.1,25.1,0,0,1,6.208-2.6,26.224,26.224,0,0,1,3.288-.67A19.776,19.776,0,0,1,22.866.019a1.1,1.1,0,0,1,0,2.2Z" transform="translate(10.597 6.498)"/><ellipse class="b" cx="2.344" cy="2.344" rx="2.344" ry="2.344" transform="translate(6.931 24.021)"/></g></svg>