<svg xmlns="http://www.w3.org/2000/svg" width="14" height="13.103" viewBox="0 0 14 13.103"><path d="M6.644,13.1a.207.207,0,0,1-.127-.033c-.137-.107-.087-.369-.029-.673.094-.489.212-1.1-.486-1.243-.077-.008-.156-.018-.233-.03C2.427,10.65,0,8.329,0,5.607,0,2.514,3.14,0,7,0s7,2.514,7,5.607a4.791,4.791,0,0,1-1.046,2.946,1.347,1.347,0,0,1-.13.161,6,6,0,0,1-.764.765C10.191,11.207,7.356,13.1,6.644,13.1ZM9.909,3.962a.366.366,0,0,0-.364.367V7.034a.366.366,0,0,0,.364.367h1.413a.366.366,0,0,0,.364-.367V7a.365.365,0,0,0-.364-.366H10.3V6.062h1.017a.365.365,0,0,0,.364-.366V5.667a.365.365,0,0,0-.364-.366H10.3V4.722h1.017a.364.364,0,0,0,.364-.364v-.03a.366.366,0,0,0-.364-.367ZM7.046,5.409l0,0L8.374,7.225c.009.013.017.023.027.036a.285.285,0,0,0,.141.1.324.324,0,0,0,.138.029h.031a.375.375,0,0,0,.17-.043.217.217,0,0,0,.089-.067.358.358,0,0,0,.106-.255V4.321a.365.365,0,0,0-.364-.365H8.681a.365.365,0,0,0-.364.365v1.59L7,4.141a.365.365,0,0,0-.317-.185H6.65a.366.366,0,0,0-.366.365V7.029a.366.366,0,0,0,.366.366h.03a.366.366,0,0,0,.366-.366V5.409ZM5.375,3.957a.365.365,0,0,0-.364.365V7.029a.365.365,0,0,0,.364.366h.031a.365.365,0,0,0,.364-.366V4.321a.365.365,0,0,0-.364-.365Zm-2.437,0a.365.365,0,0,0-.364.365V7.029a.365.365,0,0,0,.364.366H4.35a.365.365,0,0,0,.364-.366V7a.364.364,0,0,0-.364-.364H3.334V4.321a.365.365,0,0,0-.364-.365Z" fill="#807119"/></svg>