<svg width="53" height="76" viewBox="0 0 53 76" fill="none" xmlns="http://www.w3.org/2000/svg">
<g clip-path="url(#clip0)">
<path d="M29.02 7.39001C30.4007 7.39001 31.52 6.27073 31.52 4.89001C31.52 3.5093 30.4007 2.39001 29.02 2.39001C27.6392 2.39001 26.52 3.5093 26.52 4.89001C26.52 6.27073 27.6392 7.39001 29.02 7.39001Z" stroke="white" stroke-width="1.5" stroke-miterlimit="10"/>
<path d="M35.51 8.79001C36.1396 8.79001 36.65 8.27961 36.65 7.65001C36.65 7.0204 36.1396 6.51001 35.51 6.51001C34.8804 6.51001 34.37 7.0204 34.37 7.65001C34.37 8.27961 34.8804 8.79001 35.51 8.79001Z" fill="white"/>
<path d="M35.36 2.28C35.9896 2.28 36.5 1.7696 36.5 1.14C36.5 0.510395 35.9896 0 35.36 0C34.7304 0 34.22 0.510395 34.22 1.14C34.22 1.7696 34.7304 2.28 35.36 2.28Z" fill="white"/>
<path d="M40.41 62C39.65 58.43 37.79 55.19 35.94 52C40.14 46.9 39.62 39.39 37.63 33.09C35.64 26.79 32.4 20.85 31.79 14.28H21.42C20.81 20.85 17.56 26.85 15.57 33.14C13.58 39.43 13.06 47 17.27 52.05C15.41 55.2 13.56 58.44 12.79 62.05C12.02 65.66 12.52 69.62 15 72.36C15.7545 73.2018 16.6801 73.8728 17.7148 74.3281C18.7496 74.7834 19.8696 75.0124 21 75H32.46C33.5531 74.9859 34.6317 74.7479 35.6293 74.3007C36.6268 73.8536 37.5221 73.2067 38.26 72.4C40.68 69.62 41.17 65.59 40.41 62Z" fill="#6F1819"/>
<path d="M20.44 52.91V59.56" stroke="black" stroke-width="1.5" stroke-miterlimit="10" stroke-linecap="round"/>
<path d="M26.84 52.65V60.32" stroke="black" stroke-width="1.5" stroke-miterlimit="10" stroke-linecap="round"/>
<path d="M32.72 52.65V60.33" stroke="black" stroke-width="1.5" stroke-miterlimit="10" stroke-linecap="round"/>
<path d="M38.26 72.36C40.46 69.88 41.05 66.36 40.58 63.02C38.7294 64.6948 36.4525 65.8263 34 66.29C26.7435 68.0044 19.1104 67.005 12.54 63.48C12.3082 65.0498 12.4074 66.6508 12.831 68.1801C13.2547 69.7094 13.9935 71.1332 15 72.36C15.7545 73.2018 16.6801 73.8728 17.7148 74.3281C18.7496 74.7834 19.8696 75.0124 21 75H32.46C33.556 74.9808 34.6365 74.7366 35.6342 74.2824C36.6319 73.8283 37.5257 73.1739 38.26 72.36V72.36Z" fill="#3B1800"/>
<path d="M40.41 62C39.65 58.43 37.79 55.19 35.94 52C40.14 46.9 39.62 39.39 37.63 33.09C35.64 26.79 32.4 20.85 31.79 14.28H21.42C20.81 20.85 17.56 26.85 15.57 33.14C13.58 39.43 13.06 47 17.27 52.05C15.41 55.2 13.56 58.44 12.79 62.05C12.02 65.66 12.52 69.62 15 72.36C15.7545 73.2018 16.6801 73.8728 17.7148 74.3281C18.7496 74.7834 19.8696 75.0124 21 75H32.46C33.5531 74.9859 34.6317 74.7479 35.6293 74.3007C36.6268 73.8536 37.5221 73.2067 38.26 72.4C40.68 69.62 41.17 65.59 40.41 62Z" stroke="black" stroke-width="1.5" stroke-miterlimit="10"/>
<path d="M17.13 51.86H36.13C39.69 47.37 39.7 41.08 38.3 35.38H15C13.55 41.08 13.56 47.37 17.13 51.86Z" fill="white" stroke="black" stroke-miterlimit="10"/>
<path d="M15.23 48.57H38C39.1309 45.4443 39.4509 42.0829 38.93 38.8H14.3C13.7843 42.0831 14.1042 45.4432 15.23 48.57V48.57Z" fill="#D93521" stroke="black" stroke-miterlimit="10"/>
<path d="M22.25 15.45C21.7196 15.45 21.2109 15.2393 20.8358 14.8642C20.4607 14.4892 20.25 13.9804 20.25 13.45C20.25 12.9196 20.4607 12.4109 20.8358 12.0358C21.2109 11.6607 21.7196 11.45 22.25 11.45H31C31.5304 11.45 32.0391 11.6607 32.4142 12.0358C32.7893 12.4109 33 12.9196 33 13.45C33 13.9804 32.7893 14.4892 32.4142 14.8642C32.0391 15.2393 31.5304 15.45 31 15.45H22.25Z" fill="#D93521"/>
<path d="M31 11.93C31.2115 11.9055 31.4258 11.9261 31.6288 11.9903C31.8318 12.0545 32.019 12.161 32.178 12.3026C32.337 12.4443 32.4642 12.6179 32.5513 12.8122C32.6384 13.0065 32.6835 13.2171 32.6835 13.43C32.6835 13.643 32.6384 13.8535 32.5513 14.0478C32.4642 14.2421 32.337 14.4158 32.178 14.5574C32.019 14.6991 31.8318 14.8055 31.6288 14.8697C31.4258 14.9339 31.2115 14.9545 31 14.93H22.3C21.932 14.8875 21.5925 14.7111 21.3461 14.4345C21.0996 14.158 20.9635 13.8004 20.9635 13.43C20.9635 13.0596 21.0996 12.7021 21.3461 12.4255C21.5925 12.1489 21.932 11.9726 22.3 11.93H31ZM31 10.93H22.3C21.6755 10.9859 21.0946 11.2735 20.6715 11.7362C20.2484 12.1988 20.0138 12.8031 20.0138 13.43C20.0138 14.057 20.2484 14.6612 20.6715 15.1239C21.0946 15.5865 21.6755 15.8741 22.3 15.93H31C31.3471 15.9611 31.6968 15.9195 32.027 15.808C32.3572 15.6965 32.6605 15.5175 32.9177 15.2823C33.1748 15.0471 33.3802 14.761 33.5207 14.4421C33.6612 14.1232 33.7338 13.7785 33.7338 13.43C33.7338 13.0815 33.6612 12.7369 33.5207 12.418C33.3802 12.0991 33.1748 11.8129 32.9177 11.5777C32.6605 11.3426 32.3572 11.1635 32.027 11.052C31.6968 10.9405 31.3471 10.8989 31 10.93V10.93Z" fill="black"/>
<path d="M20.78 35.02V27.8" stroke="black" stroke-width="1.5" stroke-miterlimit="10" stroke-linecap="round"/>
<path d="M26.67 34.51V21.87" stroke="black" stroke-width="1.5" stroke-miterlimit="10" stroke-linecap="round"/>
<path d="M31.9 34.51V28.91" stroke="black" stroke-width="1.5" stroke-miterlimit="10" stroke-linecap="round"/>
<path d="M29.97 25.02C30.5223 25.02 30.97 24.5723 30.97 24.02C30.97 23.4677 30.5223 23.02 29.97 23.02C29.4177 23.02 28.97 23.4677 28.97 24.02C28.97 24.5723 29.4177 25.02 29.97 25.02Z" fill="#FFD0F0"/>
<path d="M23.73 32.71C24.2823 32.71 24.73 32.2623 24.73 31.71C24.73 31.1577 24.2823 30.71 23.73 30.71C23.1777 30.71 22.73 31.1577 22.73 31.71C22.73 32.2623 23.1777 32.71 23.73 32.71Z" fill="#FFD0F0"/>
<path d="M23.64 61.32C24.1922 61.32 24.64 60.8723 24.64 60.32C24.64 59.7677 24.1922 59.32 23.64 59.32C23.0877 59.32 22.64 59.7677 22.64 60.32C22.64 60.8723 23.0877 61.32 23.64 61.32Z" fill="#FFD0F0"/>
<path d="M25.17 66.23C25.7223 66.23 26.17 65.7823 26.17 65.23C26.17 64.6777 25.7223 64.23 25.17 64.23C24.6177 64.23 24.17 64.6777 24.17 65.23C24.17 65.7823 24.6177 66.23 25.17 66.23Z" fill="#FFD0F0"/>
<path d="M30.18 68.81C30.7323 68.81 31.18 68.3623 31.18 67.81C31.18 67.2577 30.7323 66.81 30.18 66.81C29.6277 66.81 29.18 67.2577 29.18 67.81C29.18 68.3623 29.6277 68.81 30.18 68.81Z" stroke="#FFD0F0" stroke-miterlimit="10"/>
<path d="M33.47 65.23C34.0223 65.23 34.47 64.7823 34.47 64.23C34.47 63.6777 34.0223 63.23 33.47 63.23C32.9177 63.23 32.47 63.6777 32.47 64.23C32.47 64.7823 32.9177 65.23 33.47 65.23Z" fill="#FFD0F0"/>
</g>
<defs>
<clipPath id="clip0">
<rect width="52.18" height="75.97" fill="white"/>
</clipPath>
</defs>
</svg>
