<svg xmlns="http://www.w3.org/2000/svg" viewBox="0 0 52.18 75.97"><defs><style>.cls-1,.cls-12,.cls-3,.cls-5,.cls-7{fill:none;}.cls-1{stroke:#fff;}.cls-1,.cls-12,.cls-3,.cls-5,.cls-7,.cls-8,.cls-9{stroke-miterlimit:10;}.cls-1,.cls-5,.cls-7{stroke-width:1.5px;}.cls-2,.cls-8{fill:#fff;}.cls-3,.cls-5,.cls-7,.cls-8,.cls-9{stroke:#000;}.cls-3,.cls-5{stroke-linecap:round;}.cls-3{stroke-width:2px;}.cls-4{fill:#6f1819;}.cls-6{fill:#3b1800;}.cls-10,.cls-9{fill:#d93521;}.cls-11{fill:#ffd0f0;}.cls-12{stroke:#ffd0f0;}</style></defs><title>coca-cola</title><g id="Layer_2" data-name="Layer 2"><g id="Layer_1-2" data-name="Layer 1"><circle class="cls-1" cx="29.02" cy="4.89" r="2.5"/><circle class="cls-2" cx="35.51" cy="7.65" r="1.14"/><circle class="cls-2" cx="35.36" cy="1.14" r="1.14"/><line class="cls-3" x1="9.62" y1="74.97" x2="43.58" y2="74.97"/><line class="cls-3" x1="1" y1="74.97" x2="5.89" y2="74.97"/><line class="cls-3" x1="46.84" y1="74.97" x2="51.18" y2="74.97"/><path class="cls-4" d="M40.41,62c-.76-3.57-2.62-6.81-4.47-10,4.2-5.1,3.68-12.61,1.69-18.91S32.4,20.85,31.79,14.28H21.42c-.61,6.57-3.86,12.57-5.85,18.86S13.06,47,17.27,52.05c-1.86,3.15-3.71,6.39-4.48,10S12.52,69.62,15,72.36A7.94,7.94,0,0,0,21,75H32.46a8,8,0,0,0,5.8-2.6C40.68,69.62,41.17,65.59,40.41,62Z"/><line class="cls-5" x1="20.44" y1="52.91" x2="20.44" y2="59.56"/><line class="cls-5" x1="26.84" y1="52.65" x2="26.84" y2="60.32"/><line class="cls-5" x1="32.72" y1="52.65" x2="32.72" y2="60.33"/><path class="cls-6" d="M38.26,72.36c2.2-2.48,2.79-6,2.32-9.34A13.56,13.56,0,0,1,34,66.29a30.54,30.54,0,0,1-21.46-2.81A11.38,11.38,0,0,0,15,72.36,7.94,7.94,0,0,0,21,75H32.46A8,8,0,0,0,38.26,72.36Z"/><path class="cls-7" d="M40.41,62c-.76-3.57-2.62-6.81-4.47-10,4.2-5.1,3.68-12.61,1.69-18.91S32.4,20.85,31.79,14.28H21.42c-.61,6.57-3.86,12.57-5.85,18.86S13.06,47,17.27,52.05c-1.86,3.15-3.71,6.39-4.48,10S12.52,69.62,15,72.36A7.94,7.94,0,0,0,21,75H32.46a8,8,0,0,0,5.8-2.6C40.68,69.62,41.17,65.59,40.41,62Z"/><path class="cls-8" d="M17.13,51.86h19c3.56-4.49,3.57-10.78,2.17-16.48H15C13.55,41.08,13.56,47.37,17.13,51.86Z"/><path class="cls-9" d="M15.23,48.57H38a19.66,19.66,0,0,0,.93-9.77H14.3A19.78,19.78,0,0,0,15.23,48.57Z"/><path class="cls-10" d="M22.25,15.45a2,2,0,0,1,0-4H31a2,2,0,1,1,0,4Z"/><path d="M31,11.93a1.51,1.51,0,1,1,0,3h-8.7a1.51,1.51,0,0,1,0-3H31m0-1h-8.7a2.51,2.51,0,0,0,0,5H31a2.51,2.51,0,1,0,0-5Z"/><line class="cls-5" x1="20.78" y1="35.02" x2="20.78" y2="27.8"/><line class="cls-5" x1="26.67" y1="34.51" x2="26.67" y2="21.87"/><line class="cls-5" x1="31.9" y1="34.51" x2="31.9" y2="28.91"/><circle class="cls-11" cx="29.97" cy="24.02" r="1"/><circle class="cls-11" cx="23.73" cy="31.71" r="1"/><circle class="cls-11" cx="23.64" cy="60.32" r="1"/><circle class="cls-11" cx="25.17" cy="65.23" r="1"/><circle class="cls-12" cx="30.18" cy="67.81" r="1"/><circle class="cls-11" cx="33.47" cy="64.23" r="1"/></g></g></svg>