<svg width="50" height="50" viewBox="0 0 50 50" fill="none" xmlns="http://www.w3.org/2000/svg">
<path d="M27.006 43.3775C38.5514 43.3775 47.9108 34.0181 47.9108 22.4727C47.9108 10.9273 38.5514 1.56787 27.006 1.56787C15.4605 1.56787 6.10114 10.9273 6.10114 22.4727C6.10114 34.0181 15.4605 43.3775 27.006 43.3775Z" fill="white"/>
<path fill-rule="evenodd" clip-rule="evenodd" d="M27.006 3.13572C16.3264 3.13572 7.66899 11.7932 7.66899 22.4727C7.66899 33.1522 16.3264 41.8097 27.006 41.8097C37.6855 41.8097 46.3429 33.1522 46.3429 22.4727C46.3429 11.7932 37.6855 3.13572 27.006 3.13572ZM4.53326 22.4727C4.53326 10.0614 14.5946 0 27.006 0C39.4173 0 49.4786 10.0614 49.4786 22.4727C49.4786 34.884 39.4173 44.9454 27.006 44.9454C14.5946 44.9454 4.53326 34.884 4.53326 22.4727Z" fill="black"/>
<path fill-rule="evenodd" clip-rule="evenodd" d="M32.8069 10.0692C30.9889 9.24603 29.0137 8.82772 27.0181 8.84317L27.0062 8.84326V8.84322C25.0229 8.84358 23.0623 9.26645 21.2551 10.0837C20.4661 10.4404 19.5373 10.0901 19.1805 9.30108C18.8237 8.51209 19.1741 7.58326 19.9631 7.22648C22.1743 6.22657 24.573 5.70878 26.9997 5.70749C29.4476 5.6894 31.8702 6.20291 34.1002 7.21258C36.3321 8.22307 38.3177 9.7064 39.9197 11.5599C40.486 12.215 40.4139 13.2051 39.7588 13.7714C39.1037 14.3376 38.1136 14.2656 37.5474 13.6104C36.2424 12.1006 34.6249 10.8923 32.8069 10.0692Z" fill="#CCCCCC"/>
<path d="M2.86086 14.5712C1.66156 18.141 1.28984 21.9369 1.77381 25.6716C2.53421 31.42 5.22299 36.7402 9.40026 40.7618C13.5775 44.7834 18.996 47.2682 24.7691 47.8098C29.2419 48.2147 33.7419 47.4233 37.8083 45.5169C41.8746 43.6104 45.3611 40.6574 47.9108 36.9602C48.1548 36.6032 48.3184 36.1975 48.3904 35.7711C48.4624 35.3446 48.441 34.9077 48.3278 34.4903C48.2145 34.073 48.012 33.6852 47.7343 33.3537C47.4566 33.0222 47.1102 32.7549 46.7192 32.5702C34.4481 26.4869 17.6824 18.2086 7.00001 12.8988C6.62326 12.705 6.20915 12.5946 5.7859 12.5753C5.36265 12.556 4.94022 12.6282 4.54738 12.7869C4.15455 12.9456 3.80055 13.1872 3.5095 13.4951C3.21846 13.803 2.99722 14.17 2.86086 14.5712V14.5712Z" fill="#E52D1D"/>
<path fill-rule="evenodd" clip-rule="evenodd" d="M3.96002 11.3332C4.56182 11.0901 5.20895 10.9795 5.85733 11.0091C6.5017 11.0385 7.13226 11.2056 7.70657 11.4991C14.0054 14.63 22.4149 18.7908 30.7719 22.9257C36.5836 25.8012 42.37 28.6642 47.4035 31.1595C47.9936 31.4408 48.5163 31.8457 48.9361 32.3468C49.3595 32.8522 49.6682 33.4434 49.8409 34.0796C50.0136 34.7159 50.0462 35.382 49.9364 36.0321C49.8267 36.6821 49.5772 37.3006 49.2052 37.8449L49.2015 37.8503C46.4941 41.7763 42.7918 44.912 38.4738 46.9365C34.1558 48.9609 29.3774 49.8012 24.6278 49.3713L24.6227 49.3709C18.4961 48.7961 12.7459 46.1591 8.31285 41.8913C3.87984 37.6235 1.02644 31.9776 0.219475 25.8772L0.218935 25.8731C-0.295586 21.9026 0.0996067 17.8671 1.37461 14.0719L2.86087 14.5712L1.37641 14.0665C1.58531 13.452 1.92423 12.8898 2.37008 12.4181C2.81593 11.9464 3.35823 11.5764 3.96002 11.3332ZM4.34603 15.0736C3.22351 18.4165 2.87552 21.9709 3.32839 25.4681C4.04261 30.8638 6.56663 35.8574 10.4876 39.6323C14.4087 43.4072 19.4945 45.7398 24.9134 46.2486C29.1084 46.6278 33.3289 45.8853 37.1427 44.0973C40.9562 42.3094 44.2262 39.5402 46.6178 36.0733C46.733 35.9041 46.8104 35.712 46.8444 35.51C46.8787 35.3073 46.8685 35.0995 46.8146 34.901C46.7608 34.7026 46.6645 34.5181 46.5324 34.3605C46.4004 34.2029 46.2357 34.0758 46.0497 33.988L46.0362 33.9816L46.0228 33.9749C40.992 31.481 35.2033 28.6168 29.3877 25.7394C21.0234 21.6009 12.6034 17.4349 6.30213 14.3027L6.28269 14.2931L6.28276 14.293C6.10641 14.2022 5.91257 14.1506 5.71445 14.1416C5.51633 14.1325 5.3186 14.1663 5.13472 14.2406C4.95084 14.3149 4.78514 14.4279 4.64891 14.5721C4.51321 14.7156 4.40993 14.8867 4.34603 15.0736Z" fill="black"/>
<path fill-rule="evenodd" clip-rule="evenodd" d="M9.0099 25.2584C9.83822 25.0061 10.7143 25.473 10.9666 26.3013C11.9656 29.5807 13.9192 32.488 16.5781 34.652C19.237 36.8159 22.4804 38.1384 25.8944 38.4505L25.9332 38.4541L25.9718 38.4596C28.6239 38.8357 31.3284 38.4829 33.7953 37.4391C34.5927 37.1017 35.5127 37.4746 35.8502 38.2721C36.1876 39.0695 35.8147 39.9895 35.0172 40.3269C32.0382 41.5874 28.7734 42.0168 25.5702 41.5697C21.5497 41.1944 17.731 39.6333 14.5987 37.084C11.4564 34.5266 9.14757 31.0907 7.96696 27.2151C7.71463 26.3868 8.18157 25.5107 9.0099 25.2584Z" fill="#550E00"/>
<path fill-rule="evenodd" clip-rule="evenodd" d="M16.9019 25.3152C17.6988 24.9766 18.6194 25.3481 18.9581 26.145C19.7829 28.0858 21.2305 29.6967 23.0726 30.7233C24.9146 31.75 27.0462 32.1338 29.1306 31.8144C29.9865 31.6832 30.7867 32.2707 30.9179 33.1266C31.0491 33.9825 30.4616 34.7827 29.6057 34.9139C26.8325 35.3389 23.9967 34.8282 21.5461 33.4624C19.0954 32.0966 17.1694 29.9535 16.0721 27.3714C15.7335 26.5745 16.105 25.6539 16.9019 25.3152Z" fill="#550E00"/>
</svg>
