<svg xmlns="http://www.w3.org/2000/svg" viewBox="0 0 52.18 69.46"><defs><style>.cls-1,.cls-7{fill:#e5772e;}.cls-1,.cls-2,.cls-6{stroke:#000;stroke-width:2px;}.cls-1,.cls-2,.cls-4,.cls-6,.cls-8,.cls-9{stroke-miterlimit:10;}.cls-2,.cls-5{fill:#fff;}.cls-3{fill:#e94932;}.cls-4,.cls-6,.cls-8,.cls-9{fill:none;}.cls-4,.cls-8,.cls-9{stroke:#fff;}.cls-4{stroke-width:1.5px;}.cls-6,.cls-8,.cls-9{stroke-linecap:round;}.cls-9{stroke-width:2.4px;}.cls-10{fill:#719b57;}.cls-11{fill:#f0910c;}.cls-12{fill:#f0640c;}</style></defs><title>mango-tea</title><g id="Layer_2" data-name="Layer 2"><g id="Layer_1-2" data-name="Layer 1"><rect class="cls-1" x="14.7" y="-0.91" width="6.47" height="24.72" rx="3.23" transform="translate(-3.25 13.39) rotate(-37.8)"/><path class="cls-2" d="M6.46,14.07H40.59a1.67,1.67,0,0,1,1.67,1.67V52.36a16.1,16.1,0,0,1-16.1,16.1H20.38a16.1,16.1,0,0,1-16.1-16.1V16.25A2.18,2.18,0,0,1,6.46,14.07Z"/><path class="cls-3" d="M26.93,20.06c-4.4,0-5.58,2.45-13,2.45a16.18,16.18,0,0,1-5.19-1.19,1,1,0,0,0-1.36,1V51.71c0,6.89,5.69,13.47,12.72,13.47H26.7c7,0,12.72-6.58,12.72-13.47V25a1,1,0,0,0-.86-1C32,22.88,30.67,20.06,26.93,20.06Z"/><circle class="cls-4" cx="41.34" cy="6.39" r="2.5"/><circle class="cls-5" cx="47.83" cy="9.14" r="1.14"/><line class="cls-6" x1="9.62" y1="68.46" x2="43.58" y2="68.46"/><line class="cls-6" x1="1" y1="68.46" x2="5.89" y2="68.46"/><line class="cls-6" x1="46.84" y1="68.46" x2="51.18" y2="68.46"/><path class="cls-7" d="M24.46,47.25l-5.82,2.28a1.1,1.1,0,0,1-1.44-.68l-1.94-5.37A1.18,1.18,0,0,1,15.91,42l5.82-2.29a1.11,1.11,0,0,1,1.44.69l1.94,5.37A1.19,1.19,0,0,1,24.46,47.25Z"/><rect class="cls-7" x="26.3" y="44.7" width="6.9" height="6.9" rx="0.78"/><rect class="cls-7" x="18.12" y="50.79" width="5.47" height="5.47" rx="0.83" transform="translate(-31.74 30.42) rotate(-45)"/><rect class="cls-7" x="25.09" y="53.9" width="6.2" height="6.2" rx="0.83" transform="translate(-35.39 57.7) rotate(-64.31)"/><circle class="cls-8" cx="24.99" cy="27.34" r="1.52"/><circle class="cls-5" cx="19.57" cy="31.79" r="0.95"/><circle class="cls-5" cx="30.7" cy="29.24" r="0.95"/><circle class="cls-5" cx="29.65" cy="34.03" r="0.95"/><circle class="cls-5" cx="24.47" cy="34.79" r="0.95"/><path class="cls-9" d="M11,53.65c0,2.48,1.84,5,4.79,6.22"/><line class="cls-9" x1="10.6" y1="46.95" x2="10.6" y2="49.35"/><path class="cls-10" d="M37.44,68A9.87,9.87,0,0,1,29,63a8.37,8.37,0,0,1,1.19-9.44l.15-.16A10.83,10.83,0,0,0,33.38,49c.37-1.13.74-2.91,1-4.21l.08-.35a2.93,2.93,0,0,1,2.16-2.39,4.61,4.61,0,0,1,1.31-.18,8,8,0,0,1,2.31.39A13.33,13.33,0,0,1,46.5,63.64a12,12,0,0,1-9,4.32Z"/><path d="M37.94,42.37h0a7.36,7.36,0,0,1,2.16.37,12.83,12.83,0,0,1,6,20.58,11.49,11.49,0,0,1-8.57,4.14h-.11a9.33,9.33,0,0,1-8-4.68,7.84,7.84,0,0,1,1.11-8.85l.15-.16a11.21,11.21,0,0,0,3.17-4.61,42.37,42.37,0,0,0,1-4.27l.08-.35v-.11a2.49,2.49,0,0,1,1.81-1.9,3.87,3.87,0,0,1,1.16-.16m0-1a5.08,5.08,0,0,0-1.45.2A3.42,3.42,0,0,0,34,44.33c-.26,1.25-.67,3.3-1.07,4.51a10.7,10.7,0,0,1-3.1,4.39,8.79,8.79,0,0,0-1.27,10,10.3,10.3,0,0,0,8.89,5.21h.12A12.52,12.52,0,0,0,46.88,64a13.83,13.83,0,0,0-6.49-22.19,8.5,8.5,0,0,0-2.45-.41Z"/><path class="cls-11" d="M31.56,66A8.85,8.85,0,0,1,29,63a8.37,8.37,0,0,1,1.19-9.44l.15-.16A10.83,10.83,0,0,0,33.38,49a15.14,15.14,0,0,0,.42-2,14.14,14.14,0,0,1,.7-3c.34,0,.67-.05,1-.05,4.81,0,6.75,4.18,7.47,6.68a11.84,11.84,0,0,1-2.28,10.72A12.77,12.77,0,0,1,31.6,66Z"/><path d="M35.49,44.48c4.26,0,6.16,3.43,7,6.32A11.49,11.49,0,0,1,40.3,61.05a12.32,12.32,0,0,1-8.58,4.4,8.3,8.3,0,0,1-2.3-2.67,7.84,7.84,0,0,1,1.11-8.85l.15-.16a11.21,11.21,0,0,0,3.17-4.61,14.27,14.27,0,0,0,.44-2.07,18.25,18.25,0,0,1,.56-2.59l.64,0m0-1a10.22,10.22,0,0,0-1.32.09c-.69,1.19-.88,4.1-1.26,5.27a10.7,10.7,0,0,1-3.1,4.39,8.79,8.79,0,0,0-1.27,10,9.38,9.38,0,0,0,2.86,3.21h.22a13.35,13.35,0,0,0,9.44-4.75,12.35,12.35,0,0,0,2.38-11.18c-.88-3-3.06-7-7.95-7Z"/><path class="cls-8" d="M32.11,54.44a5.44,5.44,0,0,0-2.19,3.63A5.68,5.68,0,0,0,31,62.24"/><path class="cls-8" d="M33.23,53.29a2.52,2.52,0,0,0,1.39-2"/><path class="cls-8" d="M46.3,49.68a9.51,9.51,0,0,1,1.24,5.2"/><path class="cls-8" d="M47.45,56.62a4.66,4.66,0,0,1-.17,1.07"/><path class="cls-12" d="M43.44,50.52a12.14,12.14,0,0,0-2.2-4.34,1.16,1.16,0,0,0-.18,1.47A18.09,18.09,0,0,1,39.77,58c-1.56,3-4.77,5.28-7.93,6.61a1.09,1.09,0,0,0-.44,1.84h.22a13.35,13.35,0,0,0,9.44-4.75A12.35,12.35,0,0,0,43.44,50.52Z"/><path d="M35.49,44.48c4.26,0,6.16,3.43,7,6.32A11.49,11.49,0,0,1,40.3,61.05a12.32,12.32,0,0,1-8.58,4.4,8.3,8.3,0,0,1-2.3-2.67,7.84,7.84,0,0,1,1.11-8.85l.15-.16a11.21,11.21,0,0,0,3.17-4.61,14.27,14.27,0,0,0,.44-2.07,18.25,18.25,0,0,1,.56-2.59l.64,0m0-1a10.22,10.22,0,0,0-1.32.09c-.69,1.19-.88,4.1-1.26,5.27a10.7,10.7,0,0,1-3.1,4.39,8.79,8.79,0,0,0-1.27,10,9.38,9.38,0,0,0,2.86,3.21h.22a13.35,13.35,0,0,0,9.44-4.75,12.35,12.35,0,0,0,2.38-11.18c-.88-3-3.06-7-7.95-7Z"/></g></g></svg>