<svg width="283" height="222" viewBox="0 0 283 222" fill="none" xmlns="http://www.w3.org/2000/svg">
<path d="M51.5552 184.5C53.6341 195.21 59.1117 203.616 68.0591 209.595C94.9035 227.541 126.441 207.269 137.877 192.151C147.148 180.097 154.191 166.479 158.673 151.941C163.039 137.535 164.551 126.875 163.207 119.96C162.396 115.708 160.575 114.671 157.744 116.851C144.281 127.357 131.536 133.782 119.508 136.126C115.533 136.907 111.499 137.344 107.449 137.434C103.412 137.538 100.823 137.57 99.654 137.556C91.8362 137.722 86.1386 138.152 82.5612 138.848C77.4763 139.742 72.6284 141.67 68.3167 144.513C64.0051 147.356 60.3212 151.054 57.4928 155.379C54.5687 159.569 52.5332 164.315 51.512 169.324C50.4908 174.332 50.5055 179.497 51.5552 184.5V184.5Z" fill="black"/>
<path d="M61.0587 169.669C59.6943 170.591 59.3343 172.445 60.2546 173.811C61.1749 175.178 63.0269 175.538 64.3913 174.617C65.7557 173.695 66.1157 171.841 65.1954 170.474C64.2751 169.108 62.423 168.748 61.0587 169.669Z" fill="white"/>
<path d="M66.9074 163.96C66.9291 163.861 66.9563 163.764 66.989 163.669L67.114 163.306C67.205 163.059 67.3031 162.809 67.4194 162.555C67.6345 162.036 67.8766 161.529 68.1447 161.036C68.6871 160.031 69.3123 159.072 70.0138 158.17C71.439 156.341 73.1097 154.717 74.9786 153.345C75.945 152.667 76.9521 152.049 77.9942 151.494C78.5239 151.229 79.0276 150.909 79.582 150.679L81.231 149.987C81.7689 149.752 82.3228 149.555 82.8884 149.398L84.5828 148.865C85.7582 148.564 86.9366 148.303 88.1378 148.047L88.2985 148.011C88.66 147.857 88.9574 147.583 89.1404 147.235C89.3234 146.888 89.3808 146.487 89.3027 146.102C89.2246 145.716 89.0159 145.37 88.712 145.121C88.4081 144.872 88.0276 144.736 87.6349 144.736C86.3399 144.963 85.0349 145.144 83.7302 145.409L81.801 145.899C81.1495 146.045 80.5084 146.234 79.8821 146.466L77.9845 147.14C77.3535 147.361 76.7481 147.683 76.1279 147.952C74.897 148.522 73.7019 149.167 72.549 149.882C70.2326 151.374 68.1363 153.184 66.3214 155.259C65.4019 156.311 64.5701 157.437 63.8344 158.625C63.4714 159.231 63.109 159.835 62.798 160.487C62.6395 160.8 62.4781 161.125 62.3373 161.481C62.2625 161.645 62.1883 161.808 62.1201 161.998C62.0519 162.187 61.9856 162.346 61.9012 162.619L61.8198 162.88C61.6177 163.533 61.683 164.239 62.0011 164.844C62.3192 165.448 62.8642 165.902 63.5161 166.104C64.168 166.306 64.8735 166.241 65.4774 165.923C66.0812 165.604 66.5339 165.058 66.736 164.405C66.8265 164.272 66.8851 164.12 66.9074 163.96V163.96Z" fill="white"/>
<path d="M123.64 10.8002H125.602C125.893 10.8002 126.111 10.5673 126.111 10.2761L126.097 4.91831L128.496 7.93206C128.656 8.15045 128.932 8.28148 129.223 8.28148C129.484 8.28148 129.761 8.165 129.964 7.88838L132.305 4.91831V10.2761C132.305 10.5673 132.567 10.8002 132.858 10.8002H134.806C135.097 10.8002 135.315 10.5673 135.315 10.2761V1.11836C135.315 0.841739 135.082 0.608791 134.806 0.608791H132.843C132.669 0.608791 132.218 0.579674 131.956 0.827179L129.121 3.78269L126.417 0.81262C126.344 0.710706 126.082 0.608791 125.893 0.608791H123.64C123.349 0.608791 123.116 0.856298 123.116 1.11836V10.2761C123.116 10.5527 123.349 10.8002 123.64 10.8002Z" fill="#111111"/>
<path d="M144.958 11.0914C147.895 11.0914 150.295 8.70369 150.295 5.76274C150.295 2.82179 147.895 0.434082 144.958 0.434082C142.021 0.434082 139.637 2.82179 139.637 5.76274C139.637 8.70369 142.021 11.0914 144.958 11.0914ZM144.915 7.94662C143.621 7.94662 142.603 6.89836 142.603 5.63171C142.603 4.36506 143.621 3.33136 144.915 3.33136C146.151 3.33136 147.227 4.36506 147.227 5.63171C147.227 6.89836 146.151 7.94662 144.915 7.94662Z" fill="#111111"/>
<path d="M160.795 10.8148H162.568C163.005 10.8148 163.237 10.6109 163.237 10.2761C163.295 9.30062 162.946 7.36425 161.405 6.62173L161.391 6.60717C162.016 6.1704 162.699 5.61715 162.816 4.3505C162.816 3.98652 162.83 3.9574 162.816 3.68078C162.699 1.54058 161.362 0.579674 158.454 0.594233H155.153C154.732 0.594233 154.412 0.856298 154.412 1.14748V6.21408L154.397 10.1451C154.397 10.5673 154.761 10.8293 155.371 10.8148H156.723C157.741 10.8148 157.756 10.4217 157.756 9.9849V8.12133L157.77 8.10677C157.872 8.07765 157.945 8.07765 158.017 8.07765C158.09 8.07765 158.163 8.07765 158.265 8.09221C159.079 8.16501 159.937 8.47075 160.169 9.92667C160.213 10.2324 160.111 10.8148 160.795 10.8148ZM158.003 5.36964H157.305H157.261H157.16V2.76355H158.352C159.282 2.76355 159.791 3.18577 159.791 4.01564C159.791 5.36964 158.454 5.36964 158.003 5.36964Z" fill="#111111"/>
<path d="M170.828 3.17121H175.161C175.481 3.17121 175.786 2.86546 175.786 2.51604V1.2494C175.786 0.870857 175.481 0.608791 175.161 0.608791H168.255C167.935 0.608791 167.644 0.870857 167.644 1.2494V8.87841V10.1451C167.644 10.4945 167.935 10.8002 168.255 10.8002H175.161C175.481 10.8002 175.786 10.4945 175.786 10.1451V8.87841C175.786 8.48531 175.481 8.22324 175.161 8.22324H170.828V6.91292H174.958C175.263 6.91292 175.554 6.60717 175.554 6.27231V4.9911C175.554 4.61257 175.263 4.3505 174.958 4.3505H170.828V3.17121Z" fill="#111111"/>
<g filter="url(#filter0_d)">
<path d="M75.0107 18.6843L76.3839 26.611C76.5696 27.6559 76.3508 28.7324 75.772 29.6216C75.5352 30.0512 75.2069 30.4234 74.8105 30.7118C74.414 31.0002 73.9591 31.1978 73.4779 31.2906L47.7831 35.7538L49.0653 43.1558L73.526 38.9069C73.9869 38.8253 74.4595 38.839 74.9148 38.9473C75.3701 39.0555 75.7985 39.256 76.1735 39.5363C76.5962 39.8476 76.9512 40.2419 77.2168 40.6951C77.4823 41.1483 77.6528 41.651 77.7179 42.1724L79.0911 50.0991C79.2812 51.1378 79.0804 52.2103 78.5273 53.1095C78.3012 53.5387 77.9811 53.9111 77.591 54.1989C77.2008 54.4867 76.7507 54.6824 76.2744 54.7714L51.8137 59.0202L54.9124 76.9076C55.0966 77.9608 54.8613 79.0443 54.257 79.9258C54.0093 80.3562 53.6724 80.7285 53.2691 81.0177C52.8657 81.3069 52.4052 81.5063 51.9185 81.6025L40.3911 83.6048C39.8942 83.6893 39.3848 83.663 38.8992 83.5278C38.4136 83.3925 37.9637 83.1516 37.5818 82.8223C36.7378 82.1803 36.1696 81.2404 35.993 80.1939L26.7731 26.9726C26.6667 26.4726 26.6636 25.9561 26.7638 25.4548C26.864 24.9536 27.0655 24.4781 27.3559 24.0576C27.6404 23.6504 28.0051 23.3058 28.4276 23.0451C28.8502 22.7844 29.3215 22.613 29.8127 22.5416L70.7309 15.4341C71.2023 15.3551 71.6849 15.3734 72.149 15.488C72.6131 15.6025 73.0489 15.8109 73.4296 16.1003C73.8553 16.4002 74.2152 16.7841 74.4871 17.2285C74.759 17.6729 74.9372 18.1683 75.0107 18.6843Z" fill="#FF5500"/>
</g>
<g filter="url(#filter1_d)">
<path d="M84.9862 65.241L87.0838 33.9453C87.2096 32.147 88.2902 31.3192 90.3258 31.4618L102.088 32.2863C103.073 32.2956 104.029 32.6155 104.822 33.2005C105.123 33.4436 105.358 33.7583 105.507 34.116C105.655 34.4737 105.712 34.863 105.671 35.2482L103.982 64.5851C103.769 68.4858 104.616 71.6322 106.523 74.0244C108.431 76.4167 111.152 77.737 114.688 77.9853C121.632 78.4721 125.381 74.7594 125.934 66.8473L128.2 37.0086C128.238 36.6065 128.373 36.2196 128.593 35.8812C128.814 35.5427 129.112 35.2627 129.464 35.0652C130.265 34.5447 131.218 34.3086 132.169 34.3948L144.111 35.2319C145.06 35.2396 145.977 35.5752 146.707 36.1819C146.998 36.4545 147.216 36.7969 147.339 37.1769C147.463 37.557 147.487 37.9621 147.411 38.3543L146.481 51.6615C145.903 59.9333 145.557 65.0894 145.445 67.1298C145.333 69.1702 145.272 70.2497 145.264 70.3683C145.019 75.092 143.852 79.7218 141.83 83.9966C139.664 88.3854 136.158 91.9691 131.821 94.228C127.157 96.8224 121.055 97.8553 113.512 97.3266C106.628 96.8441 100.995 95.0335 96.6121 91.8951C92.4125 88.9859 89.1536 84.9109 87.2364 80.1715C85.3582 75.4319 84.5884 70.3246 84.9862 65.241V65.241Z" fill="#FF5500"/>
</g>
<g filter="url(#filter2_d)">
<path d="M209.814 84.3675C209.438 84.2203 206.597 81.8176 201.291 77.1594C195.984 72.5012 188.214 65.6182 177.982 56.5104C177.003 55.6924 176.394 55.2942 176.155 55.3158C176.042 55.3229 175.936 55.373 175.86 55.4558C175.783 55.5386 175.741 55.6477 175.742 55.7607C175.708 56.1979 175.717 56.6373 175.769 57.0727L178.185 83.9546C178.231 84.4216 178.183 84.8929 178.044 85.3412C177.906 85.7894 177.68 86.2056 177.379 86.5656C177.084 86.945 176.712 87.2577 176.288 87.4834C175.864 87.7091 175.397 87.8426 174.917 87.8752L162.975 88.9515C162.409 89.0009 161.839 88.9256 161.306 88.731C160.772 88.5364 160.288 88.2271 159.887 87.8249C158.982 87.0071 158.426 85.8726 158.334 84.6559L153.574 31.6968C153.449 30.4006 153.817 29.105 154.605 28.0691C154.941 27.5631 155.385 27.1381 155.905 26.8247C156.424 26.5114 157.007 26.3175 157.611 26.2572L168.745 25.2537C169.555 25.1429 170.379 25.2077 171.161 25.4437C172.038 25.8529 172.837 26.4093 173.526 27.0888L188.26 39.9489C195.071 45.8899 200.403 50.4995 204.258 53.7779C204.57 53.9729 204.921 54.0961 205.286 54.1386C205.646 54.1062 205.782 53.6104 205.696 52.6511L203.288 25.8573C203.246 25.3799 203.299 24.8989 203.444 24.4423C203.59 23.9857 203.825 23.5627 204.135 23.1978C204.407 22.8238 204.754 22.5111 205.154 22.2799C205.554 22.0486 205.998 21.9039 206.457 21.8551L217.862 20.8273C218.498 20.7637 219.141 20.8313 219.75 21.0259C220.359 21.2205 220.921 21.538 221.403 21.9587C221.895 22.3448 222.303 22.8277 222.602 23.3776C222.9 23.9274 223.083 24.5327 223.139 25.156L227.948 78.6538C227.997 79.2592 227.925 79.8684 227.736 80.4455C227.547 81.0227 227.245 81.5561 226.847 82.0146C226.485 82.4998 226.026 82.9039 225.5 83.2012C224.973 83.4984 224.39 83.6822 223.789 83.7408L213.641 84.6553C212.848 84.7494 212.048 84.776 211.25 84.7347C210.757 84.6767 210.274 84.5532 209.814 84.3675V84.3675Z" fill="#FF5500"/>
</g>
<g filter="url(#filter3_d)">
<path d="M258.88 60.0205C258.764 61.2337 258.18 62.3537 257.251 63.1417C256.821 63.4489 256.331 63.6621 255.813 63.7676C255.295 63.8732 254.761 63.8687 254.245 63.7544L242.717 61.7521C242.206 61.6515 241.725 61.4301 241.316 61.1063C240.908 60.7825 240.582 60.3656 240.366 59.8903C239.808 58.8958 239.608 57.7394 239.8 56.6149L248.124 9.15109C248.18 8.60645 248.348 8.07934 248.617 7.60309C248.887 7.12683 249.253 6.7118 249.691 6.38421C250.1 6.1097 250.56 5.91932 251.043 5.82414C251.526 5.72896 252.024 5.73087 252.506 5.82976L264.034 7.83209C264.551 7.89608 265.05 8.06172 265.503 8.3195C265.956 8.57727 266.354 8.92211 266.674 9.33422C266.976 9.79042 267.181 10.3045 267.275 10.8439C267.368 11.3833 267.349 11.9363 267.219 12.468L258.88 60.0205ZM247.452 67.3847C249.896 67.7526 252.105 69.0463 253.624 70.9986C254.365 71.9018 254.899 72.9568 255.188 74.0892C255.478 75.2215 255.515 76.4037 255.299 77.5522C255.109 78.7178 254.672 79.8292 254.017 80.8114C253.362 81.7936 252.505 82.6238 251.502 83.2461C249.432 84.6254 246.901 85.1317 244.46 84.6553C242.069 84.2466 239.927 82.9319 238.479 80.9839C237.72 80.069 237.171 78.999 236.869 77.8489C236.567 76.6987 236.52 75.4964 236.732 74.3263C236.922 73.1811 237.358 72.0909 238.009 71.1306C238.661 70.1703 239.512 69.3629 240.505 68.7639C242.554 67.4176 245.045 66.9226 247.452 67.3839L247.452 67.3847Z" fill="#FF5500"/>
</g>
<path d="M270.953 145.283C270.512 147.83 269.553 150.258 268.133 152.417C266.714 154.576 264.866 156.419 262.704 157.83C249.284 166.803 233.516 156.671 227.798 149.114C223.162 143.089 219.64 136.282 217.399 129.014C215.215 121.812 214.458 116.483 215.13 113.026C215.535 110.9 216.445 110.382 217.861 111.471C224.593 116.723 230.965 119.934 236.978 121.104C238.964 121.495 240.981 121.715 243.005 121.76C245.023 121.812 246.317 121.827 246.901 121.821C249.762 121.817 252.619 122.032 255.447 122.465C257.989 122.911 260.412 123.874 262.568 125.294C264.724 126.714 266.566 128.561 267.981 130.722C269.444 132.817 270.462 135.19 270.973 137.695C271.484 140.199 271.477 142.782 270.953 145.283V145.283Z" fill="black"/>
<path d="M264.535 140.344C265.217 140.805 266.143 140.625 266.603 139.941C267.063 139.258 266.883 138.331 266.201 137.87C265.518 137.409 264.592 137.59 264.132 138.273C263.672 138.956 263.852 139.883 264.535 140.344Z" fill="white"/>
<path d="M263.276 135.015C263.265 134.966 263.252 134.918 263.236 134.87L263.173 134.688C263.127 134.565 263.079 134.439 263.02 134.313C262.912 134.053 262.79 133.799 262.656 133.553C262.384 133.05 262.072 132.571 261.721 132.12C261.008 131.205 260.173 130.394 259.238 129.708C258.755 129.369 258.252 129.06 257.731 128.783C257.466 128.65 257.214 128.49 256.935 128.374L256.11 128.028C255.841 127.911 255.563 127.813 255.28 127.735L254.434 127.467C253.847 127.317 253.259 127.187 252.656 127.058L252.576 127.04C252.396 126.962 252.25 126.825 252.16 126.651C252.07 126.477 252.042 126.278 252.082 126.086C252.121 125.895 252.225 125.723 252.376 125.599C252.528 125.475 252.717 125.407 252.912 125.406C253.56 125.52 254.211 125.613 254.865 125.742L255.829 125.988C256.154 126.061 256.474 126.155 256.787 126.27L257.736 126.607C258.051 126.718 258.353 126.879 258.664 127.012C259.28 127.297 259.878 127.619 260.454 127.976C261.613 128.721 262.66 129.626 263.568 130.663C264.028 131.189 264.444 131.752 264.812 132.346C264.996 132.65 265.175 132.951 265.328 133.279C265.407 133.435 265.488 133.598 265.559 133.775C265.596 133.857 265.634 133.938 265.667 134.033C265.701 134.128 265.735 134.208 265.777 134.343L265.818 134.473C265.919 134.799 265.887 135.152 265.728 135.454C265.569 135.756 265.297 135.983 264.972 136.084C264.646 136.185 264.294 136.153 263.992 135.994C263.691 135.835 263.464 135.563 263.363 135.237C263.318 135.171 263.288 135.095 263.276 135.015V135.015Z" fill="white"/>
<path d="M12.9812 94.7041C11.727 94.6645 10.4945 94.3664 9.36041 93.8287C8.22636 93.2909 7.21515 92.5249 6.38986 91.5784C1.16565 85.7168 4.96814 77.4289 8.21345 74.1607C10.7962 71.5174 13.8303 69.3581 17.1725 67.7848C20.4868 66.2436 22.9962 65.5183 24.7007 65.609C25.7501 65.6597 26.0608 66.0633 25.6329 66.8196C23.568 70.4196 22.458 73.7087 22.3029 76.6868C22.2494 77.6708 22.2803 78.6576 22.3954 79.6363C22.5069 80.613 22.5874 81.238 22.6304 81.519C22.8279 82.8973 22.9197 84.2887 22.9047 85.681C22.8625 86.9368 22.5636 88.1705 22.0265 89.3061C21.4895 90.4417 20.7256 91.455 19.7822 92.2834C18.874 93.1309 17.8019 93.783 16.6322 94.1994C15.4624 94.6157 14.2198 94.7875 12.9812 94.7041V94.7041Z" fill="black"/>
<path d="M6.96633 81.1912C6.84422 81.4684 6.74471 81.7551 6.66878 82.0484C6.59212 82.3493 6.53552 82.655 6.49935 82.9635C6.42184 83.5795 6.42824 84.2031 6.51839 84.8173C6.53827 84.9692 6.56635 85.1198 6.60251 85.2687C6.62888 85.4201 6.66542 85.5696 6.71187 85.7161L6.85472 86.152L7.02674 86.5796C7.14418 86.8621 7.27776 87.1376 7.42683 87.4047C7.577 87.6741 7.75587 87.9251 7.91749 88.1839L7.9535 88.2428C8.02926 88.3823 8.04893 88.5454 8.00848 88.6989C7.96802 88.8524 7.87051 88.9845 7.7359 89.0683C7.6013 89.1522 7.43978 89.1813 7.28443 89.1498C7.12908 89.1182 6.99165 89.0284 6.90027 88.8987L6.87644 88.8646C6.71212 88.5541 6.53241 88.2568 6.38748 87.9341C6.23954 87.6181 6.10885 87.2942 5.99601 86.9639C5.943 86.7977 5.88677 86.6344 5.83661 86.4642L5.7222 85.9477C5.68161 85.7774 5.65256 85.6045 5.63524 85.4302C5.60629 85.2579 5.58641 85.0842 5.57571 84.9099C5.52254 84.2152 5.563 83.5164 5.69598 82.8325C5.76085 82.4922 5.84742 82.1563 5.95516 81.8271C6.06741 81.4915 6.20851 81.1662 6.3769 80.855C6.42075 80.7814 6.49064 80.7269 6.57271 80.7024C6.65478 80.6779 6.74305 80.6851 6.82005 80.7227C6.89704 80.7602 6.95714 80.8254 6.98844 80.9052C7.01974 80.985 7.01997 81.0737 6.98906 81.1537L6.96633 81.1912Z" fill="white"/>
<path d="M9.26881 90.5922C9.44408 90.232 9.29453 89.7977 8.93478 89.6222C8.57503 89.4467 8.14131 89.5964 7.96604 89.9566C7.79077 90.3169 7.94032 90.7512 8.30006 90.9267C8.65981 91.1022 9.09353 90.9524 9.26881 90.5922Z" fill="white"/>
<defs>
<filter id="filter0_d" x="26.6909" y="15.3859" width="53.4701" height="72.2674" filterUnits="userSpaceOnUse" color-interpolation-filters="sRGB">
<feFlood flood-opacity="0" result="BackgroundImageFix"/>
<feColorMatrix in="SourceAlpha" type="matrix" values="0 0 0 0 0 0 0 0 0 0 0 0 0 0 0 0 0 0 127 0"/>
<feOffset dx="1" dy="4"/>
<feColorMatrix type="matrix" values="0 0 0 0 0 0 0 0 0 0 0 0 0 0 0 0 0 0 0.25 0"/>
<feBlend mode="normal" in2="BackgroundImageFix" result="effect1_dropShadow"/>
<feBlend mode="normal" in="SourceGraphic" in2="effect1_dropShadow" result="shape"/>
</filter>
<filter id="filter1_d" x="84.8843" y="31.4462" width="63.5702" height="70.0147" filterUnits="userSpaceOnUse" color-interpolation-filters="sRGB">
<feFlood flood-opacity="0" result="BackgroundImageFix"/>
<feColorMatrix in="SourceAlpha" type="matrix" values="0 0 0 0 0 0 0 0 0 0 0 0 0 0 0 0 0 0 127 0"/>
<feOffset dx="1" dy="4"/>
<feColorMatrix type="matrix" values="0 0 0 0 0 0 0 0 0 0 0 0 0 0 0 0 0 0 0.25 0"/>
<feBlend mode="normal" in2="BackgroundImageFix" result="effect1_dropShadow"/>
<feBlend mode="normal" in="SourceGraphic" in2="effect1_dropShadow" result="shape"/>
</filter>
<filter id="filter2_d" x="153.55" y="20.8041" width="75.4127" height="72.1621" filterUnits="userSpaceOnUse" color-interpolation-filters="sRGB">
<feFlood flood-opacity="0" result="BackgroundImageFix"/>
<feColorMatrix in="SourceAlpha" type="matrix" values="0 0 0 0 0 0 0 0 0 0 0 0 0 0 0 0 0 0 127 0"/>
<feOffset dx="1" dy="4"/>
<feColorMatrix type="matrix" values="0 0 0 0 0 0 0 0 0 0 0 0 0 0 0 0 0 0 0.25 0"/>
<feBlend mode="normal" in2="BackgroundImageFix" result="effect1_dropShadow"/>
<feBlend mode="normal" in="SourceGraphic" in2="effect1_dropShadow" result="shape"/>
</filter>
<filter id="filter3_d" x="236.602" y="5.75415" width="31.7315" height="83.076" filterUnits="userSpaceOnUse" color-interpolation-filters="sRGB">
<feFlood flood-opacity="0" result="BackgroundImageFix"/>
<feColorMatrix in="SourceAlpha" type="matrix" values="0 0 0 0 0 0 0 0 0 0 0 0 0 0 0 0 0 0 127 0"/>
<feOffset dx="1" dy="4"/>
<feColorMatrix type="matrix" values="0 0 0 0 0 0 0 0 0 0 0 0 0 0 0 0 0 0 0.25 0"/>
<feBlend mode="normal" in2="BackgroundImageFix" result="effect1_dropShadow"/>
<feBlend mode="normal" in="SourceGraphic" in2="effect1_dropShadow" result="shape"/>
</filter>
</defs>
</svg>
