<svg width="44" height="54" viewBox="0 0 44 54" fill="none" xmlns="http://www.w3.org/2000/svg">
<g clip-path="url(#clip0)">
<path d="M31.67 19.92L12.55 22.2L14.3 48.67C14.3358 49.372 14.5138 50.0593 14.8232 50.6905C15.1326 51.3216 15.567 51.8832 16.1 52.3414C16.633 52.7996 17.2535 53.1448 17.9239 53.356C18.5943 53.5672 19.3006 53.64 20 53.57L31.83 52.15C32.5264 52.0553 33.1962 51.8195 33.7985 51.4572C34.4007 51.0948 34.9228 50.6135 35.3327 50.0426C35.7427 49.4717 36.0319 48.8232 36.1827 48.1367C36.3336 47.4502 36.3428 46.7402 36.21 46.05L31.67 19.92Z" fill="white"/>
<path d="M15.6 24.74L17.17 48.48C17.1857 48.8106 17.2673 49.1348 17.4098 49.4336C17.5523 49.7323 17.7529 49.9997 18 50.22C18.2213 50.4062 18.4781 50.5457 18.7548 50.6299C19.0315 50.7141 19.3225 50.7414 19.61 50.71L31.45 49.29C31.7367 49.2541 32.0131 49.1602 32.2624 49.0141C32.5117 48.8679 32.7286 48.6726 32.9 48.44C33.0975 48.1713 33.2376 47.8649 33.3116 47.5397C33.3856 47.2146 33.3918 46.8777 33.33 46.55L29.3 23.1L15.6 24.74ZM12.6 22.2L31.72 19.92L36.26 46.05C36.3928 46.7402 36.3836 47.4502 36.2327 48.1367C36.0819 48.8232 35.7927 49.4717 35.3827 50.0426C34.9728 50.6135 34.4508 51.0948 33.8485 51.4572C33.2463 51.8195 32.5764 52.0553 31.88 52.15L20 53.57C19.3006 53.64 18.5943 53.5672 17.9239 53.356C17.2535 53.1448 16.633 52.7996 16.1 52.3414C15.567 51.8832 15.1326 51.3216 14.8232 50.6905C14.5138 50.0593 14.3358 49.372 14.3 48.67L12.55 22.2H12.6Z" fill="black"/>
<path d="M33.5 30.41C27.0281 32.7775 20.241 34.1726 13.36 34.55L12.55 22.2L31.67 19.92L33.5 30.41Z" fill="#E6E6E6"/>
<path d="M15.6 24.74L17.17 48.48C17.1857 48.8106 17.2673 49.1348 17.4098 49.4336C17.5523 49.7323 17.7529 49.9997 18 50.22C18.2213 50.4062 18.4781 50.5457 18.7548 50.6299C19.0315 50.7141 19.3225 50.7414 19.61 50.71L31.45 49.29C31.7367 49.2541 32.0131 49.1602 32.2624 49.0141C32.5117 48.8679 32.7286 48.6726 32.9 48.44C33.0975 48.1713 33.2376 47.8649 33.3116 47.5397C33.3856 47.2146 33.3918 46.8777 33.33 46.55L29.3 23.1L15.6 24.74ZM12.6 22.2L31.72 19.92L36.26 46.05C36.3928 46.7402 36.3836 47.4502 36.2327 48.1367C36.0819 48.8232 35.7927 49.4717 35.3827 50.0426C34.9728 50.6135 34.4508 51.0948 33.8485 51.4572C33.2463 51.8195 32.5764 52.0553 31.88 52.15L20 53.57C19.3006 53.64 18.5943 53.5672 17.9239 53.356C17.2535 53.1448 16.633 52.7996 16.1 52.3414C15.567 51.8832 15.1326 51.3216 14.8232 50.6905C14.5138 50.0593 14.3358 49.372 14.3 48.67L12.55 22.2H12.6Z" fill="black"/>
<path d="M6.64 26.4C5.71366 26.5104 4.77434 26.4011 3.89811 26.0809C3.02189 25.7607 2.2334 25.2386 1.59652 24.5569C0.959644 23.8753 0.492277 23.0532 0.23228 22.1572C-0.0277171 21.2613 -0.0730336 20.3167 0.100001 19.4C1.89 9.37 9.52 1.35 19.51 0.15C29.5 -1.05 38.8 5 42.91 14.31C43.2763 15.1604 43.4408 16.0841 43.3907 17.0087C43.3405 17.9333 43.077 18.8337 42.6209 19.6395C42.1647 20.4453 41.5282 21.1346 40.7613 21.6534C39.9943 22.1722 39.1177 22.5065 38.2 22.63L6.64 26.4Z" fill="#F6B531"/>
<path d="M19.85 3C11.35 4 4.55 10.82 2.93 19.92C2.84432 20.3974 2.8711 20.8882 3.00824 21.3534C3.14537 21.8186 3.38908 22.2454 3.72 22.6C4.04412 22.9475 4.44613 23.213 4.89294 23.3747C5.33976 23.5364 5.81858 23.5896 6.29 23.53L37.86 19.76C38.337 19.7023 38.7937 19.5331 39.1931 19.266C39.5925 18.999 39.9235 18.6417 40.1591 18.2229C40.3948 17.8042 40.5285 17.3359 40.5495 16.8559C40.5705 16.3759 40.4782 15.8977 40.28 15.46C36.56 7 28.35 2 19.85 3ZM19.51 0.149999C29.49 -1 38.8 5 42.91 14.31C43.2763 15.1604 43.4408 16.0841 43.3907 17.0087C43.3405 17.9333 43.077 18.8337 42.6209 19.6395C42.1647 20.4453 41.5282 21.1346 40.7613 21.6534C39.9943 22.1722 39.1177 22.5065 38.2 22.63L6.64 26.4C5.71366 26.5104 4.77434 26.4011 3.89811 26.0809C3.02189 25.7607 2.2334 25.2386 1.59652 24.5569C0.959644 23.8753 0.492277 23.0532 0.23228 22.1572C-0.0277171 21.2613 -0.0730336 20.3167 0.100001 19.4C1.89 9.37 9.52 1.35 19.51 0.149999Z" fill="black"/>
<path d="M32.32 9.73C31.2752 8.44456 29.9873 7.37757 28.53 6.59C27.0756 5.81339 25.5054 5.27649 23.88 5C22.1982 4.72125 20.4761 4.8065 18.83 5.25C17.219 5.67129 15.6743 6.31409 14.24 7.16C13.9443 7.33239 13.7292 7.61519 13.642 7.94619C13.5548 8.2772 13.6026 8.62928 13.775 8.925C13.9474 9.22072 14.2302 9.43584 14.5612 9.52304C14.8922 9.61025 15.2443 9.56239 15.54 9.39H15.61C17.9225 7.70066 20.7513 6.86971 23.61 7.04C26.5133 7.3309 29.2182 8.64612 31.24 10.75C31.3697 10.8787 31.5429 10.9541 31.7254 10.9613C31.908 10.9685 32.0866 10.907 32.226 10.789C32.3654 10.6709 32.4555 10.5049 32.4785 10.3236C32.5014 10.1424 32.4556 9.95909 32.35 9.81L32.32 9.73Z" fill="white"/>
<path d="M11 9.71C10.5003 10.1111 10.0769 10.5989 9.75 11.15C9.4369 11.6443 9.18505 12.1749 9 12.73C8.94747 12.8646 8.92197 13.0082 8.92495 13.1527C8.92793 13.2972 8.95934 13.4396 9.01737 13.5719C9.13458 13.8392 9.35315 14.0489 9.625 14.155C9.89685 14.2611 10.1997 14.2548 10.4669 14.1376C10.7342 14.0204 10.9439 13.8018 11.05 13.53C11.2213 13.1738 11.4327 12.8383 11.68 12.53C11.8876 12.2578 12.1415 12.0243 12.43 11.84C12.5887 11.764 12.7301 11.6562 12.8456 11.5235C12.9611 11.3908 13.0483 11.2358 13.1016 11.0681C13.155 10.9005 13.1736 10.7236 13.1561 10.5486C13.1386 10.3735 13.0855 10.2038 13 10.05C12.8315 9.75178 12.553 9.5314 12.224 9.43608C11.895 9.34075 11.5418 9.37805 11.24 9.54L11 9.66V9.71Z" fill="white"/>
</g>
<defs>
<clipPath id="clip0">
<rect width="43.43" height="53.6" fill="white"/>
</clipPath>
</defs>
</svg>
