<svg width="32" height="48" viewBox="0 0 32 48" fill="none" xmlns="http://www.w3.org/2000/svg">
<g clip-path="url(#clip0)">
<path d="M27.02 8.59998H5.12C3.15939 8.59998 1.57 10.1894 1.57 12.15V42.95C1.57 44.9106 3.15939 46.5 5.12 46.5H27.02C28.9806 46.5 30.57 44.9106 30.57 42.95V12.15C30.57 10.1894 28.9806 8.59998 27.02 8.59998Z" fill="#A93035"/>
<path d="M26.7 1.25H4.8C2.83939 1.25 1.25 2.83939 1.25 4.8C1.25 6.76061 2.83939 8.35 4.8 8.35H26.7C28.6606 8.35 30.25 6.76061 30.25 4.8C30.25 2.83939 28.6606 1.25 26.7 1.25Z" fill="#CCCCCC"/>
<path d="M26.7 9.6H4.8C3.52696 9.6 2.30606 9.09429 1.40589 8.19411C0.505713 7.29394 0 6.07304 0 4.8C0 3.52696 0.505713 2.30606 1.40589 1.40589C2.30606 0.505713 3.52696 0 4.8 0L26.7 0C27.973 0 29.1939 0.505713 30.0941 1.40589C30.9943 2.30606 31.5 3.52696 31.5 4.8C31.5 6.07304 30.9943 7.29394 30.0941 8.19411C29.1939 9.09429 27.973 9.6 26.7 9.6ZM4.8 2.5C4.19 2.5 3.60499 2.74232 3.17365 3.17365C2.74232 3.60499 2.5 4.19 2.5 4.8C2.5 5.41 2.74232 5.99501 3.17365 6.42635C3.60499 6.85768 4.19 7.1 4.8 7.1H26.7C27.002 7.1 27.3011 7.04051 27.5802 6.92492C27.8592 6.80934 28.1128 6.63992 28.3263 6.42635C28.5399 6.21277 28.7093 5.95922 28.8249 5.68017C28.9405 5.40112 29 5.10204 29 4.8C29 4.49796 28.9405 4.19888 28.8249 3.91983C28.7093 3.64078 28.5399 3.38723 28.3263 3.17365C28.1128 2.96008 27.8592 2.79066 27.5802 2.67508C27.3011 2.55949 27.002 2.5 26.7 2.5H4.8Z" fill="black"/>
<path d="M7.73 32C7.39848 32 7.08054 31.8683 6.84612 31.6339C6.6117 31.3994 6.48 31.0815 6.48 30.75V25.35C6.48 25.0185 6.6117 24.7005 6.84612 24.4661C7.08054 24.2317 7.39848 24.1 7.73 24.1C8.06152 24.1 8.37946 24.2317 8.61388 24.4661C8.8483 24.7005 8.98 25.0185 8.98 25.35V30.75C8.98 31.0815 8.8483 31.3994 8.61388 31.6339C8.37946 31.8683 8.06152 32 7.73 32Z" fill="white"/>
<path d="M7.73 22.85C7.39848 22.85 7.08054 22.7183 6.84612 22.4839C6.6117 22.2494 6.48 21.9315 6.48 21.6V20.47C6.48 20.1385 6.6117 19.8205 6.84612 19.5861C7.08054 19.3517 7.39848 19.22 7.73 19.22C8.06152 19.22 8.37946 19.3517 8.61388 19.5861C8.8483 19.8205 8.98 20.1385 8.98 20.47V21.6C8.98 21.9315 8.8483 22.2494 8.61388 22.4839C8.37946 22.7183 8.06152 22.85 7.73 22.85Z" fill="white"/>
<path d="M17.07 29.42C17.5891 29.42 18.01 28.9991 18.01 28.48C18.01 27.9608 17.5891 27.54 17.07 27.54C16.5509 27.54 16.13 27.9608 16.13 28.48C16.13 28.9991 16.5509 29.42 17.07 29.42Z" fill="white"/>
<path d="M22.52 30.44C23.0612 30.44 23.5 30.0012 23.5 29.46C23.5 28.9187 23.0612 28.48 22.52 28.48C21.9788 28.48 21.54 28.9187 21.54 29.46C21.54 30.0012 21.9788 30.44 22.52 30.44Z" fill="white"/>
<path d="M19.95 24.33C20.5409 24.33 21.02 23.8509 21.02 23.26C21.02 22.6691 20.5409 22.19 19.95 22.19C19.3591 22.19 18.88 22.6691 18.88 23.26C18.88 23.8509 19.3591 24.33 19.95 24.33Z" fill="white"/>
<path d="M23.78 18.13C24.3212 18.13 24.76 17.6912 24.76 17.15C24.76 16.6087 24.3212 16.17 23.78 16.17C23.2388 16.17 22.8 16.6087 22.8 17.15C22.8 17.6912 23.2388 18.13 23.78 18.13Z" fill="white"/>
<path d="M17.87 18.87C18.345 18.87 18.73 18.485 18.73 18.01C18.73 17.5351 18.345 17.15 17.87 17.15C17.395 17.15 17.01 17.5351 17.01 18.01C17.01 18.485 17.395 18.87 17.87 18.87Z" fill="white"/>
<path d="M19.43 37.57C19.8166 37.57 20.13 37.2566 20.13 36.87C20.13 36.4834 19.8166 36.17 19.43 36.17C19.0434 36.17 18.73 36.4834 18.73 36.87C18.73 37.2566 19.0434 37.57 19.43 37.57Z" fill="white"/>
<path d="M1.57 36V43C1.57 43.467 1.66215 43.9295 1.84118 44.3608C2.02021 44.7922 2.2826 45.184 2.6133 45.5138C2.94401 45.8435 3.33654 46.1048 3.7684 46.2826C4.20026 46.4605 4.66297 46.5513 5.13 46.55H27C27.9415 46.55 28.8445 46.176 29.5102 45.5102C30.176 44.8445 30.55 43.9415 30.55 43V31.49C21.3693 35.2163 11.4489 36.7602 1.57 36Z" fill="#8D2822"/>
<path d="M27 47.74H5.13C3.85604 47.74 2.63411 47.2346 1.73235 46.3347C0.830584 45.4348 0.322648 44.2139 0.32 42.94V12.15C0.322648 10.876 0.830584 9.65514 1.73235 8.75525C2.63411 7.85537 3.85604 7.34997 5.13 7.34998H27C28.273 7.34998 29.4939 7.85569 30.3941 8.75586C31.2943 9.65604 31.8 10.8769 31.8 12.15V42.94C31.8 44.213 31.2943 45.4339 30.3941 46.3341C29.4939 47.2343 28.273 47.74 27 47.74ZM5.13 9.84998C4.51908 9.84997 3.93303 10.092 3.50011 10.523C3.06719 10.9541 2.82264 11.5391 2.82 12.15V42.94C2.82264 43.5509 3.06719 44.1359 3.50011 44.5669C3.93303 44.998 4.51908 45.24 5.13 45.24H27C27.61 45.24 28.195 44.9977 28.6263 44.5663C29.0577 44.135 29.3 43.55 29.3 42.94V12.15C29.3 11.8479 29.2405 11.5489 29.1249 11.2698C29.0093 10.9908 28.8399 10.7372 28.6263 10.5236C28.4128 10.3101 28.1592 10.1406 27.8802 10.0251C27.6011 9.90947 27.302 9.84998 27 9.84998H5.13Z" fill="black"/>
</g>
<defs>
<clipPath id="clip0">
<rect width="31.82" height="47.74" fill="white"/>
</clipPath>
</defs>
</svg>
