<svg xmlns="http://www.w3.org/2000/svg" width="593.6" height="440.213" viewBox="0 0 593.6 440.213"><defs><style>.a{fill:#1d4d20;}.b{fill:#fff;}</style></defs><g transform="translate(-238 -199.787)"><path class="a" d="M797.866,253.7H312.207L457.339,2.326,480.029,41.32l14.753.869L512.9,55.752,535.956,15.8h44.46l11.618,22.4L613.2,1.59,649.14,29.276,668.569.781l10.652,34.324,19.29-33.412,48.751,13.614L755.4,0h30.014l25.132,43.285L834.2,2.326l25.9,38.9,45.371,26.259L797.866,253.7h0Z" transform="translate(-74.207 386.3)"/><g transform="matrix(0.951, 0.309, -0.309, 0.951, 442.577, 280.285)"><path class="a" d="M2.6,45.424a29.614,29.614,0,0,1-.262-23.648c9.643-23.541,39.17-24.212,53.3-19.387A100.4,100.4,0,0,1,86.916,19.461q13.79,11.213,17.038,18.87,2.013,4.7-2.2,4.436-20.132-1.382-33.466,4.275A55.772,55.772,0,0,0,59.832,51.5c-2.684,1.711-4.389,2.832-5.147,3.355a88.2,88.2,0,0,1-11.737,6.69,29.768,29.768,0,0,1-23.655.262A29.446,29.446,0,0,1,2.6,45.424Z" transform="translate(21.459 -16.171)"/><path class="b" d="M38.6,11.915a18.186,18.186,0,0,0-2.919.349,22.7,22.7,0,0,0-2.906.805A22.2,22.2,0,0,0,27.4,15.754a13.73,13.73,0,0,0-1.194.886,11.08,11.08,0,0,0-1.148.953L24,18.626l-1,1.107a25.809,25.809,0,0,0-1.839,2.335c-.57.819-1.054,1.7-1.584,2.537l-.121.188a2.013,2.013,0,0,1-3.4-2.141l.074-.107c.671-.919,1.282-1.866,2.013-2.745a31.205,31.205,0,0,1,2.268-2.516c.409-.389.805-.792,1.228-1.174l1.342-1.067a12.589,12.589,0,0,1,1.382-.986,16.106,16.106,0,0,1,1.429-.913,25.151,25.151,0,0,1,6.221-2.6,26.279,26.279,0,0,1,3.295-.671,19.817,19.817,0,0,1,3.429-.148,1.107,1.107,0,0,1,0,2.208Z" transform="translate(16.254 -19.362)"/><circle class="b" cx="2.349" cy="2.349" r="2.349" transform="translate(28.405 7.9)"/></g><g transform="translate(752.537 304.741) rotate(151)"><path class="a" d="M4.858,35.006c-6.278,14.791-6.5,29.57-.49,44.248,18.043,44.047,73.29,45.3,99.721,36.275a187.866,187.866,0,0,0,58.537-31.943q25.8-20.981,31.88-35.308,3.767-8.789-4.118-8.3-37.669,2.587-62.618-8a104.355,104.355,0,0,1-15.821-8.35c-5.023-3.2-8.212-5.3-9.631-6.278Q87.78,7.985,80.359,4.834A55.7,55.7,0,0,0,36.1,4.344,55.1,55.1,0,0,0,4.858,35.006Z" transform="translate(0 0)"/><path class="b" d="M42.61,25.61a34.027,34.027,0,0,1-5.462-.653,42.477,42.477,0,0,1-5.437-1.507,41.536,41.536,0,0,1-10.045-5.022,25.691,25.691,0,0,1-2.235-1.657,20.732,20.732,0,0,1-2.147-1.783l-2-1.934-1.871-2.072a48.291,48.291,0,0,1-3.44-4.37C8.909,5.081,8,3.436,7.013,1.867l-.226-.352A3.767,3.767,0,0,0,.433,5.521l.138.2c1.256,1.72,2.4,3.491,3.767,5.135a58.388,58.388,0,0,0,4.244,4.709c.766.728,1.507,1.482,2.3,2.2l2.511,2a23.555,23.555,0,0,0,2.587,1.846,30.137,30.137,0,0,0,2.674,1.708,47.06,47.06,0,0,0,11.64,4.872,49.17,49.17,0,0,0,6.165,1.256,37.079,37.079,0,0,0,6.416.276,2.072,2.072,0,0,0,0-4.131Z" transform="translate(19.869 78.065)"/><ellipse class="b" cx="4.395" cy="4.395" rx="4.395" ry="4.395" transform="translate(12.995 66.171)"/></g><path class="b" d="M78.3-4.3a4.272,4.272,0,0,1-.75,2.55A2.578,2.578,0,0,1,75.6-.6l-18,.1a3.039,3.039,0,0,1-2.5-1.3L41.7-21,27.6-1.9A2.89,2.89,0,0,1,26.25-.5,4.336,4.336,0,0,1,24.2,0H9.9A3.851,3.851,0,0,1,7.05-1.05,3.851,3.851,0,0,1,6-3.9v-61a3.793,3.793,0,0,1,1.1-2.8,3.793,3.793,0,0,1,2.8-1.1H24.2a3.753,3.753,0,0,1,2.75,1.15A3.753,3.753,0,0,1,28.1-64.9v26.5L50.2-66.5q1.8-2.3,6-2l15.4.1h-.1a2.271,2.271,0,0,1,2.2,2.5,5.634,5.634,0,0,1-1.2,3.2l-17,23.1L77.7-6.5A4.2,4.2,0,0,1,78.3-4.3Zm1.5-30.3a35.4,35.4,0,0,1,4.95-18.3A37.138,37.138,0,0,1,98.1-66.25a35.4,35.4,0,0,1,18.3-4.95,35.668,35.668,0,0,1,18.35,4.95,37.016,37.016,0,0,1,13.4,13.35,35.4,35.4,0,0,1,4.95,18.3,35.4,35.4,0,0,1-4.95,18.3,37.016,37.016,0,0,1-13.4,13.35A35.668,35.668,0,0,1,116.4,2,35.4,35.4,0,0,1,98.1-2.95,37.138,37.138,0,0,1,84.75-16.3,35.4,35.4,0,0,1,79.8-34.6Zm52.2-.9a14.862,14.862,0,0,0-2.2-7.9,16.663,16.663,0,0,0-5.85-5.75,15.2,15.2,0,0,0-7.85-2.15,15.569,15.569,0,0,0-8.05,2.15,15.851,15.851,0,0,0-5.75,5.75,15.4,15.4,0,0,0-2.1,7.9,15.666,15.666,0,0,0,2.1,7.95,15.733,15.733,0,0,0,5.75,5.8,15.569,15.569,0,0,0,8.05,2.15,15.2,15.2,0,0,0,7.85-2.15,16.526,16.526,0,0,0,5.85-5.8A15.119,15.119,0,0,0,132-35.5ZM218-.7q-.6-.3-8.7-8.8T185.6-34.6q-1.5-1.5-1.9-1.5a.489.489,0,0,0-.5.45,7.428,7.428,0,0,0-.1,1.45V-4.3a3.92,3.92,0,0,1-1.15,2.8A3.789,3.789,0,0,1,179.1-.3H165.8a4.313,4.313,0,0,1-3.3-1.55,5.268,5.268,0,0,1-1.4-3.65V-64.4a5.724,5.724,0,0,1,1.5-3.9,4.545,4.545,0,0,1,3.5-1.7h12.4a6.323,6.323,0,0,1,2.65.45,9.4,9.4,0,0,1,2.45,2.05l15,15.65Q209-41,214.9-35a2.756,2.756,0,0,0,1.1.5q.6,0,.6-1.6V-65.9a4,4,0,0,1,1.2-2.85A3.664,3.664,0,0,1,220.5-70h12.7a5.191,5.191,0,0,1,3.8,1.6,5.08,5.08,0,0,1,1.6,3.7V-5.2a5.049,5.049,0,0,1-1.55,3.6A4.814,4.814,0,0,1,233.5,0H222.2a15.676,15.676,0,0,1-2.65-.15A6.2,6.2,0,0,1,218-.7Zm86.4-69a4.2,4.2,0,0,1,3,1.25,3.856,3.856,0,0,1,1.3,2.85V-54a4.121,4.121,0,0,1-1.3,3,4.121,4.121,0,0,1-3,1.3H288.6V-4.5a4.656,4.656,0,0,1-1.15,3.2A3.653,3.653,0,0,1,284.6,0H271.3a3.717,3.717,0,0,1-2.85-1.25A4.473,4.473,0,0,1,267.3-4.4l.7-45.3H252a4.186,4.186,0,0,1-3.15-1.3,4.2,4.2,0,0,1-1.25-3V-65.6a3.873,3.873,0,0,1,1.25-2.9A4.366,4.366,0,0,1,252-69.7ZM299-4a10.53,10.53,0,0,1,.55-3.35q.55-1.65.65-1.85l22.2-56.3a7.137,7.137,0,0,1,2.65-3.25A8.013,8.013,0,0,1,329.2-70h14.4a7.36,7.36,0,0,1,4.3,1.4,6.448,6.448,0,0,1,2.3,3.1L372.6-9.2q.1.5.6,2.05a9.611,9.611,0,0,1,.5,2.95q0,3.6-4,4.2H356a7.658,7.658,0,0,1-3.55-.75A3.446,3.446,0,0,1,350.6-2.9l-3.1-10H325.2l-3.1,10a3.466,3.466,0,0,1-1.8,2.15,7.351,7.351,0,0,1-3.5.75H302.9Q299-.6,299-4Zm38.4-25.8h6.5L336-53.3l-7.8,23.5ZM455.2-4.3a4.272,4.272,0,0,1-.75,2.55A2.578,2.578,0,0,1,452.5-.6l-18,.1A3.039,3.039,0,0,1,432-1.8L418.6-21,404.5-1.9a2.89,2.89,0,0,1-1.35,1.4,4.335,4.335,0,0,1-2.05.5H386.8a3.851,3.851,0,0,1-2.85-1.05A3.851,3.851,0,0,1,382.9-3.9v-61a3.793,3.793,0,0,1,1.1-2.8,3.793,3.793,0,0,1,2.8-1.1h14.3a3.753,3.753,0,0,1,2.75,1.15A3.753,3.753,0,0,1,405-64.9v26.5l22.1-28.1q1.8-2.3,6-2l15.4.1h-.1a2.271,2.271,0,0,1,2.2,2.5,5.634,5.634,0,0,1-1.2,3.2l-17,23.1L454.6-6.5A4.2,4.2,0,0,1,455.2-4.3Z" transform="translate(376.4 456)"/></g></svg>