<svg width="61" height="50" viewBox="0 0 61 50" fill="none" xmlns="http://www.w3.org/2000/svg">
<path d="M40.12 9.32C40.5035 8.5353 40.5733 7.63384 40.315 6.79949C40.0567 5.96514 39.4898 5.26075 38.73 4.83C37.9455 4.43294 37.0703 4.24976 36.1924 4.29891C35.3146 4.34807 34.4652 4.62784 33.73 5.11C32.2886 6.08437 31.1351 7.42778 30.39 9C29.1677 8.77914 27.9092 8.87514 26.7345 9.27884C25.5599 9.68253 24.5082 10.3805 23.6799 11.306C22.8516 12.2316 22.2742 13.354 22.0029 14.5661C21.7316 15.7782 21.7753 17.0396 22.13 18.23C20.8393 18.2421 19.5696 18.5587 18.4243 19.1541C17.279 19.7495 16.2905 20.6069 15.5391 21.6565C14.7878 22.706 14.2948 23.9182 14.1003 25.1942C13.9059 26.4703 14.0154 27.7743 14.42 29C13.5312 29.0029 12.6527 29.1912 11.8408 29.5528C11.0289 29.9145 10.3013 30.4416 9.70465 31.1003C9.10797 31.7591 8.6553 32.5352 8.37555 33.3788C8.09581 34.2225 7.99515 35.1152 8.08 36C11.52 37.28 13.4 34.91 15.63 35.73C19.41 37.14 24.81 36.43 29.16 34.44C33.5852 32.4145 37.1345 28.8652 39.16 24.44C41.1831 19.6542 41.5216 14.3233 40.12 9.32Z" fill="#557C44"/>
<path d="M36.61 6.41C36.9832 6.40232 37.3519 6.49192 37.68 6.67C38.0103 6.88023 38.2467 7.20978 38.34 7.59C38.4234 7.79519 38.4234 8.02482 38.34 8.23L37.82 9L38.1 9.9C39.3221 14.3853 38.998 19.1514 37.18 23.43C35.3879 27.3997 32.2295 30.5937 28.28 32.43C25.7401 33.5976 22.9851 34.2242 20.19 34.27C18.8874 34.2936 17.5908 34.0871 16.36 33.66C15.7988 33.457 15.2068 33.3521 14.61 33.35C13.7557 33.3833 12.9106 33.5382 12.1 33.81C11.5143 34.0078 10.9063 34.132 10.29 34.18C10.4671 33.5671 10.7817 33.0028 11.21 32.53C11.5726 32.0796 12.0286 31.7131 12.5465 31.4559C13.0644 31.1986 13.632 31.0567 14.21 31.04H14.35L17.35 31.18L16.43 28.29C16.1429 27.3829 16.072 26.4212 16.2229 25.4818C16.3738 24.5424 16.7424 23.6513 17.2992 22.8797C17.856 22.1082 18.5856 21.4776 19.4296 21.0383C20.2736 20.5991 21.2086 20.3634 22.16 20.35H24.96L24.16 17.67C23.9253 16.8955 23.8768 16.0764 24.0185 15.2796C24.1601 14.4828 24.488 13.7307 24.9753 13.0845C25.4626 12.4383 26.0956 11.9163 26.8228 11.5611C27.55 11.2058 28.3508 11.0273 29.16 11.04C29.4482 11.0381 29.7359 11.0615 30.02 11.11L31.55 11.39L32.27 10C32.8339 8.7578 33.7259 7.69292 34.85 6.92C35.3823 6.59977 35.989 6.42398 36.61 6.41ZM36.61 4.3C35.6047 4.3107 34.6206 4.59039 33.76 5.11C32.3075 6.08031 31.1434 7.42409 30.39 9C29.9846 8.92327 29.5726 8.88643 29.16 8.89C28.025 8.88306 26.9042 9.14233 25.8876 9.64699C24.871 10.1516 23.9868 10.8876 23.3061 11.7959C22.6254 12.7041 22.1672 13.7593 21.9681 14.8767C21.7691 15.9941 21.8348 17.1426 22.16 18.23C20.8667 18.2374 19.5935 18.5506 18.4444 19.144C17.2952 19.7374 16.3028 20.5942 15.548 21.6444C14.7932 22.6947 14.2976 23.9085 14.1016 25.1869C13.9055 26.4653 14.0146 27.7719 14.42 29H14.18C13.3131 29.0396 12.4631 29.2546 11.6816 29.632C10.9001 30.0093 10.2032 30.5412 9.63304 31.1955C9.06287 31.8498 8.63129 32.6129 8.36436 33.4387C8.09742 34.2645 8.00069 35.1358 8.08 36C8.74475 36.2522 9.44904 36.3843 10.16 36.39C11.93 36.39 13.26 35.55 14.61 35.55C14.9509 35.5553 15.2886 35.6161 15.61 35.73C17.0736 36.2469 18.618 36.4976 20.17 36.47C23.2769 36.4405 26.343 35.7591 29.17 34.47C33.5952 32.4445 37.1445 28.8952 39.17 24.47C41.1787 19.7243 41.531 14.4404 40.17 9.47C40.5535 8.6853 40.6233 7.78384 40.365 6.94949C40.1067 6.11514 39.5398 5.41076 38.78 4.98C38.132 4.6207 37.4009 4.43793 36.66 4.45L36.61 4.3Z" fill="#152400"/>
<path d="M36.32 17.18C36.3347 18.6798 36.0206 20.1646 35.4 21.53C34.7923 22.8749 33.983 24.1192 33 25.22C31.0718 27.4324 28.6207 29.1272 25.87 30.15C25.5557 30.2654 25.2085 30.2512 24.9047 30.1105C24.7542 30.0409 24.619 29.9423 24.5067 29.8204C24.3943 29.6985 24.3071 29.5556 24.25 29.4C24.1929 29.2444 24.167 29.079 24.1737 28.9134C24.1805 28.7478 24.2198 28.5851 24.2895 28.4347C24.4301 28.1309 24.6857 27.8954 25 27.78H25.06C27.4698 26.9877 29.6473 25.6139 31.4 23.78C33.2036 22.0358 34.3064 19.6916 34.5 17.19C34.5233 16.9715 34.6265 16.7693 34.7899 16.6224C34.9533 16.4755 35.1653 16.3942 35.385 16.3942C35.6047 16.3942 35.8167 16.4755 35.9801 16.6224C36.1435 16.7693 36.2467 16.9715 36.27 17.19L36.32 17.18Z" fill="#EBFFBC"/>
<path d="M51.42 25.65C52.6299 24.8221 53.5399 23.6253 54.0142 22.238C54.4885 20.8508 54.5017 19.3474 54.052 17.952C53.6022 16.5566 52.7135 15.344 51.5184 14.4948C50.3232 13.6457 48.8857 13.2055 47.42 13.24C47.9174 11.8534 47.951 10.3428 47.5159 8.9354C47.0807 7.52803 46.2003 6.30002 45.0071 5.43613C43.8139 4.57224 42.3724 4.11919 40.8995 4.14513C39.4267 4.17108 38.002 4.67462 36.84 5.58C36.4263 4.16994 35.567 2.93183 34.3907 2.05106C33.2144 1.17029 31.7845 0.69426 30.315 0.69426C28.8455 0.69426 27.4156 1.17029 26.2393 2.05106C25.063 2.93183 24.2037 4.16994 23.79 5.58C22.6269 4.68808 21.2067 4.19584 19.7411 4.17665C18.2755 4.15746 16.8429 4.61234 15.6568 5.47351C14.4708 6.33467 13.5947 7.55602 13.1592 8.95556C12.7237 10.3551 12.752 11.8579 13.24 13.24C11.7743 13.2055 10.3368 13.6457 9.14163 14.4948C7.9465 15.344 7.05781 16.5566 6.60805 17.952C6.15829 19.3474 6.17154 20.8508 6.64584 22.238C7.12014 23.6253 8.03008 24.8221 9.24 25.65C8.03466 26.4796 7.12905 27.6758 6.6577 29.061C6.18635 30.4463 6.17439 31.9466 6.6236 33.3392C7.07282 34.7317 7.95924 35.9423 9.15121 36.7909C10.3432 37.6396 11.7771 38.0812 13.24 38.05C12.9315 38.8976 12.7958 39.7983 12.8408 40.6991C12.8858 41.5999 13.1106 42.4827 13.502 43.2953C13.8934 44.1079 14.4435 44.8339 15.1198 45.4307C15.7961 46.0274 16.585 46.4828 17.44 46.77H21.88C22.568 46.5228 23.2126 46.1684 23.79 45.72C23.898 46.0805 24.0351 46.4317 24.2 46.77H36.43C36.5863 46.428 36.7232 46.0774 36.84 45.72C37.4161 46.1704 38.061 46.525 38.75 46.77H43.19C44.045 46.4828 44.8339 46.0274 45.5102 45.4307C46.1865 44.8339 46.7366 44.1079 47.128 43.2953C47.5194 42.4827 47.7442 41.5999 47.7892 40.6991C47.8342 39.7983 47.6985 38.8976 47.39 38.05C48.8555 38.0879 50.294 37.6512 51.4911 36.805C52.6882 35.9587 53.5798 34.7483 54.0329 33.3541C54.486 31.9599 54.4764 30.4565 54.0056 29.0682C53.5347 27.6799 52.6278 26.4809 51.42 25.65Z" fill="#89C63B"/>
<path d="M43.31 47.47H38.51C38.0493 47.2989 37.6043 47.0881 37.18 46.84C37.1485 46.9335 37.1083 47.0239 37.06 47.11L36.87 47.51H23.76L23.57 47.11C23.52 47.02 23.48 46.93 23.44 46.84C23.0202 47.0899 22.5783 47.3008 22.12 47.47H21.88H17.2C15.3928 46.8053 13.8964 45.4941 13 43.79C12.1732 42.2355 11.9421 40.4328 12.35 38.72C10.8985 38.5776 9.52004 38.015 8.38334 37.1012C7.24664 36.1875 6.40103 34.9621 5.95002 33.5751C5.49902 32.1881 5.46219 30.6998 5.84405 29.2922C6.22591 27.8846 7.00988 26.6189 8.1 25.65C7.01103 24.6797 6.22815 23.4133 5.84699 22.0055C5.46582 20.5976 5.50286 19.1093 5.95358 17.7221C6.40429 16.335 7.24918 15.1091 8.38507 14.1942C9.52096 13.2792 10.8987 12.7149 12.35 12.57C12.0115 11.1491 12.1058 9.65944 12.6208 8.29258C13.1358 6.92573 14.048 5.74422 15.24 4.90001C16.4092 4.01977 17.8154 3.51022 19.2771 3.43714C20.7388 3.36405 22.1888 3.73079 23.44 4.49001C24.0267 3.15541 24.9892 2.02042 26.21 1.22354C27.4308 0.426662 28.8571 0.00233459 30.315 0.00233459C31.7729 0.00233459 33.1992 0.426662 34.42 1.22354C35.6408 2.02042 36.6033 3.15541 37.19 4.49001C38.4412 3.73079 39.8912 3.36405 41.3529 3.43714C42.8146 3.51022 44.2208 4.01977 45.39 4.90001C46.5874 5.74034 47.5055 6.92017 48.026 8.28729C48.5465 9.65442 48.6454 11.1461 48.31 12.57C49.7613 12.7149 51.139 13.2792 52.2749 14.1942C53.4108 15.1091 54.2557 16.335 54.7064 17.7221C55.1571 19.1093 55.1942 20.5976 54.813 22.0055C54.4318 23.4133 53.649 24.6797 52.56 25.65C53.6501 26.6189 54.4341 27.8846 54.816 29.2922C55.1978 30.6998 55.161 32.1881 54.71 33.5751C54.259 34.9621 53.4134 36.1875 52.2767 37.1012C51.14 38.015 49.7615 38.5776 48.31 38.72C48.7179 40.4328 48.4868 42.2355 47.66 43.79C46.7486 45.4847 45.2416 46.7815 43.43 47.43L43.31 47.47ZM38.87 46.07H43.07C44.505 45.5276 45.6973 44.4878 46.43 43.14C46.8209 42.399 47.0498 41.5834 47.1015 40.7473C47.1532 39.9111 47.0266 39.0735 46.73 38.29L46.39 37.29H47.39C48.6902 37.3095 49.9624 36.9124 51.0206 36.1567C52.0788 35.401 52.8674 34.3265 53.2708 33.0904C53.6743 31.8542 53.6715 30.5214 53.2629 29.287C52.8543 28.0525 52.0613 26.9813 51 26.23L50.16 25.65L51 25.07C52.0991 24.3363 52.9252 23.2603 53.3501 22.0091C53.775 20.7578 53.775 19.4012 53.35 18.15C52.9664 16.8773 52.1664 15.7705 51.0783 15.007C49.9903 14.2435 48.6772 13.8678 47.35 13.94H46.35L46.69 12.94C47.1327 11.6987 47.1614 10.3475 46.772 9.08851C46.3826 7.82952 45.596 6.7305 44.5298 5.95592C43.4636 5.18135 42.1753 4.77287 40.8576 4.79163C39.5399 4.8104 38.2637 5.25539 37.22 6.06001L36.41 6.68001L36.12 5.68001C35.747 4.41773 34.9758 3.30995 33.9215 2.52206C32.8671 1.73417 31.5862 1.30844 30.27 1.30844C28.9538 1.30844 27.6729 1.73417 26.6185 2.52206C25.5642 3.30995 24.7929 4.41773 24.42 5.68001L24.14 6.68001L23.33 6.06001C22.2814 5.26029 21.0018 4.82196 19.683 4.8107C18.3643 4.79944 17.0774 5.21586 16.0153 5.99754C14.9531 6.77923 14.1729 7.88409 13.7916 9.14653C13.4102 10.409 13.4483 11.761 13.9 13L14.24 14H13.24C11.924 13.965 10.632 14.3567 9.55696 15.1165C8.48193 15.8764 7.68156 16.9636 7.27539 18.2158C6.86923 19.4681 6.87908 20.8181 7.30346 22.0643C7.72785 23.3105 8.544 24.3859 9.63 25.13L10.47 25.71L9.63 26.28C8.5828 27.0199 7.7954 28.0711 7.37965 29.284C6.96391 30.497 6.94097 31.8101 7.31408 33.0369C7.6872 34.2636 8.43741 35.3416 9.45812 36.1177C10.4788 36.8938 11.7181 37.3284 13 37.36H13.18H14.18L13.84 38.36C13.5434 39.1435 13.4168 39.9811 13.4685 40.8173C13.5202 41.6534 13.7491 42.469 14.14 43.21C14.8727 44.5578 16.065 45.5976 17.5 46.14H21.69C22.2718 45.9179 22.8176 45.6113 23.31 45.23L24.12 44.61L24.4 45.61C24.46 45.79 24.52 45.97 24.6 46.16H36C36.0751 45.981 36.1386 45.7972 36.19 45.61L36.48 44.61L37.29 45.23C37.7739 45.584 38.3059 45.8669 38.87 46.07Z" fill="#153800"/>
<path d="M35.64 14.35L36.64 16.58L39 16.32C40.1219 16.1976 41.2551 16.404 42.2618 16.914C43.2685 17.4241 44.1052 18.2158 44.67 19.1929C45.2348 20.1699 45.5033 21.29 45.443 22.4169C45.3826 23.5439 44.9959 24.6289 44.33 25.54L42.89 27.54L44.33 29.54C44.974 30.4514 45.3424 31.5287 45.3913 32.6436C45.4402 33.7584 45.1676 34.8639 44.6059 35.8281C44.0442 36.7924 43.2171 37.5749 42.2232 38.0823C41.2293 38.5897 40.1104 38.8006 39 38.69L36.58 38.43L35.58 40.65C35.1245 41.6826 34.3787 42.5605 33.4332 43.1768C32.4878 43.7931 31.3836 44.1212 30.255 44.1212C29.1264 44.1212 28.0222 43.7931 27.0768 43.1768C26.1313 42.5605 25.3855 41.6826 24.93 40.65L23.93 38.43L21.51 38.69C20.3881 38.8124 19.2549 38.606 18.2482 38.096C17.2415 37.5859 16.4048 36.7942 15.84 35.8171C15.2752 34.8401 15.0067 33.72 15.067 32.5931C15.1274 31.4662 15.5141 30.3811 16.18 29.47L17.62 27.47L16.18 25.47C15.5141 24.5589 15.1274 23.4739 15.067 22.3469C15.0067 21.22 15.2752 20.0999 15.84 19.1229C16.4048 18.1459 17.2415 17.3541 18.2482 16.844C19.2549 16.334 20.3881 16.1276 21.51 16.25L23.93 16.51L24.93 14.28C25.3839 13.2327 26.1357 12.3419 27.092 11.7186C28.0483 11.0953 29.1667 10.7669 30.3081 10.7744C31.4496 10.7818 32.5636 11.1248 33.5117 11.7605C34.4597 12.3963 35.1998 13.2968 35.64 14.35Z" fill="#73A946"/>
<path d="M30.46 20.77C30.6406 20.9842 30.7675 21.2383 30.8301 21.5114C30.8928 21.7845 30.8893 22.0685 30.82 22.34C30.54 23.9 30.24 25.43 30.05 27C29.9575 27.5116 30.013 28.0389 30.21 28.52C30.3303 28.9553 30.5015 29.3748 30.72 29.77C31 30.15 31.51 30.02 31.88 30.4C33.11 31.68 33.06 31.93 33 32.64C32.6461 35.6275 32.6026 38.6436 32.87 41.64C33.0571 43.6089 33.3913 45.561 33.87 47.48C34.0981 47.9448 34.185 48.4663 34.12 48.98C32.55 49.06 30.93 49.75 29.31 49.36C28.79 49.24 27.57 48.91 27.41 48.43C27.19 47.74 27.97 46.11 28.06 45.43C28.1734 44.3605 28.2268 43.2855 28.22 42.21C28.2497 41.3872 28.3637 40.5696 28.56 39.77C29.09 37.51 29.68 35.23 30.25 32.96C30.3501 32.6341 30.3523 32.286 30.2563 31.9589C30.1603 31.6318 29.9704 31.3401 29.71 31.12C29.3138 30.7502 28.9766 30.3219 28.71 29.85C28.58 29.5 28.65 29.11 28.46 28.75C27.7042 27.5686 26.6198 26.6337 25.34 26.06C25.2604 25.8237 25.2101 25.5785 25.19 25.33C26.19 25.26 27.35 26.19 28.32 25.99C29.54 25.73 29.5 24.05 29.66 23.15C29.82 22.25 30.25 21.51 30.33 20.66C30.3966 20.8515 30.4946 21.0306 30.62 21.19" fill="#EBFFBC"/>
<path d="M53.41 42.36C62.07 33.27 59.1 21.62 59.1 21.62C59.1 21.62 46.49 19.14 38.36 27.31C31.08 34.62 31.36 49.19 31.36 49.19C31.36 49.19 46.29 49.83 53.41 42.36Z" fill="#4A7730"/>
<path d="M45.61 45C46.6296 43.839 47.1885 42.3447 47.1812 40.7996C47.1738 39.2545 46.6007 37.7656 45.5701 36.6144C44.5395 35.4631 43.1229 34.7293 41.588 34.5516C40.0531 34.3739 38.5063 34.7647 37.24 35.65C36.9211 35.876 36.6232 36.1304 36.35 36.41C31.76 40.41 31.35 49.1 31.35 49.1C31.35 49.1 40.15 50.04 44.65 45.89C44.72 45.83 44.77 45.77 44.83 45.71C45.0791 45.5109 45.31 45.29 45.52 45.05L45.61 45ZM44 46.32H44.05H44ZM41.9 47H42H41.9ZM43 46.77L43.14 46.72L43 46.77Z" fill="#456830"/>
<path d="M32.39 49.8H31.39H30.39V49.24C30.39 48.64 30.65 34.34 38.02 26.93C46.29 18.63 58.77 20.98 59.3 21.08L59.67 21.16L59.77 21.52C59.77 21.64 62.77 33.6 53.94 42.82C47.64 49.28 36 49.8 32.39 49.8ZM32 48.6C34.78 48.6 46.92 48.31 53 41.94C60.47 34.1 59 24.19 58.62 22.15C56.47 21.83 45.83 20.68 38.8 27.73C32.57 34 32 45.85 32 48.6Z" fill="#153800"/>
<path d="M46.39 35.66C47.7084 34.3632 48.916 32.9583 50 31.46C50.084 31.3563 50.2041 31.2881 50.3362 31.2691C50.4683 31.2501 50.6028 31.2816 50.7127 31.3574C50.8225 31.4332 50.8998 31.5476 50.929 31.6779C50.9581 31.8081 50.9371 31.9446 50.87 32.06C49.7992 33.6598 48.602 35.1713 47.29 36.58C47.1707 36.7126 47.0035 36.7924 46.8254 36.8018C46.6472 36.8111 46.4726 36.7494 46.34 36.63C46.2074 36.5107 46.1276 36.3435 46.1182 36.1654C46.1089 35.9872 46.1707 35.8126 46.29 35.68L46.39 35.66Z" fill="#153800"/>
<path d="M47.61 24.81C48.6504 24.3691 49.7325 24.0341 50.84 23.81C51.9481 23.6402 53.0705 23.5833 54.19 23.64C54.3422 23.6593 54.482 23.7334 54.5834 23.8485C54.6848 23.9635 54.7408 24.1116 54.7408 24.265C54.7408 24.4184 54.6848 24.5665 54.5834 24.6815C54.482 24.7966 54.3422 24.8707 54.19 24.89C53.1782 24.9267 52.173 25.0675 51.19 25.31C50.2118 25.597 49.264 25.9788 48.36 26.45C48.253 26.5032 48.1365 26.5348 48.0173 26.543C47.8981 26.5511 47.7784 26.5357 47.6651 26.4977C47.5518 26.4596 47.4471 26.3996 47.357 26.3211C47.2669 26.2425 47.1932 26.147 47.14 26.04C47.0868 25.933 47.0552 25.8165 47.0471 25.6973C47.0389 25.5781 47.0543 25.4584 47.0923 25.3451C47.1304 25.2318 47.1904 25.1271 47.2689 25.037C47.3475 24.9469 47.443 24.8732 47.55 24.82L47.61 24.81Z" fill="white"/>
<path d="M7.22 42.36C-1.45 33.27 1.53 21.62 1.53 21.62C1.53 21.62 14.14 19.14 22.27 27.31C29.55 34.62 29.27 49.19 29.27 49.19C29.27 49.19 14.34 49.83 7.22 42.36Z" fill="#4A7730"/>
<path d="M15 45C13.9804 43.839 13.4215 42.3447 13.4288 40.7996C13.4362 39.2545 14.0093 37.7656 15.0399 36.6144C16.0705 35.4631 17.4871 34.7293 19.022 34.5516C20.5569 34.3739 22.1037 34.7647 23.37 35.65C23.6889 35.876 23.9868 36.1304 24.26 36.41C28.85 40.41 29.26 49.1 29.26 49.1C29.26 49.1 20.46 50.04 15.96 45.89C15.89 45.83 15.84 45.77 15.78 45.71C15.5309 45.5109 15.3 45.29 15.09 45.05L15 45ZM18.71 47.04H18.57H18.71ZM17.65 46.77L17.51 46.72L17.65 46.77Z" fill="#456830"/>
<path d="M28.24 49.8H29.24H30.24V49.24C30.24 48.64 29.99 34.34 22.61 26.93C14.43 18.58 1.94 20.93 1.42 21L1 21.11V21.47C1 21.59 -2 33.55 6.83 42.77C13 49.28 24.68 49.8 28.24 49.8ZM28.65 48.6C25.87 48.6 13.72 48.31 7.65 41.94C0.17 34.1 1.63 24.19 2 22.15C4.15 21.83 14.79 20.68 21.81 27.73C28.06 34 28.61 45.85 28.65 48.6Z" fill="#153800"/>
<path d="M14.24 35.66C12.9106 34.3621 11.6899 32.9574 10.59 31.46C10.5502 31.4039 10.4997 31.3562 10.4413 31.3197C10.383 31.2832 10.318 31.2587 10.2501 31.2475C10.1822 31.2364 10.1127 31.2388 10.0458 31.2547C9.9788 31.2705 9.91566 31.2996 9.86 31.34C9.74994 31.4203 9.67504 31.5399 9.65083 31.674C9.62663 31.808 9.65498 31.9463 9.73 32.06C10.7945 33.6644 11.992 35.1764 13.31 36.58C13.3704 36.6405 13.4421 36.6885 13.521 36.7212C13.5999 36.7539 13.6845 36.7708 13.77 36.7708C13.8554 36.7708 13.9401 36.7539 14.019 36.7212C14.0979 36.6885 14.1696 36.6405 14.23 36.58C14.3497 36.4568 14.4167 36.2918 14.4167 36.12C14.4167 35.9482 14.3497 35.7832 14.23 35.66H14.24Z" fill="#153800"/>
<path d="M13 24.81C11.9596 24.3691 10.8775 24.0341 9.77 23.81C8.66192 23.6405 7.53954 23.5835 6.42 23.64C6.25466 23.6452 6.09801 23.7153 5.98388 23.835C5.86975 23.9548 5.80729 24.1146 5.81 24.28C5.81894 24.4355 5.88343 24.5826 5.99171 24.6946C6.1 24.8065 6.24488 24.8759 6.4 24.89C7.41176 24.9267 8.41705 25.0675 9.4 25.31C10.3782 25.597 11.326 25.9788 12.23 26.45C12.4462 26.5574 12.6961 26.5746 12.9249 26.4977C13.1537 26.4208 13.3426 26.2562 13.45 26.04C13.5574 25.8239 13.5746 25.5739 13.4977 25.3451C13.4208 25.1163 13.2562 24.9274 13.04 24.82L13 24.81Z" fill="white"/>
<path d="M25.59 7.31001C26.1642 6.21946 27.0572 5.32991 28.15 4.76001C28.6759 4.49664 29.2292 4.29207 29.8 4.15001C30.4021 4.02375 31.0219 4.00682 31.63 4.10001C32.8307 4.28558 33.928 4.88732 34.73 5.80001C35.3694 6.68485 35.853 7.67238 36.16 8.72001L35 8.44001C35.4257 8.1185 35.9234 7.90568 36.45 7.82001C36.9241 7.75022 37.4059 7.75022 37.88 7.82001C38.8408 7.89869 39.7548 8.26847 40.5 8.88001C40.5591 8.92902 40.6077 8.98946 40.6429 9.05772C40.6781 9.12598 40.6991 9.20064 40.7047 9.27723C40.7103 9.35381 40.7004 9.43074 40.6755 9.50339C40.6506 9.57604 40.6114 9.64292 40.56 9.70001C40.4628 9.81413 40.3253 9.8862 40.1761 9.90111C40.027 9.91603 39.8778 9.87263 39.76 9.78001C39.1752 9.3592 38.4798 9.11928 37.76 9.09001C37.1401 9.02929 36.5184 9.18474 36 9.53001C35.9355 9.59778 35.858 9.65175 35.772 9.68862C35.6861 9.72549 35.5935 9.74451 35.5 9.74451C35.4065 9.74451 35.3139 9.72549 35.228 9.68862C35.142 9.65175 35.0645 9.59778 35 9.53001C34.953 9.47138 34.9127 9.40765 34.88 9.34001V9.29001C34.5825 8.43781 34.1355 7.64543 33.56 6.95001C32.9689 6.39699 32.2071 6.06191 31.4 6.00001C30.6084 5.9369 29.8205 6.1605 29.18 6.63001C28.5193 7.04322 28.0267 7.67755 27.79 8.42001C27.6627 8.70639 27.431 8.93339 27.142 9.05468C26.8531 9.17597 26.5287 9.18239 26.2352 9.07264C25.9417 8.96288 25.7011 8.74523 25.5626 8.46411C25.4241 8.183 25.3981 7.85962 25.49 7.56001L25.55 7.41001L25.59 7.31001Z" fill="white"/>
<path d="M42.68 11.32C43.0133 11.6998 43.2926 12.1238 43.51 12.58C43.7357 13.0347 43.9166 13.5102 44.05 14C44.0776 14.0932 44.0865 14.191 44.0763 14.2877C44.0661 14.3844 44.037 14.4781 43.9905 14.5636C43.9441 14.649 43.8813 14.7244 43.8057 14.7856C43.7301 14.8468 43.6432 14.8924 43.55 14.92C43.4568 14.9476 43.359 14.9565 43.2623 14.9463C43.1656 14.9361 43.0719 14.907 42.9864 14.8605C42.901 14.8141 42.8256 14.7513 42.7644 14.6757C42.7032 14.6001 42.6576 14.5132 42.63 14.42C42.6254 14.3768 42.6254 14.3332 42.63 14.29C42.5481 13.4843 42.2995 12.7045 41.9 12C41.833 11.8855 41.8133 11.7494 41.845 11.6205C41.8768 11.4917 41.9575 11.3803 42.07 11.31C42.1592 11.2457 42.2667 11.2119 42.3767 11.2137C42.4866 11.2155 42.593 11.2528 42.68 11.32Z" fill="white"/>
<path d="M30.73 49.91H30.19C27.99 49.91 13.74 49.51 6.95 42.39C-1.84 33.17 1.09 21.21 1.12 21.09L2.28 21.39C2.28 21.5 -0.499999 32.84 7.82 41.56C14.68 48.76 30.29 48.32 30.43 48.32C30.57 48.32 45.95 48.76 52.81 41.56C61.13 32.84 58.37 21.5 58.35 21.39L59.51 21.09C59.51 21.21 62.51 33.17 53.67 42.39C46.88 49.51 32.91 49.91 30.73 49.91Z" fill="#153800"/>
<path d="M29.83 49.47C29.9088 49.401 29.9763 49.32 30.03 49.23C30.1782 48.9488 30.2088 48.6203 30.1151 48.3166C30.0213 48.0129 29.8109 47.7588 29.53 47.61H29.47C24.6805 45.394 20.3829 42.2422 16.83 38.34C16.6974 38.1875 16.5096 38.0939 16.308 38.0799C16.1064 38.0658 15.9075 38.1324 15.755 38.265C15.6025 38.3976 15.5089 38.5854 15.4949 38.787C15.4808 38.9886 15.5474 39.1875 15.68 39.34C19.0929 43.4817 23.2768 46.9219 28 49.47H29.83Z" fill="#153800"/>
<path d="M44.87 38.26C44.7969 38.1921 44.711 38.1395 44.6174 38.1052C44.5237 38.0709 44.4241 38.0556 44.3245 38.0603C44.2249 38.0649 44.1271 38.0894 44.0371 38.1323C43.947 38.1752 43.8664 38.2356 43.8 38.31C40.2471 42.2122 35.9495 45.364 31.16 47.58H31.1C30.8191 47.7287 30.6087 47.9829 30.5149 48.2866C30.4212 48.5903 30.4518 48.9188 30.6 49.2C30.6526 49.2879 30.7165 49.3686 30.79 49.44H32.68C37.4049 46.886 41.589 43.4389 45 39.29C45.1154 39.1347 45.1662 38.9408 45.142 38.7489C45.1178 38.5569 45.0203 38.3818 44.87 38.26Z" fill="#153800"/>
</svg>
