<svg xmlns="http://www.w3.org/2000/svg" width="547.992" height="440.214" viewBox="0 0 547.992 440.214"><defs><style>.a{fill:#61510e;}.b{fill:#fff;}</style></defs><g transform="translate(-238 -199.787)"><g transform="translate(27.793)"><path class="a" d="M-2370.867-3242.04h-418.925l137.193-237.625h43.357l11.983,21.925,21.511-37.26,19.477,42.649,24.087-41.72,12.73,37.534,21.421-37.1,19.488,7.925.352-.559,39.929,8.363,9.317-16.137,20.444,58.31,8.991,2.162,34.466-59.7,2.43,9.7L-2356.5-3494l45.735,13.241,7.435-12.877,19.488,7.925.352-.559,40.135,8.406-23.149,40.112,2.93,9.771-107.29,185.943Z" transform="translate(3000 3882.041)"/><path class="b" d="M6-34.6a35.4,35.4,0,0,1,4.95-18.3A37.138,37.138,0,0,1,24.3-66.25,35.4,35.4,0,0,1,42.6-71.2a35.668,35.668,0,0,1,18.35,4.95A37.016,37.016,0,0,1,74.35-52.9,35.4,35.4,0,0,1,79.3-34.6a35.4,35.4,0,0,1-4.95,18.3A37.016,37.016,0,0,1,60.95-2.95,35.668,35.668,0,0,1,42.6,2,35.4,35.4,0,0,1,24.3-2.95,37.138,37.138,0,0,1,10.95-16.3,35.4,35.4,0,0,1,6-34.6Zm52.2-.9A14.862,14.862,0,0,0,56-43.4a16.663,16.663,0,0,0-5.85-5.75A15.2,15.2,0,0,0,42.3-51.3a15.569,15.569,0,0,0-8.05,2.15A15.851,15.851,0,0,0,28.5-43.4a15.4,15.4,0,0,0-2.1,7.9,15.666,15.666,0,0,0,2.1,7.95,15.733,15.733,0,0,0,5.75,5.8A15.569,15.569,0,0,0,42.3-19.6a15.2,15.2,0,0,0,7.85-2.15A16.526,16.526,0,0,0,56-27.55,15.119,15.119,0,0,0,58.2-35.5Zm29.6,3.3L87.7-67q0-3,3.4-3h13.1a5.2,5.2,0,0,1,3.1.8,2.572,2.572,0,0,1,1.1,2.2l.4,32.6q.1,6.5,3.55,10.25a12.081,12.081,0,0,0,9.35,3.75q11.6,0,11.6-13.2l.2-33.2a2.773,2.773,0,0,1,1.25-2.25A4.736,4.736,0,0,1,137.7-70H151a4.573,4.573,0,0,1,2.95.85,2.614,2.614,0,0,1,.95,2.35V-52q0,13.8.05,17.2t.05,3.6a40.2,40.2,0,0,1-2.75,15.35,25.559,25.559,0,0,1-10.3,12.1Q134.5,1.1,121.9,1.1q-11.5,0-19.15-4.7a29.1,29.1,0,0,1-11.3-12.25A37.067,37.067,0,0,1,87.8-32.2ZM222.2-69.7a4.2,4.2,0,0,1,3,1.25,3.856,3.856,0,0,1,1.3,2.85V-54a4.121,4.121,0,0,1-1.3,3,4.121,4.121,0,0,1-3,1.3H206.4V-4.5a4.656,4.656,0,0,1-1.15,3.2A3.653,3.653,0,0,1,202.4,0H189.1a3.717,3.717,0,0,1-2.85-1.25A4.473,4.473,0,0,1,185.1-4.4l.7-45.3h-16a4.186,4.186,0,0,1-3.15-1.3,4.2,4.2,0,0,1-1.25-3V-65.6a3.873,3.873,0,0,1,1.25-2.9,4.366,4.366,0,0,1,3.15-1.2ZM238.7-.1a4.035,4.035,0,0,1-2.95-1.25A4.271,4.271,0,0,1,234.5-4.5V-65.7a4.44,4.44,0,0,1,1.25-3.2,3.96,3.96,0,0,1,2.95-1.3h13.5a3.96,3.96,0,0,1,2.95,1.3,4.44,4.44,0,0,1,1.25,3.2v44.8h27.5a4.723,4.723,0,0,1,3.25,1.2,3.848,3.848,0,0,1,1.35,3V-4.1a3.744,3.744,0,0,1-1.35,2.9A4.723,4.723,0,0,1,283.9,0H241.3Zm81.6-52V-44h28.2a3.925,3.925,0,0,1,2.85,1.25,4.271,4.271,0,0,1,1.25,3.15v8.7a4.372,4.372,0,0,1-1.25,3.05,3.8,3.8,0,0,1-2.85,1.35H320.3v8.9h29.6a4.035,4.035,0,0,1,2.95,1.25,4.4,4.4,0,0,1,1.25,3.25v8.6a4.49,4.49,0,0,1-1.25,3.15A3.9,3.9,0,0,1,349.9,0H302.7a3.9,3.9,0,0,1-2.95-1.35A4.49,4.49,0,0,1,298.5-4.5V-65.2a4.271,4.271,0,0,1,1.25-3.15,4.035,4.035,0,0,1,2.95-1.25h47.2a4.035,4.035,0,0,1,2.95,1.25,4.271,4.271,0,0,1,1.25,3.15v8.7a4.286,4.286,0,0,1-1.3,3.05,3.95,3.95,0,0,1-2.9,1.35Zm97.6-17.6a4.2,4.2,0,0,1,3,1.25,3.856,3.856,0,0,1,1.3,2.85V-54a4.121,4.121,0,0,1-1.3,3,4.121,4.121,0,0,1-3,1.3H402.1V-4.5a4.656,4.656,0,0,1-1.15,3.2A3.653,3.653,0,0,1,398.1,0H384.8a3.717,3.717,0,0,1-2.85-1.25A4.473,4.473,0,0,1,380.8-4.4l.7-45.3h-16a4.186,4.186,0,0,1-3.15-1.3,4.2,4.2,0,0,1-1.25-3V-65.6a3.873,3.873,0,0,1,1.25-2.9,4.366,4.366,0,0,1,3.15-1.2Z" transform="translate(336 456)"/></g><g transform="matrix(0.951, 0.309, -0.309, 0.951, 442.577, 280.285)"><path class="a" d="M2.6,45.424a29.614,29.614,0,0,1-.262-23.648c9.643-23.541,39.17-24.212,53.3-19.387A100.4,100.4,0,0,1,86.916,19.461q13.79,11.213,17.038,18.87,2.013,4.7-2.2,4.436-20.132-1.382-33.466,4.275A55.772,55.772,0,0,0,59.832,51.5c-2.684,1.711-4.389,2.832-5.147,3.355a88.2,88.2,0,0,1-11.737,6.69,29.768,29.768,0,0,1-23.655.262A29.446,29.446,0,0,1,2.6,45.424Z" transform="translate(21.459 -16.171)"/><path class="b" d="M38.6,11.915a18.186,18.186,0,0,0-2.919.349,22.7,22.7,0,0,0-2.906.805A22.2,22.2,0,0,0,27.4,15.754a13.73,13.73,0,0,0-1.194.886,11.08,11.08,0,0,0-1.148.953L24,18.626l-1,1.107a25.809,25.809,0,0,0-1.839,2.335c-.57.819-1.054,1.7-1.584,2.537l-.121.188a2.013,2.013,0,0,1-3.4-2.141l.074-.107c.671-.919,1.282-1.866,2.013-2.745a31.205,31.205,0,0,1,2.268-2.516c.409-.389.805-.792,1.228-1.174l1.342-1.067a12.589,12.589,0,0,1,1.382-.986,16.106,16.106,0,0,1,1.429-.913,25.151,25.151,0,0,1,6.221-2.6,26.279,26.279,0,0,1,3.295-.671,19.817,19.817,0,0,1,3.429-.148,1.107,1.107,0,0,1,0,2.208Z" transform="translate(16.254 -19.362)"/><circle class="b" cx="2.349" cy="2.349" r="2.349" transform="translate(28.405 7.9)"/></g><g transform="translate(752.537 304.741) rotate(151)"><path class="a" d="M4.858,35.006c-6.278,14.791-6.5,29.57-.49,44.248,18.043,44.047,73.29,45.3,99.721,36.275a187.866,187.866,0,0,0,58.537-31.943q25.8-20.981,31.88-35.308,3.767-8.789-4.118-8.3-37.669,2.587-62.618-8a104.355,104.355,0,0,1-15.821-8.35c-5.023-3.2-8.212-5.3-9.631-6.278Q87.78,7.985,80.359,4.834A55.7,55.7,0,0,0,36.1,4.344,55.1,55.1,0,0,0,4.858,35.006Z" transform="translate(0 0)"/><path class="b" d="M42.61,25.61a34.027,34.027,0,0,1-5.462-.653,42.477,42.477,0,0,1-5.437-1.507,41.536,41.536,0,0,1-10.045-5.022,25.691,25.691,0,0,1-2.235-1.657,20.732,20.732,0,0,1-2.147-1.783l-2-1.934-1.871-2.072a48.291,48.291,0,0,1-3.44-4.37C8.909,5.081,8,3.436,7.013,1.867l-.226-.352A3.767,3.767,0,0,0,.433,5.521l.138.2c1.256,1.72,2.4,3.491,3.767,5.135a58.388,58.388,0,0,0,4.244,4.709c.766.728,1.507,1.482,2.3,2.2l2.511,2a23.555,23.555,0,0,0,2.587,1.846,30.137,30.137,0,0,0,2.674,1.708,47.06,47.06,0,0,0,11.64,4.872,49.17,49.17,0,0,0,6.165,1.256,37.079,37.079,0,0,0,6.416.276,2.072,2.072,0,0,0,0-4.131Z" transform="translate(19.869 78.065)"/><ellipse class="b" cx="4.395" cy="4.395" rx="4.395" ry="4.395" transform="translate(12.995 66.171)"/></g></g></svg>