<svg xmlns="http://www.w3.org/2000/svg" xmlns:xlink="http://www.w3.org/1999/xlink" width="475.813" height="347.567" viewBox="0 0 475.813 347.567"><defs><style>.a{fill:url(#a);}</style><linearGradient id="a" x1="0.5" x2="0.5" y2="1" gradientUnits="objectBoundingBox"><stop offset="0" stop-color="#e72c30"/><stop offset="1" stop-color="#e4e311"/></linearGradient></defs><path class="a" d="M419.676,76.972c13.8,32.523,14.3,65.018,1.077,97.292-39.673,96.851-161.151,99.612-219.266,79.761A413.078,413.078,0,0,1,72.775,183.789q-56.735-46.134-70.1-77.635Q-5.6,86.828,11.733,87.9q82.825,5.687,137.683-17.587A229.463,229.463,0,0,0,184.2,51.958c11.043-7.04,18.056-11.651,21.176-13.8q31.971-20.6,48.287-27.526a122.471,122.471,0,0,1,97.32-1.077A121.146,121.146,0,0,1,419.676,76.972Z" transform="matrix(0.978, 0.208, -0.208, 0.978, 54.859, 0)"/></svg>