<svg xmlns="http://www.w3.org/2000/svg" width="950.42" height="797.807" viewBox="0 0 950.42 797.807"><defs><style>.a{fill:#fff;}</style></defs><path class="a" d="M795.275,145.859c26.159,61.63,27.1,123.208,2.04,184.367-75.18,183.53-305.376,188.761-415.5,151.145a782.772,782.772,0,0,1-243.9-133.1Q30.4,260.853,5.074,201.159q-15.7-36.622,17.16-34.582,156.952,10.777,260.907-33.326A434.82,434.82,0,0,0,349.06,98.46c20.927-13.341,34.216-22.078,40.127-26.159q60.584-39.029,91.5-52.161A232.079,232.079,0,0,1,665.109,18.1,229.569,229.569,0,0,1,795.275,145.859Z" transform="translate(211.309) rotate(25)"/></svg>