<svg xmlns="http://www.w3.org/2000/svg" viewBox="0 0 52.18 69.53"><defs><style>.cls-1{fill:#818f8a;}.cls-1,.cls-10,.cls-12,.cls-2,.cls-8{stroke:#000;}.cls-1,.cls-10,.cls-11,.cls-12,.cls-13,.cls-2,.cls-4,.cls-6,.cls-8,.cls-9{stroke-miterlimit:10;}.cls-1,.cls-2,.cls-8{stroke-width:2px;}.cls-10,.cls-2,.cls-5{fill:#fff;}.cls-3{fill:#e5772e;}.cls-11,.cls-13,.cls-4,.cls-6,.cls-8,.cls-9{fill:none;}.cls-4,.cls-9{stroke:#fff;}.cls-10,.cls-11,.cls-12,.cls-13,.cls-4{stroke-width:1.5px;}.cls-6{stroke:#ffcf9f;stroke-width:1.3px;}.cls-7{fill:#ffcf9f;}.cls-11,.cls-13,.cls-8,.cls-9{stroke-linecap:round;}.cls-9{stroke-width:2.4px;}.cls-11{stroke:#ccc;}.cls-12{fill:#e52d1d;}.cls-13{stroke:#550e00;}</style></defs><title>lychee-tea</title><g id="Layer_2" data-name="Layer 2"><g id="Layer_1-2" data-name="Layer 1"><rect class="cls-1" x="14.7" y="-0.91" width="6.47" height="24.72" rx="3.23" transform="matrix(0.79, -0.61, 0.61, 0.79, -3.25, 13.39)"/><path class="cls-2" d="M6.46,14.07H40.59a1.67,1.67,0,0,1,1.67,1.67V52.36a16.1,16.1,0,0,1-16.1,16.1H20.38a16.1,16.1,0,0,1-16.1-16.1V16.25A2.18,2.18,0,0,1,6.46,14.07Z"/><path class="cls-3" d="M26.93,20.06c-4.4,0-5.58,2.45-13,2.45a16.18,16.18,0,0,1-5.19-1.19,1,1,0,0,0-1.36,1V51.71c0,6.89,5.69,13.47,12.72,13.47H26.7c7,0,12.72-6.58,12.72-13.47V25a1,1,0,0,0-.86-1C32,22.88,30.67,20.06,26.93,20.06Z"/><circle class="cls-4" cx="41.34" cy="6.39" r="2.5"/><circle class="cls-5" cx="47.83" cy="9.14" r="1.14"/><circle class="cls-5" cx="47.69" cy="2.64" r="1.14"/><rect class="cls-5" x="28.33" y="41.27" width="6.69" height="6.69" rx="3.34" transform="translate(12.55 -6.65) rotate(14.92)"/><rect class="cls-5" x="19.7" y="47.51" width="8.38" height="8.38" rx="4.19" transform="translate(-23.82 20.6) rotate(-32.1)"/><circle class="cls-6" cx="29.58" cy="32.24" r="1.52"/><circle class="cls-7" cx="26.58" cy="25.26" r="1.05"/><circle class="cls-7" cx="31.09" cy="26.01" r="1"/><circle class="cls-7" cx="34.04" cy="29.01" r="1"/><circle class="cls-7" cx="25.87" cy="29.57" r="0.9"/><line class="cls-8" x1="9.62" y1="68.46" x2="43.58" y2="68.46"/><line class="cls-8" x1="1" y1="68.46" x2="5.89" y2="68.46"/><line class="cls-8" x1="46.84" y1="68.46" x2="51.18" y2="68.46"/><circle class="cls-3" cx="22.16" cy="50.81" r="0.89"/><rect class="cls-5" x="19.24" y="37.7" width="8.31" height="8.31" rx="4.15" transform="translate(71.25 38.92) rotate(115.69)"/><circle class="cls-3" cx="25.33" cy="41.68" r="0.89"/><path class="cls-9" d="M11.25,53.65c0,2.48,1.83,5,4.78,6.22"/><line class="cls-9" x1="10.9" y1="46.95" x2="10.9" y2="49.35"/><circle class="cls-10" cx="40.39" cy="56.61" r="10"/><path class="cls-11" d="M37.33,50a7.43,7.43,0,0,1,3.06-.66A7.34,7.34,0,0,1,46,51.88"/><path class="cls-12" d="M28.84,52.83a11.88,11.88,0,0,0-.52,5.31,12.25,12.25,0,0,0,11,10.59,12.12,12.12,0,0,0,11.07-5.19,1.43,1.43,0,0,0-.57-2.1c-5.87-2.91-13.89-6.87-19-9.41A1.41,1.41,0,0,0,28.84,52.83Z"/><path class="cls-13" d="M32,58.66A9,9,0,0,0,39.79,65a7.81,7.81,0,0,0,4.14-.54"/><path class="cls-13" d="M35.85,58.66a5.29,5.29,0,0,0,5.67,3.16"/></g></g></svg>