<svg xmlns="http://www.w3.org/2000/svg" viewBox="0 0 31.82 47.74"><defs><style>.cls-1{fill:#f4a731;}.cls-1,.cls-2,.cls-6{stroke:#000;}.cls-1,.cls-2,.cls-3,.cls-6{stroke-miterlimit:10;stroke-width:2.5px;}.cls-2{fill:#ccc;}.cls-3,.cls-6{fill:none;}.cls-3{stroke:#fff;stroke-linecap:round;}.cls-4{fill:#fff;}.cls-5{fill:#f7831e;}</style></defs><title>cheesemayo-sauce</title><g id="Layer_2" data-name="Layer 2"><g id="Layer_1-2" data-name="Layer 1"><rect class="cls-1" x="1.57" y="8.6" width="29" height="37.9" rx="3.55"/><rect class="cls-2" x="1.25" y="1.25" width="29" height="7.1" rx="3.55"/><line class="cls-3" x1="7.73" y1="25.38" x2="7.73" y2="32.78"/><line class="cls-3" x1="7.73" y1="20.47" x2="7.73" y2="21.6"/><circle class="cls-4" cx="16.07" cy="28.48" r="0.94"/><circle class="cls-4" cx="22.8" cy="29.74" r="1.26"/><circle class="cls-4" cx="23.78" cy="22.01" r="0.98"/><circle class="cls-4" cx="17.87" cy="18.01" r="0.86"/><circle class="cls-4" cx="19.43" cy="36.87" r="0.7"/><path class="cls-5" d="M1.57,36v7a3.55,3.55,0,0,0,3.56,3.55H27a3.55,3.55,0,0,0,3.55-3.55V31.49A64,64,0,0,1,1.57,36Z"/><rect class="cls-6" x="1.57" y="8.6" width="29" height="37.9" rx="3.55"/></g></g></svg>