<svg width="45" height="43" viewBox="0 0 45 43" fill="none" xmlns="http://www.w3.org/2000/svg">
<g clip-path="url(#clip0)">
<path d="M35.25 19.58C34.6778 19.8374 34.0574 19.9704 33.43 19.97C32.3078 19.9942 31.2216 19.5735 30.4085 18.7998C29.5954 18.026 29.1214 16.962 29.09 15.84C29.09 13.69 30.89 12.34 32.64 11.84H20.48C19.5379 12.0139 18.6841 12.5061 18.0615 13.2342C17.4389 13.9624 17.0853 14.8823 17.06 15.84C17.0717 16.399 17.1936 16.9503 17.4186 17.4621C17.6437 17.9739 17.9676 18.4363 18.3717 18.8228C18.7758 19.2092 19.2522 19.5121 19.7735 19.7141C20.2949 19.9162 20.851 20.0133 21.41 20C22.1697 19.9954 22.9161 19.7994 23.58 19.43L35.25 19.58Z" fill="#BF6831"/>
<path d="M21.06 11.81L16.22 4.79353e-05H27C27.2442 -0.0020993 27.4837 0.0679349 27.6883 0.201363C27.8929 0.334791 28.0535 0.525669 28.15 0.750048L32.67 11.81H21.06Z" fill="#BF6831"/>
<path d="M23.58 19.4C23.0517 19.6995 22.4674 19.8869 21.8635 19.9506C21.2596 20.0142 20.6491 19.9527 20.07 19.77C19.3521 19.5586 18.7034 19.1601 18.1903 18.6154C17.6772 18.0706 17.3181 17.3992 17.15 16.67C17.046 16.1319 17.0498 15.5786 17.1613 15.042C17.2728 14.5054 17.4898 13.9963 17.7995 13.5442C18.1093 13.0921 18.5057 12.706 18.9659 12.4083C19.426 12.1106 19.9407 11.9073 20.48 11.81H21.06L16.22 0L6.57 24.57C7.56021 24.9309 8.39018 25.6316 8.91209 26.5473C9.43401 27.4629 9.61399 28.5341 9.42 29.57C9.18603 30.5922 8.58908 31.4947 7.74 32.11C7.13866 32.6378 6.40746 32.9957 5.62176 33.1469C4.83606 33.298 4.02426 33.237 3.27 32.97L0.0600007 41.11C0.00817021 41.2554 -0.00663668 41.4115 0.0169159 41.5641C0.0404685 41.7167 0.101639 41.861 0.19491 41.984C0.28818 42.1071 0.410615 42.2049 0.551169 42.2688C0.691723 42.3327 0.845972 42.3606 1 42.35H33.56L24.16 19.41L23.58 19.4Z" fill="#E7AB44"/>
<path d="M16.25 3.74L19.15 10.82C17.9564 11.2731 16.962 12.1345 16.3433 13.2512C15.7245 14.3679 15.5214 15.6678 15.77 16.92C15.998 17.8809 16.4761 18.7645 17.1557 19.481C17.8354 20.1975 18.6925 20.7216 19.64 21C20.2132 21.178 20.8098 21.269 21.41 21.27C22.0566 21.2678 22.6984 21.1597 23.31 20.95L31.51 40.95H1.59L4.16 34.5C4.37 34.5 4.57 34.5 4.78 34.5C6.17892 34.4741 7.52826 33.9774 8.61 33.09C9.72334 32.2833 10.4996 31.0939 10.79 29.75C10.9873 28.6529 10.8563 27.5219 10.4133 26.499C9.97031 25.4761 9.23514 24.6067 8.3 24L16.3 3.78L16.25 3.74ZM16.3 0.04L6.57 24.57C7.56021 24.9309 8.39018 25.6316 8.91209 26.5473C9.43401 27.4629 9.61399 28.5341 9.42 29.57C9.18603 30.5922 8.58908 31.4947 7.74 32.11C6.89727 32.815 5.83857 33.2103 4.74 33.23C4.2259 33.2258 3.7159 33.138 3.23 32.97L0.0600007 41.11C0.00817021 41.2554 -0.00663668 41.4115 0.0169159 41.5641C0.0404685 41.7167 0.101639 41.861 0.19491 41.984C0.28818 42.1071 0.410615 42.2049 0.551169 42.2688C0.691723 42.3327 0.845972 42.3606 1 42.35H33.56L24.16 19.41H23.58C22.9161 19.7794 22.1697 19.9754 21.41 19.98C20.9559 19.98 20.5043 19.9126 20.07 19.78C19.3521 19.5686 18.7034 19.1701 18.1903 18.6254C17.6772 18.0806 17.3181 17.4092 17.15 16.68C17.046 16.1419 17.0498 15.5886 17.1613 15.052C17.2728 14.5154 17.4898 14.0063 17.7995 13.5542C18.1093 13.1021 18.5057 12.716 18.9659 12.4183C19.426 12.1206 19.9407 11.9173 20.48 11.82H21.06L16.22 0L16.3 0.04Z" fill="black"/>
<path d="M34.25 21.06C31.5 21.06 28.38 18.76 28.39 15.85C28.3941 14.6906 28.7566 13.5608 29.428 12.6156C30.0994 11.6703 31.0466 10.9558 32.14 10.57L32.64 11.81C31.8211 12.1179 31.1126 12.6629 30.605 13.3753C30.0973 14.0878 29.8136 14.9355 29.79 15.81C29.79 17.73 32.26 19.71 34.25 19.71C34.7743 19.7083 35.2922 19.5959 35.77 19.38L36.26 20.63C35.6299 20.9199 34.9435 21.0667 34.25 21.06Z" fill="black"/>
<path d="M36 19.92L44.73 41.24C44.7781 41.3668 44.7939 41.5035 44.7762 41.6379C44.7585 41.7723 44.7077 41.9002 44.6285 42.0101C44.5492 42.1201 44.4439 42.2087 44.322 42.268C44.2001 42.3273 44.0654 42.3555 43.93 42.35H34.14C33.9699 42.3533 33.8028 42.3056 33.6602 42.2129C33.5175 42.1202 33.406 41.9868 33.34 41.83L24.62 20.52C24.5719 20.3933 24.5561 20.2566 24.5738 20.1222C24.5915 19.9878 24.6423 19.8599 24.7215 19.7499C24.8008 19.6399 24.9061 19.5513 25.028 19.492C25.1499 19.4327 25.2846 19.4045 25.42 19.41H35.16C35.3356 19.3976 35.5107 19.44 35.6612 19.5313C35.8116 19.6227 35.93 19.7585 36 19.92Z" fill="#BF6831"/>
<path d="M35.75 19.4H34.47L43.25 41.08H33L33.61 42.35H44C44.122 42.3531 44.2429 42.3267 44.3525 42.2731C44.4622 42.2196 44.5573 42.1404 44.6299 42.0423C44.7025 41.9443 44.7504 41.8301 44.7695 41.7096C44.7887 41.5891 44.7786 41.4658 44.74 41.35L35.75 19.4Z" fill="black"/>
<path d="M28.16 0.870022C28.0515 0.608104 27.8665 0.384985 27.6293 0.229785C27.392 0.0745855 27.1135 -0.00548572 26.83 2.20662e-05H16.22L17.06 2.07002H27.3L31.46 12.19L32.64 11.81L28.16 0.870022Z" fill="black"/>
<path d="M35.7 19.4H23.7V20.73H35.7V19.4Z" fill="black"/>
<path d="M31.83 10.48H20.06V11.81H31.83V10.48Z" fill="black"/>
<path d="M15.91 29.37C17.3515 29.37 18.52 28.2597 18.52 26.89C18.52 25.5204 17.3515 24.41 15.91 24.41C14.4685 24.41 13.3 25.5204 13.3 26.89C13.3 28.2597 14.4685 29.37 15.91 29.37Z" fill="#BF6831"/>
<path d="M15.91 25.56C16.1726 25.5718 16.4259 25.6605 16.6384 25.8152C16.8509 25.9698 17.0133 26.1835 17.1053 26.4298C17.1972 26.676 17.2148 26.9438 17.1557 27.1999C17.0966 27.456 16.9635 27.6891 16.7729 27.8702C16.5823 28.0512 16.3428 28.1722 16.0839 28.2181C15.8251 28.264 15.5586 28.2327 15.3174 28.1283C15.0762 28.0238 14.8711 27.8507 14.7275 27.6305C14.5839 27.4104 14.5083 27.1528 14.51 26.89C14.5205 26.5284 14.6736 26.1856 14.9358 25.9364C15.1981 25.6872 15.5483 25.5519 15.91 25.56ZM15.91 24.42C15.4254 24.4454 14.959 24.6125 14.5684 24.9004C14.1778 25.1883 13.8803 25.5845 13.7127 26.0399C13.5451 26.4953 13.5147 26.9898 13.6254 27.4623C13.7361 27.9347 13.9829 28.3643 14.3354 28.6979C14.6878 29.0314 15.1303 29.2542 15.6082 29.3387C16.086 29.4232 16.5781 29.3657 17.0236 29.1732C17.469 28.9808 17.8482 28.6619 18.1142 28.256C18.3802 27.8502 18.5213 27.3752 18.52 26.89C18.5109 26.5564 18.4362 26.2279 18.3001 25.9232C18.164 25.6184 17.9692 25.3435 17.7268 25.1142C17.4844 24.8848 17.1992 24.7054 16.8875 24.5863C16.5757 24.4672 16.2436 24.4107 15.91 24.42Z" fill="black"/>
<path d="M21.28 37.63C22.6221 37.63 23.71 36.5958 23.71 35.32C23.71 34.0442 22.6221 33.01 21.28 33.01C19.9379 33.01 18.85 34.0442 18.85 35.32C18.85 36.5958 19.9379 37.63 21.28 37.63Z" fill="#BF6831"/>
<path d="M21.28 34.1501C21.5085 34.1618 21.7285 34.2402 21.9129 34.3757C22.0972 34.5112 22.2378 34.6978 22.3172 34.9123C22.3967 35.1269 22.4114 35.36 22.3597 35.5829C22.308 35.8057 22.1921 36.0086 22.0264 36.1662C21.8606 36.3239 21.6523 36.4295 21.4271 36.47C21.2019 36.5105 20.9698 36.4841 20.7595 36.3941C20.5492 36.304 20.3699 36.1543 20.2438 35.9634C20.1177 35.7725 20.0503 35.5488 20.05 35.3201C20.0539 35.1625 20.0888 35.0072 20.1527 34.8631C20.2167 34.719 20.3084 34.5889 20.4226 34.4802C20.5368 34.3715 20.6713 34.2865 20.8184 34.2298C20.9656 34.1732 21.1224 34.1461 21.28 34.1501ZM21.28 33.0001C20.8265 33.0216 20.3892 33.1757 20.0224 33.4434C19.6556 33.711 19.3755 34.0804 19.2166 34.5058C19.0578 34.9312 19.0272 35.3938 19.1288 35.8363C19.2303 36.2789 19.4595 36.6819 19.7879 36.9955C20.1163 37.309 20.5295 37.5193 20.9763 37.6003C21.4231 37.6812 21.8838 37.6293 22.3014 37.4509C22.7189 37.2726 23.075 36.9756 23.3254 36.5968C23.5758 36.218 23.7095 35.7741 23.71 35.3201C23.6943 34.6905 23.4297 34.0929 22.9742 33.6581C22.5188 33.2232 21.9096 32.9866 21.28 33.0001Z" fill="black"/>
<path d="M12.23 37.63C13.086 37.63 13.78 36.9719 13.78 36.16C13.78 35.3481 13.086 34.69 12.23 34.69C11.374 34.69 10.68 35.3481 10.68 36.16C10.68 36.9719 11.374 37.63 12.23 37.63Z" fill="#BF6831"/>
<path d="M12.23 38.11C11.8344 38.11 11.4478 37.9927 11.1189 37.773C10.79 37.5532 10.5336 37.2409 10.3822 36.8754C10.2309 36.51 10.1913 36.1078 10.2684 35.7199C10.3456 35.3319 10.5361 34.9755 10.8158 34.6958C11.0955 34.4161 11.4519 34.2256 11.8398 34.1485C12.2278 34.0713 12.6299 34.1109 12.9954 34.2623C13.3608 34.4137 13.6732 34.67 13.8929 34.9989C14.1127 35.3278 14.23 35.7145 14.23 36.11C14.23 36.6405 14.0193 37.1492 13.6442 37.5243C13.2691 37.8993 12.7604 38.11 12.23 38.11ZM12.23 35.11C12.0322 35.11 11.8389 35.1687 11.6744 35.2786C11.51 35.3885 11.3818 35.5446 11.3061 35.7274C11.2304 35.9101 11.2106 36.1112 11.2492 36.3051C11.2878 36.4991 11.383 36.6773 11.5229 36.8172C11.6627 36.957 11.8409 37.0522 12.0349 37.0908C12.2289 37.1294 12.43 37.1096 12.6127 37.0339C12.7954 36.9582 12.9516 36.8301 13.0615 36.6656C13.1714 36.5012 13.23 36.3078 13.23 36.11C13.2172 35.8536 13.1062 35.6119 12.92 35.435C12.7338 35.2582 12.4868 35.1597 12.23 35.16V35.11Z" fill="black"/>
<path d="M34.4 36.53C34.2288 36.5325 34.0608 36.4833 33.9181 36.3887C33.7753 36.2942 33.6644 36.1587 33.6 36L33.17 34.91C33.1031 34.7124 33.117 34.4964 33.2088 34.309C33.3006 34.1217 33.4628 33.9782 33.66 33.91C33.8687 33.8329 34.099 33.8386 34.3036 33.926C34.5082 34.0134 34.6715 34.1759 34.76 34.38L35.19 35.47C35.2569 35.6676 35.243 35.8837 35.1512 36.071C35.0594 36.2584 34.8972 36.4018 34.7 36.47C34.6048 36.5091 34.5029 36.5295 34.4 36.53Z" fill="white"/>
<path d="M33.16 33.42C32.9902 33.4219 32.8238 33.3723 32.6827 33.2776C32.5417 33.183 32.4327 33.0479 32.37 32.89L29.37 25.25C29.3371 25.1515 29.3239 25.0475 29.3312 24.944C29.3386 24.8404 29.3662 24.7393 29.4127 24.6464C29.4591 24.5535 29.5234 24.4707 29.6019 24.4027C29.6804 24.3347 29.7715 24.2828 29.87 24.25C30.0771 24.1707 30.307 24.1754 30.5106 24.2633C30.7143 24.3511 30.8755 24.515 30.96 24.72L33.96 32.36C34.0237 32.559 34.0071 32.775 33.9137 32.9619C33.8202 33.1487 33.6574 33.2916 33.46 33.36C33.365 33.3999 33.263 33.4203 33.16 33.42Z" fill="white"/>
<path d="M12.25 20.0901C12.1617 20.0761 12.0769 20.0455 12 20.0001C11.9006 19.9683 11.8084 19.9172 11.7289 19.8496C11.6493 19.782 11.5839 19.6994 11.5365 19.6064C11.4891 19.5134 11.4605 19.4119 11.4526 19.3079C11.4446 19.2038 11.4573 19.0992 11.49 19.0001L13 15.0001C13.0846 14.7948 13.2453 14.6303 13.4485 14.5408C13.6516 14.4514 13.8815 14.4439 14.09 14.5201C14.2874 14.5884 14.4502 14.7313 14.5437 14.9182C14.6371 15.1051 14.6537 15.3211 14.59 15.5201L13.03 19.5201C12.972 19.6822 12.8667 19.8233 12.7276 19.9249C12.5885 20.0266 12.4221 20.0841 12.25 20.0901Z" fill="white"/>
<path d="M14.71 13.72C14.6113 13.7188 14.5134 13.702 14.42 13.67C14.2207 13.6036 14.0556 13.4616 13.9602 13.2745C13.8647 13.0874 13.8467 12.8703 13.91 12.67L14.48 11.2C14.5646 10.9948 14.7253 10.8302 14.9285 10.7408C15.1316 10.6513 15.3615 10.6439 15.57 10.72C15.7693 10.7864 15.9344 10.9284 16.0298 11.1155C16.1253 11.3026 16.1433 11.5197 16.08 11.72L15.51 13.19C15.4456 13.3486 15.3347 13.4841 15.1919 13.5787C15.0492 13.6733 14.8812 13.7225 14.71 13.72Z" fill="white"/>
</g>
<defs>
<clipPath id="clip0">
<rect width="44.77" height="42.35" fill="white"/>
</clipPath>
</defs>
</svg>
