<svg xmlns="http://www.w3.org/2000/svg" viewBox="0 0 65.86 86.71"><defs><style>.cls-1{fill:#e89326;}.cls-1,.cls-4,.cls-5,.cls-6{stroke:#000;stroke-width:2px;}.cls-1,.cls-10,.cls-2,.cls-4,.cls-9{stroke-miterlimit:10;}.cls-1,.cls-11,.cls-12,.cls-7,.cls-8{isolation:isolate;}.cls-10,.cls-2,.cls-4,.cls-6,.cls-9{fill:none;}.cls-10,.cls-2,.cls-9{stroke:#fff;}.cls-2{stroke-width:1.5px;}.cls-12,.cls-3,.cls-5{fill:#fff;}.cls-10,.cls-4,.cls-5,.cls-6,.cls-9{stroke-linecap:round;}.cls-5,.cls-6{stroke-linejoin:round;}.cls-7{fill:#85c044;}.cls-8{fill:#40672d;}.cls-9{stroke-width:2.4px;}.cls-10{stroke-width:2.2px;}.cls-11{fill:#558a44;}</style></defs><title>ice-greenchy</title><g id="Layer_2" data-name="Layer 2"><g id="Layer_1-2" data-name="Layer 1"><rect class="cls-1" x="19.73" y="-1.14" width="7.23" height="27.64" rx="3.62" transform="translate(-2.87 16.97) rotate(-37.8)"/><circle class="cls-2" cx="56.92" cy="8.01" r="2.5"/><circle class="cls-3" cx="63.41" cy="10.76" r="1.14"/><circle class="cls-3" cx="63.27" cy="4.26" r="1.14"/><line class="cls-4" x1="16.46" y1="85.71" x2="50.42" y2="85.71"/><line class="cls-4" x1="7.84" y1="85.71" x2="12.73" y2="85.71"/><line class="cls-4" x1="53.68" y1="85.71" x2="58.02" y2="85.71"/><path class="cls-3" d="M43.72,85.71H22.14a8.08,8.08,0,0,1-7.85-7l-7.91-51H59.49l-7.92,51A8.08,8.08,0,0,1,43.72,85.71Z"/><path class="cls-5" d="M30.91,27.75H1V26.37a9.49,9.49,0,0,1,9.49-9.49H55.38a9.49,9.49,0,0,1,9.48,9.49v1.38H56.15"/><line class="cls-5" x1="48.09" y1="27.75" x2="36.93" y2="27.75"/><path class="cls-6" d="M59.49,27.75l-7.92,51a8.08,8.08,0,0,1-7.85,7H22.14a8.08,8.08,0,0,1-7.85-7l-7.91-51"/><path class="cls-7" d="M48.09,32.81c-6.57,0-11.71,6.37-20.89,6.37-8.11,0-11-2.39-15.93-4.67L17.54,76A6.73,6.73,0,0,0,24,81.88H41.84A6.72,6.72,0,0,0,48.32,76l6.17-40.77A11.1,11.1,0,0,0,48.09,32.81Z"/><path class="cls-8" d="M48.32,74C33.61,74,29.5,67,22.79,67a9.59,9.59,0,0,0-6.11,2.25L17.54,76A6.73,6.73,0,0,0,24,81.88H41.84A6.72,6.72,0,0,0,48.32,76l.3-2Z"/><line class="cls-9" x1="20.35" y1="65.87" x2="20.96" y2="69.52"/><line class="cls-10" x1="17.4" y1="48.27" x2="19.65" y2="62"/><rect class="cls-11" x="39.82" y="41.54" width="8.28" height="8.28" rx="1.16" transform="translate(98.84 13.94) rotate(103.87)"/><rect class="cls-11" x="37.65" y="51.78" width="6.59" height="6.59" rx="0.78" transform="translate(88.56 5.65) rotate(80.56)"/><rect class="cls-11" x="28.99" y="45.12" width="8.22" height="8.22" rx="0.83" transform="translate(53.93 -6.31) rotate(54.47)"/><circle class="cls-3" cx="34.67" cy="70.95" r="2.75"/><circle class="cls-12" cx="31.67" cy="61.97" r="1.5"/><circle class="cls-12" cx="36.18" cy="62.72" r="1"/><circle class="cls-12" cx="40.13" cy="66.72" r="1.75"/><circle class="cls-12" cx="30.96" cy="66.27" r="0.9"/></g></g></svg>