<svg xmlns="http://www.w3.org/2000/svg" viewBox="0 0 52.18 69.46"><defs><style>.cls-1{fill:#914d86;}.cls-1,.cls-10,.cls-11,.cls-13,.cls-14,.cls-2{stroke:#000;}.cls-1,.cls-10,.cls-11,.cls-13,.cls-14,.cls-15,.cls-2,.cls-4,.cls-5,.cls-6,.cls-9{stroke-miterlimit:10;}.cls-1,.cls-10,.cls-2{stroke-width:2px;}.cls-2,.cls-7{fill:#fff;}.cls-3{fill:#e84e22;}.cls-10,.cls-13,.cls-14,.cls-15,.cls-4,.cls-5,.cls-6,.cls-9{fill:none;}.cls-4,.cls-5,.cls-6{stroke:#fff;}.cls-10,.cls-14,.cls-15,.cls-4,.cls-5{stroke-linecap:round;}.cls-4{stroke-width:2.4px;}.cls-5{stroke-width:2.2px;}.cls-6{stroke-width:1.5px;}.cls-8{fill:#ffcf9f;}.cls-9{stroke:#ffcf9f;stroke-width:1.3px;}.cls-11{fill:#66bf3c;}.cls-12{fill:#66723c;}.cls-15{stroke:#c5ff9f;}</style></defs><title>ice-tea</title><g id="Layer_2" data-name="Layer 2"><g id="Layer_1-2" data-name="Layer 1"><rect class="cls-1" x="14.7" y="-0.91" width="6.47" height="24.72" rx="3.23" transform="translate(-3.25 13.39) rotate(-37.8)"/><path class="cls-2" d="M6.46,14.07H40.59a1.67,1.67,0,0,1,1.67,1.67V52.36a16.1,16.1,0,0,1-16.1,16.1H20.38a16.1,16.1,0,0,1-16.1-16.1V16.25a2.18,2.18,0,0,1,2.18-2.18Z"/><path class="cls-3" d="M26.93,20.06c-4.4,0-5.58,2.45-13,2.45a16.18,16.18,0,0,1-5.19-1.19,1,1,0,0,0-1.36,1V51.71c0,6.89,5.69,13.47,12.72,13.47H26.7c7,0,12.72-6.58,12.72-13.47V25a1,1,0,0,0-.86-1C32,22.88,30.67,20.06,26.93,20.06Z"/><path class="cls-4" d="M12,53.07a5.89,5.89,0,0,0,2.73,5.26"/><line class="cls-4" x1="11.64" y1="46.22" x2="11.66" y2="48.92"/><line class="cls-5" x1="11.57" y1="32.37" x2="11.57" y2="42.29"/><circle class="cls-6" cx="41.34" cy="6.39" r="2.5"/><circle class="cls-7" cx="47.83" cy="9.14" r="1.14"/><circle class="cls-7" cx="47.69" cy="2.64" r="1.14"/><rect class="cls-8" x="19.22" y="39.36" width="6.61" height="6.61" rx="1.16" transform="matrix(1, -0.09, 0.09, 1, -3.69, 2.17)"/><rect class="cls-8" x="28.04" y="42.94" width="5.26" height="5.26" rx="0.78" transform="matrix(0.97, 0.26, -0.26, 0.97, 12.76, -6.36)"/><rect class="cls-8" x="21.61" y="47.42" width="6.56" height="6.56" rx="0.83" transform="translate(-23.14 20.98) rotate(-32.1)"/><circle class="cls-9" cx="29.58" cy="32.24" r="1.52"/><circle class="cls-8" cx="26.58" cy="25.26" r="1.05"/><circle class="cls-8" cx="31.09" cy="26.01" r="1"/><circle class="cls-8" cx="34.04" cy="29.01" r="1"/><circle class="cls-8" cx="25.87" cy="29.57" r="0.9"/><line class="cls-10" x1="9.62" y1="68.46" x2="43.58" y2="68.46"/><line class="cls-10" x1="1" y1="68.46" x2="5.89" y2="68.46"/><line class="cls-10" x1="46.84" y1="68.46" x2="51.18" y2="68.46"/><path class="cls-11" d="M40.44,48.33a1.11,1.11,0,1,1,1.18,1.12"/><path class="cls-11" d="M43.49,49.79c1.3.35,4.56,1.45,4.55,5,0,1.33,0,3.13-3.28,6-1,.88-8.91,4.76-13.25,7.26A13.38,13.38,0,0,1,33,49.92c1.68-1.53,4.07-2.66,6.21-1.88.95.34.85.54,1.73,1Z"/><path class="cls-12" d="M28.92,62.47a13.53,13.53,0,0,0,2.59,5.61c4.34-2.5,12.25-6.38,13.25-7.26.23-.2.44-.4.63-.59A37.42,37.42,0,0,0,28.92,62.47Z"/><path class="cls-13" d="M43.49,49.79c1.3.35,4.56,1.45,4.55,5,0,1.33,0,3.13-3.28,6-1,.88-8.91,4.76-13.25,7.26A13.38,13.38,0,0,1,33,49.92c1.68-1.53,4.07-2.66,6.21-1.88.95.34.85.54,1.73,1Z"/><path class="cls-13" d="M31.83,68.36c-1.33-3.41.24-7.28,2.41-10.23s5-5.48,6.59-8.76"/><path class="cls-14" d="M35.48,50.66,37.61,54"/><path class="cls-14" d="M37.61,54c2.11-.48,4,.14,6.13.95"/><path class="cls-14" d="M35.15,56.31l-2.09-2.77"/><path class="cls-14" d="M35.48,56.8a12.49,12.49,0,0,1,4,1.13"/><path class="cls-14" d="M32.43,61.06a5.36,5.36,0,0,1,3.72.2"/><path class="cls-14" d="M32.39,60.89l-2.13-2.44"/><path class="cls-15" d="M42.68,51.65a3.63,3.63,0,0,1,1.43,6.64"/></g></g></svg>