<svg xmlns="http://www.w3.org/2000/svg" viewBox="0 0 52.72 69.46"><defs><style>.cls-1{fill:#7ac072;}.cls-1,.cls-13,.cls-2,.cls-8{stroke:#000;}.cls-1,.cls-10,.cls-13,.cls-2,.cls-4,.cls-5,.cls-6,.cls-8{stroke-miterlimit:10;}.cls-1,.cls-2,.cls-8{stroke-width:2px;}.cls-2,.cls-7{fill:#fff;}.cls-3{fill:#ef7c2f;}.cls-10,.cls-13,.cls-4,.cls-5,.cls-6,.cls-8{fill:none;}.cls-10,.cls-4,.cls-5,.cls-6{stroke:#fff;}.cls-10,.cls-13,.cls-4,.cls-5,.cls-8{stroke-linecap:round;}.cls-4{stroke-width:2.4px;}.cls-5{stroke-width:2.2px;}.cls-6{stroke-width:1.5px;}.cls-9{fill:#ffcf9f;}.cls-11{fill:#f9e951;}.cls-12{fill:#ccc51e;}</style></defs><title>lemon-tea</title><g id="Layer_2" data-name="Layer 2"><g id="Layer_1-2" data-name="Layer 1"><rect class="cls-1" x="14.7" y="-0.91" width="6.47" height="24.72" rx="3.23" transform="translate(-3.25 13.39) rotate(-37.8)"/><path class="cls-2" d="M6.46,14.07H40.59a1.67,1.67,0,0,1,1.67,1.67V52.36a16.1,16.1,0,0,1-16.1,16.1H20.38a16.1,16.1,0,0,1-16.1-16.1V16.25A2.18,2.18,0,0,1,6.46,14.07Z"/><path class="cls-3" d="M26.93,20.06c-4.4,0-5.58,2.45-13,2.45a16.18,16.18,0,0,1-5.19-1.19,1,1,0,0,0-1.36,1V51.71c0,6.89,5.69,13.47,12.72,13.47H26.7c7,0,12.72-6.58,12.72-13.47V25a1,1,0,0,0-.86-1C32,22.88,30.67,20.06,26.93,20.06Z"/><path class="cls-4" d="M12,53.07a5.89,5.89,0,0,0,2.73,5.26"/><line class="cls-4" x1="11.64" y1="46.22" x2="11.66" y2="48.92"/><line class="cls-5" x1="11.57" y1="32.37" x2="11.57" y2="42.29"/><circle class="cls-6" cx="41.34" cy="6.39" r="2.5"/><circle class="cls-7" cx="47.83" cy="9.14" r="1.14"/><circle class="cls-7" cx="47.69" cy="2.64" r="1.14"/><line class="cls-8" x1="9.62" y1="68.46" x2="43.58" y2="68.46"/><line class="cls-8" x1="1" y1="68.46" x2="5.89" y2="68.46"/><line class="cls-8" x1="46.84" y1="68.46" x2="51.18" y2="68.46"/><rect class="cls-9" x="20.14" y="33.8" width="8.06" height="8.06" rx="1.16" transform="translate(31.24 -6.5) rotate(41.63)"/><rect class="cls-9" x="28.2" y="43.34" width="6.9" height="6.9" rx="0.78"/><rect class="cls-9" x="18.7" y="47.51" width="5.47" height="5.47" rx="0.83" transform="translate(-29.25 29.87) rotate(-45)"/><rect class="cls-9" x="25.7" y="54.51" width="4.98" height="4.98" rx="0.83" transform="translate(-32.05 36.63) rotate(-45)"/><circle class="cls-10" cx="24.99" cy="27.34" r="1.52"/><circle class="cls-7" cx="20.18" cy="28.49" r="0.95"/><circle class="cls-7" cx="30.7" cy="29.24" r="0.95"/><circle class="cls-7" cx="32.65" cy="35.03" r="0.95"/><circle class="cls-7" cx="23.47" cy="31.79" r="0.95"/><circle class="cls-7" cx="28.2" cy="31.79" r="1.5"/><path class="cls-11" d="M38.35,68.43a10.94,10.94,0,0,1-3.68-.62,1.22,1.22,0,0,0-.41-.07.84.84,0,0,0-.27,0,9,9,0,0,1-2.29.34,1.85,1.85,0,0,1-1.28-.34,5,5,0,0,1-.87-3.72,1.87,1.87,0,0,0-.08-.66C28.3,60,28.16,53,32.77,48.86a13.3,13.3,0,0,1,8.84-3.52,10.71,10.71,0,0,1,4.92,1.16.9.9,0,0,0,.41.11.58.58,0,0,0,.19,0,7.72,7.72,0,0,1,1.81-.29,1.71,1.71,0,0,1,1.06.29c.35.29.79,1,.54,3.5a1.07,1.07,0,0,0,.12.6c2.25,4.52.83,10.37-3.47,14.23a13.3,13.3,0,0,1-8.84,3.52Z"/><path d="M41.61,45.84a10.12,10.12,0,0,1,4.69,1.1,1.33,1.33,0,0,0,.64.17,1.65,1.65,0,0,0,.32,0,6.68,6.68,0,0,1,1.68-.28,1.19,1.19,0,0,1,.74.18c.5.4.49,1.78.36,3.06a1.55,1.55,0,0,0,.17.87c2.1,4.21.84,9.87-3.36,13.64a12.83,12.83,0,0,1-8.5,3.39,10.27,10.27,0,0,1-3.51-.59,1.65,1.65,0,0,0-.58-.1,1.4,1.4,0,0,0-.41.06,8.86,8.86,0,0,1-2.15.32,1.5,1.5,0,0,1-.94-.21,4.67,4.67,0,0,1-.71-3.3,2.63,2.63,0,0,0-.11-.88c-1.19-3.46-1.16-10.12,3.16-14a12.85,12.85,0,0,1,8.51-3.39m0-1v0a13.8,13.8,0,0,0-9.18,3.64C27.64,52.79,27.78,60,29,63.56a1.47,1.47,0,0,1,.06.45c-.15,1.4.16,3.32,1,4.13a2.26,2.26,0,0,0,1.62.48,9.66,9.66,0,0,0,2.43-.36.27.27,0,0,1,.13,0,.67.67,0,0,1,.24,0,11.44,11.44,0,0,0,3.85.65,13.78,13.78,0,0,0,9.17-3.64c4.47-4,5.94-10.11,3.59-14.83a.58.58,0,0,1-.07-.33c.21-2.18,0-3.36-.73-3.94a2.13,2.13,0,0,0-1.37-.4A7.67,7.67,0,0,0,47,46.1h-.07a.45.45,0,0,1-.18,0,11.17,11.17,0,0,0-5.15-1.22Z"/><path class="cls-12" d="M34.84,67.34c3.54,1.9,8.51.35,12-2.8,4.2-3.77,5.37-7.66,4-12.59,0-.11-.34-.67-.34-.67S49.31,63.57,34.84,67.34Z"/><path d="M41.61,45.84a10.12,10.12,0,0,1,4.69,1.1,1.33,1.33,0,0,0,.64.17,1.65,1.65,0,0,0,.32,0,6.68,6.68,0,0,1,1.68-.28,1.19,1.19,0,0,1,.74.18c.5.4.49,1.78.36,3.06a1.55,1.55,0,0,0,.17.87c2.1,4.21.84,9.87-3.36,13.64a12.83,12.83,0,0,1-8.5,3.39,10.27,10.27,0,0,1-3.51-.59,1.65,1.65,0,0,0-.58-.1,1.4,1.4,0,0,0-.41.06,8.86,8.86,0,0,1-2.15.32,1.5,1.5,0,0,1-.94-.21,4.67,4.67,0,0,1-.71-3.3,2.63,2.63,0,0,0-.11-.88c-1.19-3.46-1.16-10.12,3.16-14a12.85,12.85,0,0,1,8.51-3.39m0-1.5v0a14.31,14.31,0,0,0-9.51,3.77c-5,4.47-4.83,11.94-3.58,15.61a.69.69,0,0,1,0,.25c-.16,1.54.19,3.61,1.19,4.54a2.81,2.81,0,0,0,2,.61,10.26,10.26,0,0,0,2.57-.38h.06a12,12,0,0,0,4,.68,14.31,14.31,0,0,0,9.51-3.77c4.63-4.16,6.15-10.5,3.69-15.43,0,0,0,0,0,0,.23-2.37,0-3.68-.92-4.38a2.61,2.61,0,0,0-1.68-.51,8.22,8.22,0,0,0-2,.31,11.47,11.47,0,0,0-5.32-1.26Z"/><path class="cls-13" d="M34,67.44a3.62,3.62,0,0,1-1.79-1.26"/></g></g></svg>