<svg xmlns="http://www.w3.org/2000/svg" viewBox="0 0 52.18 70.36"><defs><style>.cls-1,.cls-10,.cls-3,.cls-5,.cls-8,.cls-9{fill:none;}.cls-1,.cls-8{stroke:#fff;}.cls-1,.cls-10,.cls-3,.cls-5,.cls-7,.cls-8,.cls-9{stroke-miterlimit:10;}.cls-1,.cls-10,.cls-5,.cls-7,.cls-8{stroke-width:1.5px;}.cls-2{fill:#fff;}.cls-3,.cls-5,.cls-7,.cls-9{stroke:#000;}.cls-10,.cls-3,.cls-5,.cls-8{stroke-linecap:round;}.cls-3{stroke-width:2px;}.cls-4{fill:#79e8e2;}.cls-6{fill:#75bbc2;}.cls-7{fill:#457eb4;}.cls-9{stroke-width:1.3px;}.cls-10{stroke:#c9fff9;}</style></defs><title>mineral-water</title><g id="Layer_2" data-name="Layer 2"><g id="Layer_1-2" data-name="Layer 1"><circle class="cls-1" cx="28.69" cy="4.89" r="2.5"/><circle class="cls-2" cx="35.19" cy="7.65" r="1.14"/><circle class="cls-2" cx="35.04" cy="1.14" r="1.14"/><line class="cls-3" x1="9.62" y1="69.36" x2="43.58" y2="69.36"/><line class="cls-3" x1="1" y1="69.36" x2="5.89" y2="69.36"/><line class="cls-3" x1="46.84" y1="69.36" x2="51.18" y2="69.36"/><path class="cls-4" d="M23.66,18.64c-1,.35-6.58,2.55-9,8a2.88,2.88,0,0,0-.25,1.23V42.37a2.44,2.44,0,0,0,.35,1.26l.52.87a1.7,1.7,0,0,1-.2,2h0a2.66,2.66,0,0,0-.67,1.76V65.22a3.24,3.24,0,0,0,.05.62,9.06,9.06,0,0,0,.4,1.35,3.48,3.48,0,0,0,3.24,2.17H35.14a3.48,3.48,0,0,0,3.24-2.17,7.15,7.15,0,0,0,.4-1.35,3.26,3.26,0,0,0,.06-.62V48.27a2.62,2.62,0,0,0-.68-1.76h0a1.69,1.69,0,0,1-.19-2l.52-.87a2.44,2.44,0,0,0,.35-1.26V27.83a3,3,0,0,0-.25-1.23c-2.46-5.41-8.05-7.61-9.05-8a.73.73,0,0,0-.3-.06H24A.8.8,0,0,0,23.66,18.64Z"/><line class="cls-5" x1="16.06" y1="44.94" x2="22.27" y2="44.94"/><line class="cls-5" x1="24.66" y1="45.03" x2="27.92" y2="45.03"/><line class="cls-5" x1="33.16" y1="44.84" x2="37.33" y2="44.84"/><line class="cls-5" x1="14.96" y1="52.3" x2="21.03" y2="52.3"/><line class="cls-5" x1="26.19" y1="53.82" x2="38.33" y2="53.82"/><line class="cls-5" x1="14.96" y1="59.46" x2="19.09" y2="59.46"/><line class="cls-5" x1="21.89" y1="57.93" x2="28.58" y2="57.93"/><path class="cls-6" d="M26.6,61.53c-4.15.66-8.44,1.31-12.23,3v.71a3.24,3.24,0,0,0,.05.62,9.06,9.06,0,0,0,.4,1.35,3.48,3.48,0,0,0,3.24,2.17H35.14a3.48,3.48,0,0,0,3.24-2.17,7.15,7.15,0,0,0,.4-1.35,3.26,3.26,0,0,0,.06-.62V58.08C35.15,60,30.79,60.87,26.6,61.53Z"/><line class="cls-5" x1="34.69" y1="58.79" x2="38.53" y2="58.79"/><line class="cls-5" x1="35.36" y1="65" x2="38.52" y2="65"/><line class="cls-5" x1="29.25" y1="64.91" x2="31.64" y2="64.91"/><line class="cls-5" x1="14.96" y1="64.53" x2="25.76" y2="64.53"/><path class="cls-7" d="M14.37,27.75V40.9a2.44,2.44,0,0,0,.05.39H38.78a2.44,2.44,0,0,0,.06-.39V27.75a2.66,2.66,0,0,0-.12-.74H14.48A2.65,2.65,0,0,0,14.37,27.75Z"/><line class="cls-8" x1="19.21" y1="38.69" x2="19.21" y2="39.69"/><line class="cls-8" x1="19.21" y1="29.35" x2="19.21" y2="36.43"/><rect class="cls-4" x="23.68" y="14.6" width="5.57" height="3.98"/><polyline class="cls-9" points="23.68 18.59 23.68 14.6 29.25 14.6 29.25 18.59"/><path class="cls-5" d="M25.76,18.58H24a.8.8,0,0,0-.3.06c-1,.35-6.58,2.55-9,8a2.88,2.88,0,0,0-.25,1.23V42.37a2.44,2.44,0,0,0,.35,1.26l.52.87a1.7,1.7,0,0,1-.2,2h0a2.66,2.66,0,0,0-.67,1.76V65.22a3.24,3.24,0,0,0,.05.62,9.06,9.06,0,0,0,.4,1.35,3.48,3.48,0,0,0,3.24,2.17H35.14a3.48,3.48,0,0,0,3.24-2.17,7.15,7.15,0,0,0,.4-1.35,3.26,3.26,0,0,0,.06-.62V48.27a2.62,2.62,0,0,0-.68-1.76h0a1.69,1.69,0,0,1-.19-2l.52-.87a2.44,2.44,0,0,0,.35-1.26V27.83a3,3,0,0,0-.25-1.23c-2.46-5.41-8.05-7.61-9.05-8a.73.73,0,0,0-.3-.06"/><line class="cls-8" x1="17.48" y1="48.36" x2="27.94" y2="48.36"/><line class="cls-8" x1="30.01" y1="48.36" x2="31.63" y2="48.36"/><path class="cls-8" d="M20.85,61v.23"/><path class="cls-8" d="M31.06,58.23v.46"/><path class="cls-8" d="M26.42,66.82h.7"/><rect class="cls-7" x="21.8" y="11.26" width="9.32" height="4.34" rx="1.28"/><line class="cls-10" x1="27.09" y1="20.2" x2="27.76" y2="20.87"/></g></g></svg>