<svg width="240" height="240" viewBox="0 0 240 240" fill="none" xmlns="http://www.w3.org/2000/svg">
<mask id="path-1-inside-1" fill="white">
<path fill-rule="evenodd" clip-rule="evenodd" d="M120 190C158.66 190 190 158.66 190 120C190 81.3401 158.66 50 120 50C81.3401 50 50 81.3401 50 120C50 158.66 81.3401 190 120 190ZM120 240C186.274 240 240 186.274 240 120C240 53.7258 186.274 0 120 0C53.7258 0 0 53.7258 0 120C0 186.274 53.7258 240 120 240Z"/>
</mask>
<path fill-rule="evenodd" clip-rule="evenodd" d="M120 190C158.66 190 190 158.66 190 120C190 81.3401 158.66 50 120 50C81.3401 50 50 81.3401 50 120C50 158.66 81.3401 190 120 190ZM120 240C186.274 240 240 186.274 240 120C240 53.7258 186.274 0 120 0C53.7258 0 0 53.7258 0 120C0 186.274 53.7258 240 120 240Z" fill="#D92C27"/>
<path d="M140 120C140 131.046 131.046 140 120 140V240C186.274 240 240 186.274 240 120H140ZM120 100C131.046 100 140 108.954 140 120H240C240 53.7258 186.274 0 120 0V100ZM100 120C100 108.954 108.954 100 120 100V0C53.7258 0 0 53.7258 0 120H100ZM120 140C108.954 140 100 131.046 100 120H0C0 186.274 53.7258 240 120 240V140ZM190 120C190 158.66 158.66 190 120 190V290C213.888 290 290 213.888 290 120H190ZM120 50C158.66 50 190 81.3401 190 120H290C290 26.1116 213.888 -50 120 -50V50ZM50 120C50 81.3401 81.3401 50 120 50V-50C26.1116 -50 -50 26.1116 -50 120H50ZM120 190C81.3401 190 50 158.66 50 120H-50C-50 213.888 26.1116 290 120 290V190Z" fill="#D92C27" mask="url(#path-1-inside-1)"/>
</svg>
