<svg xmlns="http://www.w3.org/2000/svg" xmlns:xlink="http://www.w3.org/1999/xlink" width="592.699" height="440.213" viewBox="0 0 592.699 440.213"><defs><style>.a{fill:url(#a);}.b{fill:url(#b);}.c{fill:#fff;opacity:0.8;}.d{fill:url(#c);}.e{fill:#d92c27;}</style><linearGradient id="a" x1="0.5" x2="0.483" y2="1" gradientUnits="objectBoundingBox"><stop offset="0" stop-color="#f8d700"/><stop offset="1" stop-color="#f9ea62" stop-opacity="0"/></linearGradient><linearGradient id="b" x1="0.503" y1="-0.267" x2="0.603" y2="1.019" xlink:href="#a"/><linearGradient id="c" x1="0.404" y1="1.24" x2="0.559" y2="0.028" xlink:href="#a"/></defs><g transform="translate(-238.001 -199.787)"><path class="a" d="M-3737.6,249.184h-470.386l154.65-247.265,20.3,30.625,44.656,30.024L-3951,2.766l14.419,11.5,19.412,28.323L-3890.594,0l34.8,8.344,7.621,29.226,8.208,16.045,21.209-36.735,43.137.382,10.98,19.66L-3741.594,0l34.8,8.344,7.621,29.226,6.418,12.546,26.142-41.882,29.677.964,20.277,2.689-15.623,25.166,14.175,20.813L-3737.6,249.184Z" transform="translate(4445.982 390.816)"/><g transform="matrix(0.951, 0.309, -0.309, 0.951, 442.577, 280.285)"><path class="b" d="M2.6,45.424a29.614,29.614,0,0,1-.262-23.648c9.643-23.541,39.17-24.212,53.3-19.387A100.4,100.4,0,0,1,86.916,19.461q13.79,11.213,17.038,18.87,2.013,4.7-2.2,4.436-20.132-1.382-33.466,4.275A55.772,55.772,0,0,0,59.832,51.5c-2.684,1.711-4.389,2.832-5.147,3.355a88.2,88.2,0,0,1-11.737,6.69,29.768,29.768,0,0,1-23.655.262A29.446,29.446,0,0,1,2.6,45.424Z" transform="translate(21.459 -16.171)"/><path class="c" d="M38.6,11.915a18.186,18.186,0,0,0-2.919.349,22.7,22.7,0,0,0-2.906.805A22.2,22.2,0,0,0,27.4,15.754a13.73,13.73,0,0,0-1.194.886,11.08,11.08,0,0,0-1.148.953L24,18.626l-1,1.107a25.809,25.809,0,0,0-1.839,2.335c-.57.819-1.054,1.7-1.584,2.537l-.121.188a2.013,2.013,0,0,1-3.4-2.141l.074-.107c.671-.919,1.282-1.866,2.013-2.745a31.205,31.205,0,0,1,2.268-2.516c.409-.389.805-.792,1.228-1.174l1.342-1.067a12.589,12.589,0,0,1,1.382-.986,16.106,16.106,0,0,1,1.429-.913,25.151,25.151,0,0,1,6.221-2.6,26.279,26.279,0,0,1,3.295-.671,19.817,19.817,0,0,1,3.429-.148,1.107,1.107,0,0,1,0,2.208Z" transform="translate(16.254 -19.362)"/><circle class="c" cx="2.349" cy="2.349" r="2.349" transform="translate(28.405 7.9)"/></g><g transform="translate(752.537 304.741) rotate(151)"><path class="d" d="M4.858,35.006c-6.278,14.791-6.5,29.57-.49,44.248,18.043,44.047,73.29,45.3,99.721,36.275a187.866,187.866,0,0,0,58.537-31.943q25.8-20.981,31.88-35.308,3.767-8.789-4.118-8.3-37.669,2.587-62.618-8a104.355,104.355,0,0,1-15.821-8.35c-5.023-3.2-8.212-5.3-9.631-6.278Q87.78,7.985,80.359,4.834A55.7,55.7,0,0,0,36.1,4.344,55.1,55.1,0,0,0,4.858,35.006Z" transform="translate(0 0)"/><path class="c" d="M42.61,25.61a34.027,34.027,0,0,1-5.462-.653,42.477,42.477,0,0,1-5.437-1.507,41.536,41.536,0,0,1-10.045-5.022,25.691,25.691,0,0,1-2.235-1.657,20.732,20.732,0,0,1-2.147-1.783l-2-1.934-1.871-2.072a48.291,48.291,0,0,1-3.44-4.37C8.909,5.081,8,3.436,7.013,1.867l-.226-.352A3.767,3.767,0,0,0,.433,5.521l.138.2c1.256,1.72,2.4,3.491,3.767,5.135a58.388,58.388,0,0,0,4.244,4.709c.766.728,1.507,1.482,2.3,2.2l2.511,2a23.555,23.555,0,0,0,2.587,1.846,30.137,30.137,0,0,0,2.674,1.708,47.06,47.06,0,0,0,11.64,4.872,49.17,49.17,0,0,0,6.165,1.256,37.079,37.079,0,0,0,6.416.276,2.072,2.072,0,0,0,0-4.131Z" transform="translate(19.869 78.065)"/><ellipse class="c" cx="4.395" cy="4.395" rx="4.395" ry="4.395" transform="translate(12.995 66.171)"/></g><path class="e" d="M169-1.7V-68.1a2.116,2.116,0,0,1,1-1.8,4.439,4.439,0,0,1,2.6-.7h14.7l7.1-.2q11.5,0,17.95,2.7t8.8,7.3a24.157,24.157,0,0,1,2.35,11.1,19.29,19.29,0,0,1-3.7,11.8,18.933,18.933,0,0,1,7.55,6.75,19.544,19.544,0,0,1,2.25,9.95,24.017,24.017,0,0,1-.1,2.5,25.831,25.831,0,0,1-2.3,9.65q-2,4.25-8,7.25T202,1.2H173.2a5.062,5.062,0,0,1-3-.85A2.47,2.47,0,0,1,169-1.7Zm30.4-12.2q4.4-.2,6.6-2.2a6.937,6.937,0,0,0,2.2-5.4,6.52,6.52,0,0,0-2.4-5.35q-2.4-1.95-8.2-2.05h-7.7q-1.5,0-1.5.7v13.4a.745.745,0,0,0,.4.65,2.068,2.068,0,0,0,1.1.25Zm-2.5-28.7a7.7,7.7,0,0,0,5.35-1.9A6.02,6.02,0,0,0,204.1-49q0-6.3-8.4-6.7h-6.4a1.134,1.134,0,0,0-.75.3.9.9,0,0,0-.35.7v11.3a.673.673,0,0,0,.3.6,1.422,1.422,0,0,0,.8.2Zm39.7,8a35.4,35.4,0,0,1,4.95-18.3A37.138,37.138,0,0,1,254.9-66.25a35.4,35.4,0,0,1,18.3-4.95,35.668,35.668,0,0,1,18.35,4.95,37.016,37.016,0,0,1,13.4,13.35,35.4,35.4,0,0,1,4.95,18.3,35.4,35.4,0,0,1-4.95,18.3,37.016,37.016,0,0,1-13.4,13.35A35.668,35.668,0,0,1,273.2,2a35.4,35.4,0,0,1-18.3-4.95A37.138,37.138,0,0,1,241.55-16.3,35.4,35.4,0,0,1,236.6-34.6Zm52.2-.9a14.862,14.862,0,0,0-2.2-7.9,16.663,16.663,0,0,0-5.85-5.75,15.2,15.2,0,0,0-7.85-2.15,15.569,15.569,0,0,0-8.05,2.15,15.851,15.851,0,0,0-5.75,5.75,15.4,15.4,0,0,0-2.1,7.9,15.666,15.666,0,0,0,2.1,7.95,15.733,15.733,0,0,0,5.75,5.8,15.569,15.569,0,0,0,8.05,2.15,15.2,15.2,0,0,0,7.85-2.15,16.526,16.526,0,0,0,5.85-5.8A15.12,15.12,0,0,0,288.8-35.5ZM317.9-1.7V-68.1a2.116,2.116,0,0,1,1-1.8,4.439,4.439,0,0,1,2.6-.7h14.7l7.1-.2q11.5,0,17.95,2.7t8.8,7.3a24.157,24.157,0,0,1,2.35,11.1,19.29,19.29,0,0,1-3.7,11.8,18.933,18.933,0,0,1,7.55,6.75,19.544,19.544,0,0,1,2.25,9.95,24.012,24.012,0,0,1-.1,2.5,25.83,25.83,0,0,1-2.3,9.65q-2,4.25-8,7.25t-17.2,3H322.1a5.062,5.062,0,0,1-3-.85A2.47,2.47,0,0,1,317.9-1.7Zm30.4-12.2q4.4-.2,6.6-2.2a6.937,6.937,0,0,0,2.2-5.4,6.52,6.52,0,0,0-2.4-5.35q-2.4-1.95-8.2-2.05h-7.7q-1.5,0-1.5.7v13.4a.745.745,0,0,0,.4.65,2.068,2.068,0,0,0,1.1.25Zm-2.5-28.7a7.7,7.7,0,0,0,5.35-1.9A6.02,6.02,0,0,0,353-49q0-6.3-8.4-6.7h-6.4a1.134,1.134,0,0,0-.75.3.9.9,0,0,0-.35.7v11.3a.673.673,0,0,0,.3.6,1.422,1.422,0,0,0,.8.2Zm38.6,30.1a7.406,7.406,0,0,1,1.8-4.2l3.7-4.8a25.715,25.715,0,0,1,2.55-3.25,2.866,2.866,0,0,1,2.05-.95,5.473,5.473,0,0,1,2.2.6,38.78,38.78,0,0,1,3.6,2q.3.2,5.1,3.5t12,2.9a5.675,5.675,0,0,0,3.75-1.35,4,4,0,0,0,1.35-3.05,5.721,5.721,0,0,0-2.4-4.4,11.63,11.63,0,0,0-6.8-2.3h.1q-8.8-1.8-13.7-4.55a17.4,17.4,0,0,1-7-6.55,22.632,22.632,0,0,1-2.5-9.4A20.782,20.782,0,0,1,393-60.35a22.517,22.517,0,0,1,9.2-8.6A29.253,29.253,0,0,1,416-72.1a41.064,41.064,0,0,1,11.6,1.7,40.232,40.232,0,0,1,8.75,3.45A20.847,20.847,0,0,1,442.6-62a3.9,3.9,0,0,1,1.4,2.6,3.99,3.99,0,0,1-.75,2.15,28.46,28.46,0,0,1-2.55,3.15L437.8-51a17.832,17.832,0,0,1-2.15,2.05,2.47,2.47,0,0,1-1.45.55,4.032,4.032,0,0,1-1.8-.6q-1.1-.6-2.15-1.25T428.4-51.4q-6.9-4.4-12.1-4.4a7.621,7.621,0,0,0-5.05,1.55,4.731,4.731,0,0,0-1.85,3.75,5.385,5.385,0,0,0,1.8,3.95,9.05,9.05,0,0,0,5.1,2.25q14.3,2.2,21.35,8.5t7.05,14.4a20.343,20.343,0,0,1-3.75,11.55,27.547,27.547,0,0,1-10.4,9A31.76,31.76,0,0,1,415.7,2.6q-13.4,0-26.9-9.4Q384.4-9.8,384.4-12.5Z" transform="translate(386 460)"/><path class="e" d="M80.3-4.3a4.272,4.272,0,0,1-.75,2.55A2.578,2.578,0,0,1,77.6-.6l-18,.1a3.039,3.039,0,0,1-2.5-1.3L43.7-21,29.6-1.9A2.89,2.89,0,0,1,28.25-.5,4.336,4.336,0,0,1,26.2,0H11.9A3.851,3.851,0,0,1,9.05-1.05,3.851,3.851,0,0,1,8-3.9v-61a3.793,3.793,0,0,1,1.1-2.8,3.793,3.793,0,0,1,2.8-1.1H26.2a3.753,3.753,0,0,1,2.75,1.15A3.753,3.753,0,0,1,30.1-64.9v26.5L52.2-66.5q1.8-2.3,6-2l15.4.1h-.1a2.271,2.271,0,0,1,2.2,2.5,5.634,5.634,0,0,1-1.2,3.2l-17,23.1L79.7-6.5A4.2,4.2,0,0,1,80.3-4.3Zm6.8.3a10.53,10.53,0,0,1,.55-3.35Q88.2-9,88.3-9.2l22.2-56.3a7.137,7.137,0,0,1,2.65-3.25A8.013,8.013,0,0,1,117.3-70h14.4a7.36,7.36,0,0,1,4.3,1.4,6.448,6.448,0,0,1,2.3,3.1L160.7-9.2q.1.5.6,2.05a9.611,9.611,0,0,1,.5,2.95q0,3.6-4,4.2H144.1a7.658,7.658,0,0,1-3.55-.75A3.447,3.447,0,0,1,138.7-2.9l-3.1-10H113.3l-3.1,10a3.466,3.466,0,0,1-1.8,2.15,7.351,7.351,0,0,1-3.5.75H91Q87.1-.6,87.1-4Zm38.4-25.8H132l-7.9-23.5-7.8,23.5Z" transform="translate(383.982 460)"/></g></svg>