<svg xmlns="http://www.w3.org/2000/svg" width="514.536" height="440.213" viewBox="0 0 514.536 440.213"><defs><style>.a{fill:#8c1c19;}.b{fill:#fff;}</style></defs><g transform="translate(-238 -199.787)"><g transform="translate(47.982)"><path class="a" d="M-5436.66-2807.456h-373.322l154.651-247.265,20.3,30.625,44.656,30.024,37.373-59.8,14.419,11.5,20,29.188,26.436-42.363,36.579,9.509,8.831,29.886.559,1.019,25.49-40.864,13.623,6.558,3.231,27.044,20.688-33.152,36.58,9.509,8.829,29.886,14.554,26.585-113.479,182.115Z" transform="translate(6000 3447.455)"/><path class="b" d="M80.3-4.3a4.272,4.272,0,0,1-.75,2.55A2.578,2.578,0,0,1,77.6-.6l-18,.1a3.039,3.039,0,0,1-2.5-1.3L43.7-21,29.6-1.9A2.89,2.89,0,0,1,28.25-.5,4.336,4.336,0,0,1,26.2,0H11.9A3.851,3.851,0,0,1,9.05-1.05,3.851,3.851,0,0,1,8-3.9v-61a3.793,3.793,0,0,1,1.1-2.8,3.793,3.793,0,0,1,2.8-1.1H26.2a3.753,3.753,0,0,1,2.75,1.15A3.753,3.753,0,0,1,30.1-64.9v26.5L52.2-66.5q1.8-2.3,6-2l15.4.1h-.1a2.271,2.271,0,0,1,2.2,2.5,5.634,5.634,0,0,1-1.2,3.2l-17,23.1L79.7-6.5A4.2,4.2,0,0,1,80.3-4.3Zm6.8.3a10.53,10.53,0,0,1,.55-3.35Q88.2-9,88.3-9.2l22.2-56.3a7.137,7.137,0,0,1,2.65-3.25A8.013,8.013,0,0,1,117.3-70h14.4a7.36,7.36,0,0,1,4.3,1.4,6.448,6.448,0,0,1,2.3,3.1L160.7-9.2q.1.5.6,2.05a9.611,9.611,0,0,1,.5,2.95q0,3.6-4,4.2H144.1a7.658,7.658,0,0,1-3.55-.75A3.447,3.447,0,0,1,138.7-2.9l-3.1-10H113.3l-3.1,10a3.466,3.466,0,0,1-1.8,2.15,7.351,7.351,0,0,1-3.5.75H91Q87.1-.6,87.1-4Zm38.4-25.8H132l-7.9-23.5-7.8,23.5ZM210.9-6q-1.1-6.8-4.55-9.45a16.335,16.335,0,0,0-8.55-3.15,12.269,12.269,0,0,0-1.7-.1,6.259,6.259,0,0,0-1.7.2l-.1.1V-5.6a10.79,10.79,0,0,1-.35,3.05,3.3,3.3,0,0,1-1.9,1.9A11.749,11.749,0,0,1,187.2.1h-9.3A8,8,0,0,1,173-1.05a3.974,3.974,0,0,1-1.8-3.45l.1-27V-66.3a3.308,3.308,0,0,1,1.5-2.65,5.743,5.743,0,0,1,3.6-1.15h22.7q15-.1,22.2,5.05t7.8,16.15a8.708,8.708,0,0,1,.05,1.55q-.05.55-.05.95v2.1a17.609,17.609,0,0,1-3.05,9.2,28.707,28.707,0,0,1-6.75,6.3l.1.1a19.073,19.073,0,0,1,7.8,6.9,28.164,28.164,0,0,1,3.95,9.4A34.049,34.049,0,0,1,232-3.6a3.332,3.332,0,0,1-1.2,2.7,5.17,5.17,0,0,1-3.4,1H215.2q-2.6,0-3.35-1.3a5.833,5.833,0,0,1-.8-2.75A18.1,18.1,0,0,0,210.9-6ZM196-37.3a21.229,21.229,0,0,0,8.45-1.65q3.85-1.65,3.85-7.65a7.991,7.991,0,0,0-2.55-6.4q-2.55-2.2-7.35-2.2h-8.2v17.9H196ZM242.3-4.4v-61a4.723,4.723,0,0,1,1.2-3.25A4.07,4.07,0,0,1,246.7-70h13.7a4,4,0,0,1,3.05,1.35,4.614,4.614,0,0,1,1.25,3.25v61a4.527,4.527,0,0,1-1.25,3.35A4.15,4.15,0,0,1,260.4.2H246.7a4.23,4.23,0,0,1-3.2-1.25A4.634,4.634,0,0,1,242.3-4.4ZM319.6-6q-1.1-6.8-4.55-9.45a16.335,16.335,0,0,0-8.55-3.15,12.269,12.269,0,0,0-1.7-.1,6.259,6.259,0,0,0-1.7.2l-.1.1V-5.6a10.791,10.791,0,0,1-.35,3.05,3.3,3.3,0,0,1-1.9,1.9A11.749,11.749,0,0,1,295.9.1h-9.3a8,8,0,0,1-4.9-1.15,3.974,3.974,0,0,1-1.8-3.45l.1-27V-66.3a3.308,3.308,0,0,1,1.5-2.65,5.743,5.743,0,0,1,3.6-1.15h22.7q15-.1,22.2,5.05t7.8,16.15a8.707,8.707,0,0,1,.05,1.55q-.05.55-.05.95v2.1a17.609,17.609,0,0,1-3.05,9.2A28.706,28.706,0,0,1,328-28.8l.1.1a19.072,19.072,0,0,1,7.8,6.9,28.164,28.164,0,0,1,3.95,9.4,34.05,34.05,0,0,1,.85,8.8,3.332,3.332,0,0,1-1.2,2.7,5.17,5.17,0,0,1-3.4,1H323.9q-2.6,0-3.35-1.3a5.833,5.833,0,0,1-.8-2.75A18.093,18.093,0,0,0,319.6-6ZM304.7-37.3a21.229,21.229,0,0,0,8.45-1.65Q317-40.6,317-46.6a7.991,7.991,0,0,0-2.55-6.4q-2.55-2.2-7.35-2.2h-8.2v17.9h5.8Z" transform="translate(336 460)"/></g><g transform="matrix(0.951, 0.309, -0.309, 0.951, 442.577, 280.285)"><path class="a" d="M2.6,45.424a29.614,29.614,0,0,1-.262-23.648c9.643-23.541,39.17-24.212,53.3-19.387A100.4,100.4,0,0,1,86.916,19.461q13.79,11.213,17.038,18.87,2.013,4.7-2.2,4.436-20.132-1.382-33.466,4.275A55.772,55.772,0,0,0,59.832,51.5c-2.684,1.711-4.389,2.832-5.147,3.355a88.2,88.2,0,0,1-11.737,6.69,29.768,29.768,0,0,1-23.655.262A29.446,29.446,0,0,1,2.6,45.424Z" transform="translate(21.459 -16.171)"/><path class="b" d="M38.6,11.915a18.186,18.186,0,0,0-2.919.349,22.7,22.7,0,0,0-2.906.805A22.2,22.2,0,0,0,27.4,15.754a13.73,13.73,0,0,0-1.194.886,11.08,11.08,0,0,0-1.148.953L24,18.626l-1,1.107a25.809,25.809,0,0,0-1.839,2.335c-.57.819-1.054,1.7-1.584,2.537l-.121.188a2.013,2.013,0,0,1-3.4-2.141l.074-.107c.671-.919,1.282-1.866,2.013-2.745a31.205,31.205,0,0,1,2.268-2.516c.409-.389.805-.792,1.228-1.174l1.342-1.067a12.589,12.589,0,0,1,1.382-.986,16.106,16.106,0,0,1,1.429-.913,25.151,25.151,0,0,1,6.221-2.6,26.279,26.279,0,0,1,3.295-.671,19.817,19.817,0,0,1,3.429-.148,1.107,1.107,0,0,1,0,2.208Z" transform="translate(16.254 -19.362)"/><circle class="b" cx="2.349" cy="2.349" r="2.349" transform="translate(28.405 7.9)"/></g><g transform="translate(752.537 304.741) rotate(151)"><path class="a" d="M4.858,35.006c-6.278,14.791-6.5,29.57-.49,44.248,18.043,44.047,73.29,45.3,99.721,36.275a187.866,187.866,0,0,0,58.537-31.943q25.8-20.981,31.88-35.308,3.767-8.789-4.118-8.3-37.669,2.587-62.618-8a104.355,104.355,0,0,1-15.821-8.35c-5.023-3.2-8.212-5.3-9.631-6.278Q87.78,7.985,80.359,4.834A55.7,55.7,0,0,0,36.1,4.344,55.1,55.1,0,0,0,4.858,35.006Z" transform="translate(0 0)"/><path class="b" d="M42.61,25.61a34.027,34.027,0,0,1-5.462-.653,42.477,42.477,0,0,1-5.437-1.507,41.536,41.536,0,0,1-10.045-5.022,25.691,25.691,0,0,1-2.235-1.657,20.732,20.732,0,0,1-2.147-1.783l-2-1.934-1.871-2.072a48.291,48.291,0,0,1-3.44-4.37C8.909,5.081,8,3.436,7.013,1.867l-.226-.352A3.767,3.767,0,0,0,.433,5.521l.138.2c1.256,1.72,2.4,3.491,3.767,5.135a58.388,58.388,0,0,0,4.244,4.709c.766.728,1.507,1.482,2.3,2.2l2.511,2a23.555,23.555,0,0,0,2.587,1.846,30.137,30.137,0,0,0,2.674,1.708,47.06,47.06,0,0,0,11.64,4.872,49.17,49.17,0,0,0,6.165,1.256,37.079,37.079,0,0,0,6.416.276,2.072,2.072,0,0,0,0-4.131Z" transform="translate(19.869 78.065)"/><ellipse class="b" cx="4.395" cy="4.395" rx="4.395" ry="4.395" transform="translate(12.995 66.171)"/></g></g></svg>