<svg xmlns="http://www.w3.org/2000/svg" width="53.972" height="29.007" viewBox="0 0 53.972 29.007"><g transform="translate(-694.029 -162.599)"><g transform="translate(700.791 166.075) rotate(25)"><path d="M.648,11.333a7.388,7.388,0,0,1-.065-5.9C2.988-.44,10.355-.608,13.879.6a25.049,25.049,0,0,1,7.8,4.259q3.44,2.8,4.251,4.708.5,1.172-.549,1.107a18.213,18.213,0,0,0-8.349,1.066,13.914,13.914,0,0,0-2.109,1.113c-.67.427-1.095.706-1.284.837a22,22,0,0,1-2.928,1.669,7.427,7.427,0,0,1-5.9.065A7.346,7.346,0,0,1,.648,11.333Z" transform="translate(0 0)" fill="#111"/><path d="M5.681.552a4.537,4.537,0,0,0-.728.087,5.664,5.664,0,0,0-.725.2,5.538,5.538,0,0,0-1.339.67,3.425,3.425,0,0,0-.3.221,2.764,2.764,0,0,0-.286.238l-.266.258L1.789,2.5a6.439,6.439,0,0,0-.459.583c-.142.2-.263.424-.4.633L.9,3.765a.5.5,0,0,1-.847-.534L.076,3.2c.167-.229.32-.465.5-.685a7.785,7.785,0,0,1,.566-.628c.1-.1.2-.2.306-.293l.335-.266a3.141,3.141,0,0,1,.345-.246A4.018,4.018,0,0,1,2.487.859,6.275,6.275,0,0,1,4.039.209,6.556,6.556,0,0,1,4.861.042,4.944,4.944,0,0,1,5.716,0a.276.276,0,0,1,0,.551Z" transform="translate(2.649 1.624)" fill="#fff"/><ellipse cx="0.586" cy="0.586" rx="0.586" ry="0.586" transform="translate(1.733 6.005)" fill="#fff"/></g><g transform="matrix(-0.799, 0.602, -0.602, -0.799, 748, 175.377)"><path d="M.648,4.667a7.388,7.388,0,0,0-.065,5.9c2.406,5.873,9.772,6.04,13.3,4.837a25.049,25.049,0,0,0,7.8-4.259q3.44-2.8,4.251-4.708.5-1.172-.549-1.107a18.213,18.213,0,0,1-8.349-1.066,13.914,13.914,0,0,1-2.109-1.113c-.67-.427-1.095-.706-1.284-.837A22,22,0,0,0,10.715.644a7.427,7.427,0,0,0-5.9-.065A7.346,7.346,0,0,0,.648,4.667Z" transform="translate(0 0)" fill="#111"/><path d="M5.681,3.415a4.537,4.537,0,0,1-.728-.087,5.664,5.664,0,0,1-.725-.2,5.538,5.538,0,0,1-1.339-.67,3.425,3.425,0,0,1-.3-.221A2.764,2.764,0,0,1,2.3,2l-.266-.258-.249-.276A6.439,6.439,0,0,1,1.33.882c-.142-.2-.263-.424-.4-.633L.9.2A.5.5,0,0,0,.058.736L.076.763c.167.229.32.465.5.685a7.785,7.785,0,0,0,.566.628c.1.1.2.2.306.293l.335.266a3.141,3.141,0,0,0,.345.246,4.018,4.018,0,0,0,.357.228,6.275,6.275,0,0,0,1.552.65,6.556,6.556,0,0,0,.822.167,4.944,4.944,0,0,0,.855.037.276.276,0,0,0,0-.551Z" transform="translate(2.649 10.409)" fill="#fff"/><ellipse cx="0.586" cy="0.586" rx="0.586" ry="0.586" transform="translate(1.733 8.823)" fill="#fff"/></g></g></svg>