<svg xmlns="http://www.w3.org/2000/svg" width="29.917" height="28" viewBox="0 0 29.917 28"><defs><style>.a{fill:#111;}</style></defs><g transform="translate(-2.45 -2.7)"><path class="a" d="M14.2,28a.443.443,0,0,1-.271-.071c-.293-.23-.186-.788-.061-1.439.2-1.044.452-2.345-1.038-2.657-.165-.018-.333-.039-.5-.064C5.186,22.758,0,17.8,0,11.982,0,5.373,6.71,0,14.958,0S29.917,5.373,29.917,11.982a10.239,10.239,0,0,1-2.234,6.295,2.879,2.879,0,0,1-.278.344,12.814,12.814,0,0,1-1.633,1.634C21.777,23.947,15.719,28,14.2,28ZM21.175,8.466a.782.782,0,0,0-.778.784v5.782a.783.783,0,0,0,.778.785h3.019a.783.783,0,0,0,.778-.785v-.063a.781.781,0,0,0-.778-.783H22.021V12.954h2.173a.781.781,0,0,0,.778-.783v-.063a.781.781,0,0,0-.778-.783H22.021V10.091h2.173a.778.778,0,0,0,.778-.777V9.25a.782.782,0,0,0-.778-.784Zm-6.119,3.092.005.008,2.833,3.873c.019.027.037.05.058.077a.608.608,0,0,0,.3.222.691.691,0,0,0,.3.063h.067a.8.8,0,0,0,.363-.092.464.464,0,0,0,.189-.144.765.765,0,0,0,.226-.546V9.234a.78.78,0,0,0-.778-.779h-.067a.78.78,0,0,0-.778.779v3.4l-2.82-3.782a.781.781,0,0,0-.678-.394h-.064a.781.781,0,0,0-.781.779V15.02a.782.782,0,0,0,.781.782h.064a.782.782,0,0,0,.781-.782V11.558Zm-3.571-3.1a.78.78,0,0,0-.778.779V15.02a.781.781,0,0,0,.778.782h.067a.781.781,0,0,0,.778-.782V9.234a.78.78,0,0,0-.778-.779Zm-5.207,0a.78.78,0,0,0-.778.779V15.02a.781.781,0,0,0,.778.782H9.3a.781.781,0,0,0,.778-.782v-.068a.778.778,0,0,0-.778-.777H7.124V9.234a.78.78,0,0,0-.778-.779Z" transform="translate(2.45 2.7)"/></g></svg>