<svg xmlns="http://www.w3.org/2000/svg" viewBox="0 0 149.8 137.33"><defs><style>.cls-1{fill:#a51516;}.cls-1,.cls-2,.cls-5,.cls-6,.cls-7{stroke:#000;stroke-miterlimit:10;stroke-width:5px;}.cls-2{fill:#f04541;}.cls-3{fill:#fff;}.cls-3,.cls-4,.cls-5,.cls-6{fill-rule:evenodd;}.cls-4{fill:#fdcd09;}.cls-5,.cls-7{fill:#31b625;}.cls-6{fill:#d4331d;}</style></defs><title>alacarte</title><g id="Layer_2" data-name="Layer 2"><g id="Layer_1-2" data-name="Layer 1"><path d="M64.19,43l5.17,34.13,0,.72v54h67.2v-54l.06-.72L141.83,43Zm77.22,34.84v59.48H64.61V77.86l-6-39.65h88.8Z"/><ellipse class="cls-1" cx="103.24" cy="28.93" rx="20.86" ry="26.43"/><ellipse class="cls-2" cx="80.66" cy="23.69" rx="9.04" ry="10.4" transform="translate(3.71 57.54) rotate(-40.11)"/><ellipse class="cls-2" cx="126.46" cy="23.69" rx="10.4" ry="9.04" transform="translate(26.86 105.14) rotate(-49.89)"/><ellipse class="cls-2" cx="103.24" cy="44.04" rx="20.86" ry="28.39"/><ellipse class="cls-1" cx="103.24" cy="48.52" rx="16.8" ry="20.86"/><ellipse class="cls-1" cx="138.02" cy="34.28" rx="10.4" ry="9.04" transform="translate(50.69 146.52) rotate(-66.06)"/><ellipse class="cls-2" cx="129.25" cy="43.77" rx="15.79" ry="12.23" transform="translate(-2.91 77.75) rotate(-33.13)"/><ellipse class="cls-1" cx="69.09" cy="34.28" rx="9.04" ry="10.4" transform="translate(-7.97 30.98) rotate(-23.94)"/><ellipse class="cls-2" cx="76.87" cy="43.77" rx="12.23" ry="15.79" transform="translate(-1.8 84.22) rotate(-56.87)"/><ellipse class="cls-1" cx="103.24" cy="62.94" rx="19.41" ry="17.09"/><polygon class="cls-3" points="103.11 66.55 139.01 93.38 103.48 116.7 66.65 93.57 103.11 66.55"/><polygon class="cls-3" points="136.24 98.82 83.81 131.81 136.24 131.81 136.24 98.82"/><path d="M138.77,134.21H80.11L136.8,98.53C136.74,110.83,138.83,121.92,138.77,134.21Zm2.46,2.4-.92-46.9c-24.86,15.58-47.56,30.91-72.42,46.49"/><polygon class="cls-3" points="69.41 98.82 121.84 131.81 69.41 131.81 69.41 98.82"/><path d="M67,134.21h58.66L69,98.53C69,110.83,66.93,121.92,67,134.21Zm-2.46,2.4.91-46.9c24.87,15.58,47.57,30.91,72.43,46.49"/><polygon class="cls-4" points="141.53 44.99 136.67 77.13 136.61 77.85 136.61 88.6 108.35 66.98 141.53 44.99"/><path d="M108.35,67,138,89.68l.53-12.63,4.35-33Zm34.12-28.37,2.07,2.51.3,4.89-4.15,28.87L140,85.78,139.68,97,100.6,67.1l0-.76Z"/><polygon class="cls-4" points="64.55 44.99 69.41 77.13 69.47 77.85 69.47 88.6 97.73 66.98 64.55 44.99"/><path d="M97.73,67,68.06,89.68l-.53-12.63-4.35-33ZM63.61,38.61l-2.07,2.51L61.24,46l4.15,28.87.74,10.9L66.4,97,105.48,67.1l0-.76Z"/><circle cx="75.95" cy="61.83" r="1.92"/><circle cx="84.35" cy="65.67" r="1.92"/><circle cx="126.84" cy="66.86" r="1.92"/><circle cx="130.2" cy="62.3" r="1.92"/><circle cx="77.87" cy="70.71" r="1.92"/><path d="M6.42,43l5.17,34.13.05.72v54h67.2v-54l.06-.72L84.06,43ZM83.64,77.85v59.48H6.84V77.86l-6-39.65h88.8Z"/><path class="cls-5" d="M70.3,16.77c5.08,2.37,6.44,10.24,3,17.56s-10.31,11.35-15.4,9-6.44-10.25-3-17.57S65.21,14.39,70.3,16.77Z"/><path class="cls-5" d="M84.18,26.3c4.06,1.9,4.94,8.64,1.95,15.05s-8.71,10.06-12.78,8.17-4.94-8.64-2-15.05S80.11,24.41,84.18,26.3Z"/><path class="cls-5" d="M20.22,16.77c-5.09,2.37-6.45,10.24-3,17.56s10.32,11.35,15.4,9,6.44-10.25,3-17.57S25.3,14.39,20.22,16.77Z"/><path class="cls-5" d="M6.2,26c-4.06,1.9-4.91,8.7-1.89,15.18s8.78,10.21,12.85,8.32,4.92-8.7,1.89-15.19S10.27,24.12,6.2,26Z"/><path class="cls-5" d="M45.24,8.71c7,0,12.74,7.61,12.74,17s-5.71,17-12.74,17-12.73-7.61-12.73-17S38.21,8.71,45.24,8.71Z"/><path class="cls-6" d="M72.36,26.73c6.8,2.92,9,13.09,4.83,22.69s-13,15-19.8,12.09-9-13.09-4.83-22.69S65.57,23.8,72.36,26.73Z"/><path class="cls-6" d="M17.84,26.73C11.05,29.65,8.89,39.82,13,49.42s13,15,19.8,12.09,9-13.09,4.82-22.69S24.64,23.8,17.84,26.73Z"/><path class="cls-6" d="M45.24,21.94c9.13,0,16.54,9.21,16.54,20.54S54.37,63,45.24,63,28.71,53.82,28.71,42.48,36.12,21.94,45.24,21.94Z"/><ellipse class="cls-7" cx="58.13" cy="64.72" rx="22.11" ry="19.25" transform="translate(-4.08 3.91) rotate(-3.72)"/><ellipse class="cls-7" cx="31.73" cy="65.44" rx="19.25" ry="22.11" transform="matrix(0.06, -1, 1, 0.06, -35.62, 92.86)"/><polygon class="cls-3" points="45.34 66.55 81.24 93.38 45.71 116.7 8.88 93.57 45.34 66.55"/><polygon class="cls-3" points="78.47 98.82 26.04 131.81 78.47 131.81 78.47 98.82"/><path d="M81,134.21H22.33L79,98.53C79,110.83,81.06,121.92,81,134.21Zm2.47,2.4-.92-46.9C57.68,105.29,35,120.62,10.12,136.2"/><polygon class="cls-3" points="11.64 98.82 64.07 131.81 11.64 131.81 11.64 98.82"/><path d="M9.22,134.21H67.88L11.19,98.53C11.25,110.83,9.16,121.92,9.22,134.21Zm-2.46,2.4.91-46.9c24.86,15.58,47.57,30.91,72.43,46.49"/><polygon class="cls-4" points="83.76 44.99 78.9 77.13 78.84 77.85 78.84 88.6 50.58 66.98 83.76 44.99"/><path d="M50.58,67l29.67,22.7.53-12.63,4.35-33ZM84.7,38.61l2.07,2.51.3,4.89L82.92,74.88l-.74,10.9L81.91,97,42.83,67.1l0-.76Z"/><polygon class="cls-4" points="6.78 44.99 11.64 77.13 11.7 77.85 11.7 88.6 39.96 66.98 6.78 44.99"/><path d="M40,67,10.29,89.68,9.76,77.05l-4.35-33ZM5.84,38.61,3.77,41.12,3.47,46,7.62,74.88l.74,10.9L8.63,97,47.71,67.1l0-.76Z"/><circle cx="18.18" cy="61.83" r="1.92"/><circle cx="26.58" cy="65.67" r="1.92"/><circle cx="69.07" cy="66.86" r="1.92"/><circle cx="72.43" cy="62.3" r="1.92"/><circle cx="20.1" cy="70.71" r="1.92"/></g></g></svg>