<svg xmlns="http://www.w3.org/2000/svg" viewBox="0 0 90.41 131.12"><defs><style>.cls-1,.cls-3{fill:#31b625;}.cls-1,.cls-2,.cls-3{stroke:#000;stroke-miterlimit:10;stroke-width:5px;}.cls-1,.cls-2,.cls-4,.cls-5{fill-rule:evenodd;}.cls-2{fill:#d4331d;}.cls-4{fill:#fff;}.cls-5{fill:#fdcd09;}</style></defs><title>classic</title><g id="Layer_2" data-name="Layer 2"><g id="Layer_1-2" data-name="Layer 1"><path d="M6.42,36.8l5.17,34.13.05.72V125.6h67.2v-54l.06-.72L84.06,36.8ZM83.64,71.64v59.48H6.84V71.65L.84,32h88.8Z"/><path class="cls-1" d="M70.3,10.56c5.08,2.37,6.44,10.24,3,17.56S63,39.47,57.92,37.1s-6.44-10.25-3-17.57S65.21,8.18,70.3,10.56Z"/><path class="cls-1" d="M84.18,20.09c4.06,1.9,4.94,8.64,1.95,15.05S77.42,45.2,73.35,43.31s-4.94-8.64-2-15S80.11,18.2,84.18,20.09Z"/><path class="cls-1" d="M20.22,10.56c-5.09,2.37-6.45,10.24-3,17.56s10.32,11.35,15.4,9,6.44-10.25,3-17.57S25.3,8.18,20.22,10.56Z"/><path class="cls-1" d="M6.2,19.81C2.14,21.71,1.29,28.51,4.31,35s8.78,10.2,12.85,8.31,4.92-8.7,1.89-15.19S10.27,17.91,6.2,19.81Z"/><path class="cls-1" d="M45.24,2.5c7,0,12.74,7.61,12.74,17s-5.71,17-12.74,17-12.73-7.61-12.73-17S38.21,2.5,45.24,2.5Z"/><path class="cls-2" d="M72.36,20.52c6.8,2.92,9,13.09,4.83,22.69s-13,15-19.8,12.09-9-13.09-4.83-22.69S65.57,17.59,72.36,20.52Z"/><path class="cls-2" d="M17.84,20.52C11.05,23.44,8.89,33.61,13,43.21s13,15,19.8,12.09,9-13.09,4.82-22.69S24.64,17.59,17.84,20.52Z"/><path class="cls-2" d="M45.24,15.73c9.13,0,16.54,9.21,16.54,20.54S54.37,56.82,45.24,56.82,28.71,47.61,28.71,36.27,36.12,15.73,45.24,15.73Z"/><ellipse class="cls-3" cx="58.13" cy="58.51" rx="22.11" ry="19.25" transform="translate(-3.67 3.9) rotate(-3.72)"/><ellipse class="cls-3" cx="31.73" cy="59.23" rx="19.25" ry="22.11" transform="matrix(0.06, -1, 1, 0.06, -29.43, 87.05)"/><polygon class="cls-4" points="45.34 60.34 81.24 87.17 45.71 110.49 8.88 87.36 45.34 60.34"/><polygon class="cls-4" points="78.47 92.61 26.04 125.6 78.47 125.6 78.47 92.61"/><path d="M81,128H22.33L79,92.32C79,104.62,81.06,115.71,81,128Zm2.47,2.4-.92-46.9C57.68,99.08,35,114.41,10.12,130"/><polygon class="cls-4" points="11.64 92.61 64.07 125.6 11.64 125.6 11.64 92.61"/><path d="M9.22,128H67.88L11.19,92.32C11.25,104.62,9.16,115.71,9.22,128Zm-2.46,2.4.91-46.9C32.53,99.08,55.24,114.41,80.1,130"/><polygon class="cls-5" points="83.76 38.78 78.9 70.92 78.84 71.64 78.84 82.39 50.58 60.77 83.76 38.78"/><path d="M50.58,60.77l29.67,22.7.53-12.63,4.35-33ZM84.7,32.4l2.07,2.51.3,4.89L82.92,68.67l-.74,10.9-.27,11.21L42.83,60.89l0-.76Z"/><polygon class="cls-5" points="6.78 38.78 11.64 70.92 11.7 71.64 11.7 82.39 39.96 60.77 6.78 38.78"/><path d="M40,60.77,10.29,83.47,9.76,70.84l-4.35-33ZM5.84,32.4,3.77,34.91l-.3,4.89L7.62,68.67l.74,10.9.27,11.21L47.71,60.89l0-.76Z"/><circle cx="18.18" cy="55.62" r="1.92"/><circle cx="26.58" cy="59.46" r="1.92"/><circle cx="69.07" cy="60.65" r="1.92"/><circle cx="72.43" cy="56.09" r="1.92"/><circle cx="20.1" cy="64.5" r="1.92"/></g></g></svg>