<svg width="66" height="87" viewBox="0 0 66 87" fill="none" xmlns="http://www.w3.org/2000/svg">
<g clip-path="url(#clip0)">
<path d="M19.9526 2.40561C18.7272 0.82588 16.455 0.537236 14.8775 1.76091C13.2999 2.98459 13.0144 5.2572 14.2398 6.83693L26.7431 22.9561C27.9685 24.5358 30.2407 24.8245 31.8182 23.6008C33.3958 22.3771 33.6813 20.1045 32.4559 18.5248L19.9526 2.40561Z" fill="#E89326" stroke="black" stroke-width="2" stroke-miterlimit="10"/>
<path d="M56.92 10.51C58.3007 10.51 59.42 9.39071 59.42 8.01C59.42 6.62929 58.3007 5.51 56.92 5.51C55.5393 5.51 54.42 6.62929 54.42 8.01C54.42 9.39071 55.5393 10.51 56.92 10.51Z" stroke="white" stroke-width="1.5" stroke-miterlimit="10"/>
<path d="M63.41 11.9C64.0396 11.9 64.55 11.3896 64.55 10.76C64.55 10.1304 64.0396 9.62 63.41 9.62C62.7804 9.62 62.27 10.1304 62.27 10.76C62.27 11.3896 62.7804 11.9 63.41 11.9Z" fill="white"/>
<path d="M63.27 5.4C63.8996 5.4 64.41 4.88961 64.41 4.26C64.41 3.6304 63.8996 3.12 63.27 3.12C62.6404 3.12 62.13 3.6304 62.13 4.26C62.13 4.88961 62.6404 5.4 63.27 5.4Z" fill="white"/>
<path d="M43.72 85.71H22.14C20.2114 85.6723 18.3598 84.946 16.9201 83.6621C15.4804 82.3783 14.5475 80.6217 14.29 78.71L6.38 27.71H59.49L51.57 78.71C51.3125 80.6217 50.3796 82.3783 48.9399 83.6621C47.5002 84.946 45.6486 85.6723 43.72 85.71Z" fill="white"/>
<path d="M30.91 27.75H1V26.37C1 23.8531 1.99984 21.4393 3.77956 19.6596C5.55928 17.8798 7.9731 16.88 10.49 16.88H55.38C57.8952 16.8826 60.3064 17.8837 62.084 19.6631C63.8615 21.4425 64.86 23.8548 64.86 26.37V27.75H56.15" fill="white"/>
<path d="M30.91 27.75H1V26.37C1 23.8531 1.99984 21.4393 3.77956 19.6596C5.55928 17.8798 7.9731 16.88 10.49 16.88H55.38C57.8952 16.8826 60.3064 17.8837 62.084 19.6631C63.8615 21.4425 64.86 23.8548 64.86 26.37V27.75H56.15" stroke="black" stroke-width="2" stroke-linecap="round" stroke-linejoin="round"/>
<path d="M48.09 27.75H36.93" stroke="black" stroke-width="2" stroke-linecap="round" stroke-linejoin="round"/>
<path d="M59.49 27.75L51.57 78.75C51.3125 80.6617 50.3796 82.4183 48.9399 83.7021C47.5002 84.986 45.6486 85.7124 43.72 85.75H22.14C20.2114 85.7124 18.3598 84.986 16.9201 83.7021C15.4804 82.4183 14.5475 80.6617 14.29 78.75L6.38 27.75" stroke="black" stroke-width="2" stroke-linecap="round" stroke-linejoin="round"/>
<path d="M48.09 32.81C41.52 32.81 36.38 39.18 27.2 39.18C19.09 39.18 16.2 36.79 11.27 34.51L17.54 76C17.7414 77.5883 18.5024 79.0528 19.6864 80.1305C20.8704 81.2082 22.3998 81.8285 24 81.88H41.84C43.4443 81.8352 44.9796 81.2177 46.1682 80.1392C47.3567 79.0607 48.12 77.5924 48.32 76L54.49 35.23C52.6647 33.7695 50.425 32.9226 48.09 32.81V32.81Z" fill="#85C044"/>
<path d="M48.32 74C33.61 74 29.5 67 22.79 67C20.5533 67.0145 18.3919 67.8104 16.68 69.25L17.54 76C17.7414 77.5883 18.5024 79.0528 19.6864 80.1305C20.8704 81.2082 22.3998 81.8285 24 81.88H41.84C43.4443 81.8352 44.9796 81.2177 46.1681 80.1392C47.3567 79.0607 48.12 77.5924 48.32 76L48.62 74H48.32Z" fill="#40672D"/>
<path d="M20.35 65.87L20.96 69.52" stroke="white" stroke-width="2.4" stroke-miterlimit="10" stroke-linecap="round"/>
<path d="M17.4 48.27L19.65 62" stroke="white" stroke-width="2.2" stroke-miterlimit="10" stroke-linecap="round"/>
<path d="M47.2588 49.5534L48.6875 43.7672C48.8411 43.1452 48.4614 42.5165 47.8394 42.3629L42.0532 40.9342C41.4312 40.7806 40.8025 41.1603 40.6489 41.7823L39.2202 47.5685C39.0666 48.1905 39.4463 48.8192 40.0683 48.9727L45.8545 50.4015C46.4765 50.555 47.1052 50.1753 47.2588 49.5534Z" fill="#558A44"/>
<path d="M44.2514 56.9602L43.4466 51.9805C43.3777 51.554 42.976 51.2642 42.5496 51.3331L37.5699 52.1379C37.1434 52.2068 36.8536 52.6084 36.9225 53.0349L37.7273 58.0146C37.7962 58.4411 38.1978 58.7309 38.6243 58.662L43.604 57.8572C44.0304 57.7883 44.3203 57.3867 44.2514 56.9602Z" fill="#558A44"/>
<path d="M38.3523 49.517L34.5401 44.1784C34.2737 43.8054 33.7553 43.7189 33.3823 43.9853L28.0437 47.7975C27.6706 48.0639 27.5842 48.5822 27.8505 48.9553L31.6628 54.2939C31.9291 54.6669 32.4475 54.7534 32.8206 54.487L38.1592 50.6748C38.5322 50.4084 38.6187 49.8901 38.3523 49.517Z" fill="#558A44"/>
<path d="M34.67 73.7C36.1888 73.7 37.42 72.4688 37.42 70.95C37.42 69.4312 36.1888 68.2 34.67 68.2C33.1512 68.2 31.92 69.4312 31.92 70.95C31.92 72.4688 33.1512 73.7 34.67 73.7Z" fill="white"/>
<path d="M31.67 63.47C32.4984 63.47 33.17 62.7984 33.17 61.97C33.17 61.1416 32.4984 60.47 31.67 60.47C30.8416 60.47 30.17 61.1416 30.17 61.97C30.17 62.7984 30.8416 63.47 31.67 63.47Z" fill="white"/>
<path d="M36.18 63.72C36.7323 63.72 37.18 63.2723 37.18 62.72C37.18 62.1677 36.7323 61.72 36.18 61.72C35.6277 61.72 35.18 62.1677 35.18 62.72C35.18 63.2723 35.6277 63.72 36.18 63.72Z" fill="white"/>
<path d="M40.13 68.47C41.0965 68.47 41.88 67.6865 41.88 66.72C41.88 65.7535 41.0965 64.97 40.13 64.97C39.1635 64.97 38.38 65.7535 38.38 66.72C38.38 67.6865 39.1635 68.47 40.13 68.47Z" fill="white"/>
<path d="M30.96 67.17C31.4571 67.17 31.86 66.767 31.86 66.27C31.86 65.7729 31.4571 65.37 30.96 65.37C30.4629 65.37 30.06 65.7729 30.06 66.27C30.06 66.767 30.4629 67.17 30.96 67.17Z" fill="white"/>
</g>
<defs>
<clipPath id="clip0">
<rect width="65.86" height="86.71" fill="white"/>
</clipPath>
</defs>
</svg>
