<svg width="53" height="70" viewBox="0 0 53 70" fill="none" xmlns="http://www.w3.org/2000/svg">
<g clip-path="url(#clip0)">
<path d="M10.3675 1.7277L10.3596 1.7338C8.95036 2.82197 8.69006 4.84654 9.77822 6.2558L20.9168 20.6812C22.005 22.0905 24.0296 22.3508 25.4388 21.2626L25.4467 21.2565C26.856 20.1683 27.1163 18.1438 26.0281 16.7345L14.8895 2.3091C13.8014 0.899836 11.7768 0.639534 10.3675 1.7277Z" fill="#818F8A" stroke="black" stroke-width="2" stroke-miterlimit="10"/>
<path d="M6.46003 14.07H40.59C41.0329 14.07 41.4577 14.2459 41.7709 14.5591C42.0841 14.8723 42.26 15.2971 42.26 15.74V52.36C42.26 54.4743 41.8436 56.5679 41.0345 58.5212C40.2254 60.4745 39.0395 62.2494 37.5444 63.7444C36.0494 65.2394 34.2746 66.4254 32.3212 67.2345C30.3679 68.0436 28.2743 68.46 26.16 68.46H20.38C16.11 68.46 12.0149 66.7638 8.99561 63.7444C5.97627 60.7251 4.28003 56.63 4.28003 52.36V16.25C4.28003 15.9637 4.33642 15.6802 4.44597 15.4158C4.55553 15.1513 4.7161 14.9109 4.91854 14.7085C5.12097 14.5061 5.36129 14.3455 5.62578 14.2359C5.89027 14.1264 6.17375 14.07 6.46003 14.07Z" fill="white" stroke="black" stroke-width="2" stroke-miterlimit="10"/>
<path d="M26.9301 20.06C22.5301 20.06 21.3501 22.51 13.9301 22.51C12.1462 22.4027 10.3925 22.0006 8.74006 21.32C8.58315 21.259 8.41338 21.2386 8.24649 21.2607C8.0796 21.2828 7.92099 21.3467 7.78536 21.4464C7.64973 21.5461 7.54147 21.6785 7.47062 21.8312C7.39977 21.9839 7.36862 22.152 7.38006 22.32V51.71C7.38006 58.6 13.0701 65.18 20.1001 65.18H26.7001C33.7001 65.18 39.4201 58.6 39.4201 51.71V25C39.4224 24.7573 39.3365 24.5221 39.1783 24.3381C39.0201 24.1541 38.8003 24.034 38.5601 24C32.0001 22.88 30.6701 20.06 26.9301 20.06Z" fill="#E5772E"/>
<path d="M41.34 8.89C42.7207 8.89 43.84 7.77071 43.84 6.39C43.84 5.00929 42.7207 3.89 41.34 3.89C39.9593 3.89 38.84 5.00929 38.84 6.39C38.84 7.77071 39.9593 8.89 41.34 8.89Z" stroke="white" stroke-width="1.5" stroke-miterlimit="10"/>
<path d="M47.83 10.28C48.4596 10.28 48.97 9.7696 48.97 9.14C48.97 8.5104 48.4596 8 47.83 8C47.2004 8 46.69 8.5104 46.69 9.14C46.69 9.7696 47.2004 10.28 47.83 10.28Z" fill="white"/>
<path d="M47.69 3.78C48.3197 3.78 48.8301 3.2696 48.8301 2.64C48.8301 2.0104 48.3197 1.5 47.69 1.5C47.0604 1.5 46.55 2.0104 46.55 2.64C46.55 3.2696 47.0604 3.78 47.69 3.78Z" fill="white"/>
<path d="M32.5362 41.3853L32.5265 41.3827C30.7441 40.9078 28.9141 41.9677 28.4392 43.7502L28.4366 43.7598C27.9617 45.5423 29.0216 47.3722 30.8041 47.8472L30.8137 47.8497C32.5962 48.3247 34.4261 47.2647 34.9011 45.4823L34.9036 45.4726C35.3786 43.6902 34.3186 41.8602 32.5362 41.3853Z" fill="white"/>
<path d="M27.4405 49.4745C26.2108 47.5142 23.6248 46.922 21.6645 48.1516C19.7042 49.3813 19.1119 51.9673 20.3416 53.9277C21.5713 55.888 24.1573 56.4802 26.1176 55.2505C28.0779 54.0208 28.6702 51.4348 27.4405 49.4745Z" fill="white"/>
<path d="M29.5801 33.76C30.4195 33.76 31.1001 33.0795 31.1001 32.24C31.1001 31.4005 30.4195 30.72 29.5801 30.72C28.7406 30.72 28.0601 31.4005 28.0601 32.24C28.0601 33.0795 28.7406 33.76 29.5801 33.76Z" stroke="#FFCF9F" stroke-width="1.3" stroke-miterlimit="10"/>
<path d="M26.58 26.31C27.1599 26.31 27.63 25.8399 27.63 25.26C27.63 24.6801 27.1599 24.21 26.58 24.21C26.0001 24.21 25.53 24.6801 25.53 25.26C25.53 25.8399 26.0001 26.31 26.58 26.31Z" fill="#FFCF9F"/>
<path d="M31.09 27.01C31.6423 27.01 32.09 26.5623 32.09 26.01C32.09 25.4577 31.6423 25.01 31.09 25.01C30.5377 25.01 30.09 25.4577 30.09 26.01C30.09 26.5623 30.5377 27.01 31.09 27.01Z" fill="#FFCF9F"/>
<path d="M34.04 30.01C34.5923 30.01 35.04 29.5623 35.04 29.01C35.04 28.4577 34.5923 28.01 34.04 28.01C33.4878 28.01 33.04 28.4577 33.04 29.01C33.04 29.5623 33.4878 30.01 34.04 30.01Z" fill="#FFCF9F"/>
<path d="M25.87 30.47C26.3671 30.47 26.77 30.0671 26.77 29.57C26.77 29.0729 26.3671 28.67 25.87 28.67C25.373 28.67 24.97 29.0729 24.97 29.57C24.97 30.0671 25.373 30.47 25.87 30.47Z" fill="#FFCF9F"/>
<path d="M22.16 51.7C22.6516 51.7 23.05 51.3015 23.05 50.81C23.05 50.3185 22.6516 49.92 22.16 49.92C21.6685 49.92 21.27 50.3185 21.27 50.81C21.27 51.3015 21.6685 51.7 22.16 51.7Z" fill="#E5772E"/>
<path d="M27.1326 43.664L27.1369 43.6549C28.1305 41.5895 27.2616 39.1097 25.1962 38.1161L25.1872 38.1118C23.1218 37.1182 20.6419 37.9871 19.6484 40.0525L19.644 40.0616C18.6505 42.127 19.5194 44.6068 21.5848 45.6004L21.5938 45.6047C23.6592 46.5983 26.139 45.7294 27.1326 43.664Z" fill="white"/>
<path d="M25.33 42.57C25.8215 42.57 26.22 42.1715 26.22 41.68C26.22 41.1885 25.8215 40.79 25.33 40.79C24.8385 40.79 24.44 41.1885 24.44 41.68C24.44 42.1715 24.8385 42.57 25.33 42.57Z" fill="#E5772E"/>
<path d="M11.25 53.65C11.25 56.13 13.08 58.65 16.03 59.87" stroke="white" stroke-width="2.4" stroke-miterlimit="10" stroke-linecap="round"/>
<path d="M10.9 46.95V49.35" stroke="white" stroke-width="2.4" stroke-miterlimit="10" stroke-linecap="round"/>
<path d="M40.39 66.61C45.9129 66.61 50.39 62.1328 50.39 56.61C50.39 51.0872 45.9129 46.61 40.39 46.61C34.8672 46.61 30.39 51.0872 30.39 56.61C30.39 62.1328 34.8672 66.61 40.39 66.61Z" fill="white" stroke="black" stroke-width="1.5" stroke-miterlimit="10"/>
<path d="M37.33 50C38.2916 49.5652 39.3347 49.3402 40.39 49.34C41.4533 49.3318 42.5056 49.5546 43.4743 49.9932C44.4429 50.4318 45.3047 51.0755 46 51.88" stroke="#CCCCCC" stroke-width="1.5" stroke-miterlimit="10" stroke-linecap="round"/>
<path d="M28.84 52.83C28.2663 54.5377 28.0885 56.3535 28.32 58.14C28.6838 60.8898 29.97 63.4348 31.9682 65.3585C33.9664 67.2823 36.5584 68.4709 39.32 68.73C41.4596 68.9237 43.6122 68.5451 45.5574 67.6331C47.5026 66.7212 49.1704 65.3086 50.39 63.54C50.5067 63.3692 50.585 63.1751 50.6195 62.9711C50.6539 62.7672 50.6437 62.5581 50.5895 62.3585C50.5353 62.1589 50.4384 61.9733 50.3056 61.8148C50.1727 61.6562 50.0071 61.5283 49.82 61.44C43.95 58.53 35.93 54.57 30.82 52.03C30.6398 51.9373 30.4417 51.8845 30.2392 51.8753C30.0368 51.866 29.8347 51.9006 29.6468 51.9765C29.4589 52.0524 29.2895 52.168 29.1503 52.3152C29.0111 52.4625 28.9052 52.6381 28.84 52.83V52.83Z" fill="#E52D1D" stroke="black" stroke-width="1.5" stroke-miterlimit="10"/>
<path d="M32 58.66C32.5213 60.3713 33.5408 61.8885 34.9283 63.0177C36.3159 64.147 38.0085 64.8371 39.79 65C41.1934 65.199 42.6246 65.0124 43.93 64.46" stroke="#550E00" stroke-width="1.5" stroke-miterlimit="10" stroke-linecap="round"/>
<path d="M35.85 58.66C36.3097 59.7418 37.1167 60.6397 38.1434 61.2119C39.1701 61.7841 40.3582 61.9981 41.52 61.82" stroke="#550E00" stroke-width="1.5" stroke-miterlimit="10" stroke-linecap="round"/>
</g>
<defs>
<clipPath id="clip0">
<rect width="52.18" height="69.53" fill="white"/>
</clipPath>
</defs>
</svg>
