<svg width="37" height="48" viewBox="0 0 37 48" fill="none" xmlns="http://www.w3.org/2000/svg">
<g clip-path="url(#clip0)">
<path d="M22.58 46.84C21.8038 46.84 21.0382 46.6593 20.3439 46.3122C19.6497 45.965 19.0457 45.461 18.58 44.84L18.02 44.13L17.47 44.84C16.9709 45.4796 16.3236 45.9882 15.5841 46.3218C14.8445 46.6554 14.0349 46.8041 13.2251 46.7549C12.4152 46.7057 11.6295 46.4602 10.9358 46.0396C10.242 45.6189 9.66105 45.0358 9.24299 44.3405C8.82494 43.6452 8.58236 42.8586 8.53619 42.0486C8.49003 41.2386 8.64167 40.4295 8.97802 39.6912C9.31438 38.9529 9.82534 38.3075 10.4668 37.8108C11.1083 37.314 11.861 36.9809 12.66 36.84L13.24 36.74V26.39H22.84V36.75L23.42 36.86C24.7461 36.9767 25.9715 37.6154 26.8267 38.6356C27.6818 39.6558 28.0967 40.9739 27.98 42.3C27.8633 43.6261 27.2246 44.8515 26.2044 45.7067C25.1842 46.5618 23.8661 46.9767 22.54 46.86L22.58 46.84Z" fill="white"/>
<path d="M22.18 27.09V37.34L23.34 37.54C24.4148 37.7205 25.382 38.2996 26.0485 39.1618C26.7151 40.024 27.0321 41.1058 26.9361 42.1914C26.8402 43.277 26.3384 44.2864 25.531 45.0184C24.7235 45.7503 23.6698 46.1508 22.58 46.14C21.9207 46.1408 21.2702 45.9897 20.6788 45.6983C20.0874 45.407 19.5711 44.9832 19.17 44.46L18.06 43L17 44.46C16.5687 45.0176 16.0077 45.4614 15.3659 45.7529C14.7241 46.0444 14.0208 46.1749 13.3171 46.1328C12.6134 46.0908 11.9306 45.8776 11.328 45.5118C10.7255 45.1459 10.2213 44.6385 9.85943 44.0336C9.49751 43.4286 9.28877 42.7445 9.25132 42.0405C9.21388 41.3366 9.34887 40.6342 9.64457 39.9942C9.94026 39.3543 10.3877 38.7963 10.9481 38.3686C11.5084 37.9409 12.1647 37.6564 12.86 37.54L14.02 37.34V27.09H22.22H22.18ZM23.62 25.69H12.62V36.16C11.7004 36.3147 10.8325 36.6914 10.0915 37.2576C9.35051 37.8238 8.75892 38.5622 8.36805 39.4089C7.97719 40.2555 7.79886 41.1848 7.84855 42.116C7.89823 43.0471 8.17444 43.9521 8.65319 44.7524C9.13193 45.5526 9.79875 46.2239 10.5958 46.708C11.3928 47.1921 12.2959 47.4744 13.2267 47.5303C14.1576 47.5862 15.088 47.4142 15.9372 47.029C16.7865 46.6438 17.5289 46.0572 18.1 45.32C18.6697 46.0565 19.4103 46.6431 20.2576 47.029C21.105 47.4149 22.0337 47.5885 22.9632 47.5347C23.8928 47.4809 24.7952 47.2015 25.5925 46.7204C26.3897 46.2394 27.0577 45.5714 27.5387 44.7741C28.0197 43.9769 28.2991 43.0744 28.3528 42.1448C28.4066 41.2153 28.233 40.2866 27.847 39.4393C27.4611 38.5919 26.8745 37.8514 26.138 37.2817C25.4014 36.7121 24.5372 36.3305 23.62 36.17V25.69Z" fill="black"/>
<path d="M18.06 29.83C13.4698 29.822 9.07004 27.9944 5.82522 24.7477C2.58039 21.501 0.755287 17.1002 0.75 12.51V1.86998C0.749994 1.72206 0.779292 1.5756 0.836201 1.43906C0.893111 1.30252 0.976505 1.1786 1.08157 1.07447C1.18663 0.970334 1.31128 0.888045 1.44832 0.832351C1.58536 0.776658 1.73208 0.748663 1.88 0.749984H34.25C34.547 0.749984 34.8319 0.867983 35.042 1.07802C35.252 1.28806 35.37 1.57294 35.37 1.86998V12.51C35.3674 17.101 33.5431 21.5033 30.2977 24.7506C27.0523 27.9979 22.651 29.8247 18.06 29.83Z" fill="#9C272D"/>
<path d="M34.25 1.5C34.2994 1.49998 34.3484 1.50987 34.3939 1.52909C34.4395 1.54831 34.4807 1.57646 34.5152 1.61188C34.5497 1.64731 34.5768 1.68928 34.5948 1.73533C34.6128 1.78139 34.6213 1.83058 34.62 1.88V12.51C34.62 16.902 32.8753 21.1141 29.7697 24.2197C26.6641 27.3253 22.452 29.07 18.06 29.07C13.668 29.07 9.45591 27.3253 6.35031 24.2197C3.24471 21.1141 1.5 16.902 1.5 12.51V1.88C1.5 1.77922 1.54004 1.68256 1.6113 1.6113C1.68256 1.54004 1.77922 1.5 1.88 1.5H34.25ZM34.25 0H1.88C1.38139 0 0.903208 0.198071 0.550639 0.550639C0.198071 0.903208 0 1.38139 0 1.88L0 12.51C0 17.2998 1.90274 21.8934 5.28965 25.2803C8.67656 28.6673 13.2702 30.57 18.06 30.57C22.8498 30.57 27.4434 28.6673 30.8303 25.2803C34.2173 21.8934 36.12 17.2998 36.12 12.51V1.88C36.12 1.38312 35.9233 0.906445 35.5729 0.554162C35.2225 0.20188 34.7469 0.00264297 34.25 0V0Z" fill="black"/>
<path d="M18.06 29.87C16.4052 29.7983 14.7673 29.5057 13.19 29C13.1118 28.4327 13.1118 27.8573 13.19 27.29V26.94C13.2903 25.8276 13.5048 24.7285 13.83 23.66C14.3112 22.1691 14.5278 20.6056 14.47 19.04C14.0981 16.4015 13.2077 13.8627 11.85 11.57L11.72 11.31C10.5044 9.25432 9.62977 7.01534 9.13 4.68001C8.91458 3.34341 9.04188 1.974 9.5 0.700012H23.05C21.9146 3.48751 21.8682 6.5999 22.92 9.42001C23.13 9.95001 23.34 10.47 23.56 10.97C24.3609 12.6299 24.8491 14.4232 25 16.26C24.9374 17.9814 24.5577 19.6764 23.88 21.26C23.314 22.6741 22.9212 24.1515 22.71 25.66C22.71 25.86 22.66 26.06 22.63 26.27C22.4501 27.2182 22.4501 28.1918 22.63 29.14C21.1591 29.6407 19.6137 29.8876 18.06 29.87Z" fill="#ED1C24"/>
<path d="M22.06 1.4C21.2019 4.10241 21.2759 7.01463 22.27 9.67C22.48 10.21 22.7 10.73 22.91 11.25C23.6961 12.8122 24.1812 14.5084 24.34 16.25C24.2741 17.8861 23.908 19.4962 23.26 21C22.6757 22.4661 22.2695 23.9971 22.05 25.56C22.05 25.75 22 25.95 21.98 26.15C21.8456 26.9661 21.812 27.7957 21.88 28.62C20.641 28.9889 19.3525 29.1643 18.06 29.14C16.6259 29.0803 15.2049 28.8418 13.83 28.43C13.7998 28.0606 13.7998 27.6894 13.83 27.32V26.96C13.9249 25.8952 14.1293 24.8429 14.44 23.82C14.9636 22.2689 15.2041 20.6362 15.15 19C14.7772 16.2713 13.8663 13.6438 12.47 11.27L12.33 11C11.1501 9.01055 10.3024 6.84214 9.82 4.58C9.66178 3.51885 9.72304 2.43652 10 1.4H22.06ZM24.14 0H9C8.3572 1.50594 8.14934 3.1619 8.4 4.78C8.93725 7.29222 9.87955 9.70033 11.19 11.91C12.5038 14.1223 13.3671 16.5727 13.73 19.12C13.96 21.92 12.62 24.12 12.45 26.91C12.3293 27.7991 12.3631 28.7024 12.55 29.58C14.326 30.1478 16.1679 30.4839 18.03 30.58C19.9168 30.5999 21.7901 30.2605 23.55 29.58C22.97 28.42 23.28 27.03 23.41 25.74C23.75 22.45 25.81 19.54 25.71 16.24C25.62 13.64 24.48 11.59 23.54 9.16C22.9966 7.67557 22.7693 6.09401 22.8726 4.51664C22.976 2.93926 23.4076 1.40086 24.14 0Z" fill="black"/>
<path d="M4.26 13.87C4.63396 16.924 5.98432 19.7755 8.11 22" stroke="white" stroke-width="2" stroke-linecap="round" stroke-linejoin="round"/>
<path d="M3.8 7.37V10.21" stroke="white" stroke-width="2" stroke-linecap="round" stroke-linejoin="round"/>
<path d="M25.33 40.77C25.4351 41.6028 25.2302 42.4451 24.7545 43.1366C24.2787 43.8281 23.5653 44.3205 22.75 44.52" stroke="#CCCCCC" stroke-width="1.4" stroke-miterlimit="10" stroke-linecap="round"/>
<path d="M16.39 40.77C16.4951 41.6028 16.2902 42.4451 15.8145 43.1366C15.3387 43.8281 14.6253 44.3205 13.81 44.52" stroke="#CCCCCC" stroke-width="1.4" stroke-miterlimit="10" stroke-linecap="round"/>
</g>
<defs>
<clipPath id="clip0">
<rect width="36.12" height="47.54" fill="white"/>
</clipPath>
</defs>
</svg>
