<svg width="291" height="213" viewBox="0 0 291 213" fill="none" xmlns="http://www.w3.org/2000/svg">
<path d="M120.64 110.535H122.602C122.893 110.535 123.111 110.302 123.111 110.01L123.097 104.653L125.496 107.666C125.656 107.885 125.932 108.016 126.223 108.016C126.484 108.016 126.761 107.899 126.964 107.623L129.305 104.653V110.01C129.305 110.302 129.567 110.535 129.858 110.535H131.806C132.097 110.535 132.315 110.302 132.315 110.01V100.853C132.315 100.576 132.082 100.343 131.806 100.343H129.843C129.669 100.343 129.218 100.314 128.956 100.562L126.121 103.517L123.417 100.547C123.344 100.445 123.082 100.343 122.893 100.343H120.64C120.349 100.343 120.116 100.591 120.116 100.853V110.01C120.116 110.287 120.349 110.535 120.64 110.535Z" fill="#111111"/>
<path d="M141.958 110.826C144.895 110.826 147.295 108.438 147.295 105.497C147.295 102.556 144.895 100.168 141.958 100.168C139.021 100.168 136.637 102.556 136.637 105.497C136.637 108.438 139.021 110.826 141.958 110.826ZM141.915 107.681C140.621 107.681 139.603 106.633 139.603 105.366C139.603 104.099 140.621 103.066 141.915 103.066C143.151 103.066 144.227 104.099 144.227 105.366C144.227 106.633 143.151 107.681 141.915 107.681Z" fill="#111111"/>
<path d="M157.795 110.549H159.568C160.005 110.549 160.237 110.345 160.237 110.01C160.295 109.035 159.946 107.099 158.405 106.356L158.391 106.342C159.016 105.905 159.699 105.352 159.816 104.085C159.816 103.721 159.83 103.692 159.816 103.415C159.699 101.275 158.362 100.314 155.454 100.329H152.153C151.732 100.329 151.412 100.591 151.412 100.882V105.948L151.397 109.879C151.397 110.302 151.761 110.564 152.371 110.549H153.723C154.741 110.549 154.756 110.156 154.756 109.719V107.856L154.77 107.841C154.872 107.812 154.945 107.812 155.017 107.812C155.09 107.812 155.163 107.812 155.265 107.827C156.079 107.899 156.937 108.205 157.169 109.661C157.213 109.967 157.111 110.549 157.795 110.549ZM155.003 105.104H154.305H154.261H154.16V102.498H155.352C156.282 102.498 156.791 102.92 156.791 103.75C156.791 105.104 155.454 105.104 155.003 105.104Z" fill="#111111"/>
<path d="M167.828 102.906H172.161C172.481 102.906 172.786 102.6 172.786 102.25V100.984C172.786 100.605 172.481 100.343 172.161 100.343H165.255C164.935 100.343 164.644 100.605 164.644 100.984V108.613V109.879C164.644 110.229 164.935 110.535 165.255 110.535H172.161C172.481 110.535 172.786 110.229 172.786 109.879V108.613C172.786 108.22 172.481 107.958 172.161 107.958H167.828V106.647H171.958C172.263 106.647 172.554 106.342 172.554 106.007V104.725C172.554 104.347 172.263 104.085 171.958 104.085H167.828V102.906Z" fill="#111111"/>
<g filter="url(#filter0_d)">
<path d="M23.8002 206.123L3.91138 151.063C3.76509 150.662 3.70234 150.235 3.72697 149.809C3.7516 149.383 3.86311 148.967 4.05461 148.585C4.23641 148.183 4.49852 147.822 4.82482 147.526C5.15111 147.229 5.53468 147.002 5.95187 146.859L19.5015 141.951C20.137 141.733 20.809 141.641 21.4798 141.68C22.0379 141.668 22.5907 141.79 23.0915 142.037L45.8026 154.006L56.4297 130.061C56.8447 129.22 57.5109 128.529 58.336 128.084C59.2907 127.595 60.2772 127.172 61.2887 126.817L73.0897 122.542C73.49 122.396 73.9161 122.333 74.3416 122.358C74.767 122.382 75.183 122.494 75.5637 122.686C75.955 122.856 76.3073 123.104 76.5989 123.416C76.8906 123.727 77.1154 124.095 77.2595 124.497L97.1484 179.558C97.3057 179.966 97.3807 180.401 97.3691 180.839C97.3575 181.276 97.2595 181.707 97.0808 182.106C96.91 182.506 96.6566 182.866 96.3372 183.16C96.0177 183.455 95.6396 183.679 95.2275 183.817L83.5101 188.061C82.65 188.378 81.7008 188.349 80.8614 187.981C80.4421 187.82 80.0628 187.569 79.7499 187.247C79.437 186.924 79.1981 186.537 79.0498 186.113L67.4136 153.899L59.7889 176.854C59.5628 177.764 59.1152 178.603 58.4862 179.297C57.8572 179.992 57.0663 180.519 56.1842 180.833C55.3223 181.148 54.4 181.262 53.4875 181.166C52.6184 181.091 51.7822 180.798 51.0556 180.315L30.0837 167.42L41.8072 199.602C41.9645 200.01 42.0396 200.446 42.028 200.883C42.0164 201.321 41.9184 201.752 41.7396 202.151C41.5689 202.551 41.3154 202.91 40.996 203.205C40.6766 203.5 40.2984 203.724 39.8864 203.862L28.0862 208.136C27.67 208.293 27.2252 208.361 26.7811 208.334C26.337 208.307 25.9035 208.187 25.5092 207.98C25.1159 207.799 24.7624 207.542 24.4691 207.223C24.1758 206.904 23.9484 206.53 23.8002 206.123V206.123Z" fill="#D92C27"/>
</g>
<g filter="url(#filter1_d)">
<path d="M123.89 143.446L123.627 150.985L149.835 151.901C150.333 151.922 150.821 152.043 151.269 152.259C151.718 152.475 152.117 152.781 152.444 153.157C152.813 153.554 153.098 154.023 153.28 154.534C153.463 155.045 153.538 155.588 153.503 156.13L153.221 164.226C153.181 165.288 152.729 166.292 151.96 167.025C151.621 167.4 151.205 167.699 150.74 167.9C150.276 168.1 149.773 168.199 149.268 168.188L123.059 167.272L122.77 175.555L150.28 176.517C150.793 176.53 151.297 176.649 151.762 176.866C152.227 177.082 152.643 177.392 152.984 177.776C153.359 178.188 153.647 178.672 153.828 179.2C154.01 179.727 154.082 180.285 154.04 180.841L153.761 188.844C153.733 189.936 153.28 190.974 152.497 191.735C152.143 192.118 151.711 192.42 151.23 192.62C150.748 192.821 150.23 192.914 149.709 192.896L105.84 191.362C105.319 191.344 104.808 191.214 104.342 190.981C103.876 190.747 103.466 190.416 103.139 190.009C102.413 189.195 102.034 188.129 102.082 187.038L104.052 130.546C104.055 130.003 104.168 129.467 104.385 128.97C104.603 128.472 104.92 128.025 105.316 127.655C105.683 127.296 106.119 127.016 106.597 126.833C107.076 126.649 107.587 126.566 108.099 126.588L151.968 128.121C152.48 128.135 152.985 128.254 153.45 128.471C153.915 128.687 154.331 128.997 154.672 129.381C155.042 129.778 155.326 130.246 155.509 130.757C155.691 131.268 155.767 131.812 155.731 132.353L155.449 140.45C155.427 140.98 155.3 141.5 155.075 141.98C154.85 142.46 154.532 142.891 154.139 143.246C153.789 143.621 153.364 143.917 152.892 144.117C152.42 144.317 151.912 144.417 151.4 144.408L123.89 143.446Z" fill="#D92C27"/>
</g>
<g filter="url(#filter2_d)">
<path d="M159.027 177.115C159.102 176.054 159.348 175.012 159.756 174.031C160.169 173.03 160.41 172.47 160.481 172.35L184.792 121.369C185.379 120.171 186.311 119.177 187.468 118.515C188.675 117.86 190.039 117.551 191.409 117.622L204.801 118.56C206.238 118.665 207.605 119.219 208.709 120.144C209.649 120.935 210.326 121.995 210.646 123.181L227.813 177.07C227.854 177.385 227.995 178.034 228.238 179.018C228.474 179.925 228.566 180.864 228.511 181.801C228.352 184.033 227.021 185.249 224.518 185.449L211.776 184.556C210.633 184.511 209.517 184.193 208.523 183.626C208.124 183.405 207.777 183.101 207.505 182.736C207.232 182.37 207.041 181.95 206.943 181.504L204.711 171.989L183.972 170.535L180.442 179.646C180.287 180.069 180.046 180.455 179.734 180.78C179.421 181.104 179.045 181.36 178.628 181.53C177.582 181.957 176.447 182.118 175.324 182L162.4 181.094C160.004 180.551 158.879 179.225 159.027 177.115ZM196.418 155.595L202.463 156.019L196.647 133.617L187.863 154.992L196.418 155.595Z" fill="#D92C27"/>
</g>
<g filter="url(#filter3_d)">
<path d="M287.021 150.602C287.509 150.778 287.957 151.05 288.339 151.402C288.721 151.754 289.029 152.179 289.245 152.651C289.485 153.092 289.63 153.58 289.669 154.081C289.709 154.582 289.644 155.086 289.477 155.56L285.787 165.711C285.608 166.203 285.329 166.653 284.969 167.033C284.609 167.413 284.176 167.716 283.695 167.921C283.228 168.158 282.718 168.296 282.196 168.328C281.673 168.36 281.15 168.284 280.658 168.106L266.844 163.071L252.467 202.625C252.123 203.663 251.4 204.532 250.444 205.059C250.007 205.311 249.52 205.462 249.017 205.503C248.515 205.543 248.01 205.471 247.539 205.291L235.919 201.056C235.446 200.894 235.014 200.631 234.653 200.285C234.292 199.94 234.009 199.52 233.826 199.055C233.42 198.053 233.419 196.934 233.823 195.932L248.844 156.513L234.861 151.417C234.343 151.244 233.867 150.964 233.464 150.595C233.061 150.226 232.74 149.775 232.522 149.274C232.3 148.804 232.173 148.294 232.15 147.775C232.126 147.255 232.206 146.736 232.385 146.248L236.075 136.097C236.242 135.619 236.508 135.181 236.855 134.812C237.202 134.444 237.623 134.153 238.09 133.958C238.583 133.742 239.114 133.627 239.652 133.619C240.19 133.611 240.725 133.71 241.224 133.911L287.021 150.602Z" fill="#D92C27"/>
</g>
<path d="M278.932 106.851C279.261 104.809 279.167 102.722 278.654 100.718C278.142 98.7152 277.222 96.8391 275.954 95.2074C268.135 84.9237 253.571 88.4739 247.279 92.7009C242.205 96.051 237.77 100.283 234.185 105.197C230.659 110.076 228.702 113.911 228.311 116.702C228.064 118.415 228.618 119.044 229.973 118.589C236.431 116.372 242.087 115.604 246.94 116.286C248.545 116.508 250.128 116.868 251.671 117.361C253.212 117.848 254.195 118.174 254.635 118.331C256.798 119.08 259.015 119.66 261.267 120.069C263.306 120.394 265.39 120.297 267.391 119.784C269.391 119.271 271.266 118.353 272.898 117.086C274.549 115.882 275.936 114.352 276.973 112.59C278.011 110.828 278.676 108.872 278.929 106.842L278.932 106.851Z" fill="black"/>
<path d="M259.014 92.8851C259.5 92.7744 259.994 92.7032 260.491 92.6723C261.001 92.6426 261.512 92.647 262.022 92.6853C263.039 92.7532 264.043 92.9591 265.005 93.2974C265.244 93.3773 265.479 93.4701 265.708 93.5754C265.944 93.6657 266.174 93.7719 266.396 93.8932L267.054 94.26L267.69 94.6755C268.11 94.9519 268.513 95.2522 268.898 95.5749C269.285 95.9015 269.637 96.27 270.011 96.6109L270.091 96.6883C270.293 96.8469 270.547 96.9236 270.803 96.9031C271.059 96.8827 271.298 96.7666 271.472 96.5779C271.646 96.3893 271.743 96.1419 271.744 95.8849C271.744 95.6279 271.648 95.3801 271.474 95.1909L271.425 95.1482C270.974 94.7842 270.549 94.4017 270.077 94.0653C269.613 93.7271 269.132 93.4143 268.634 93.1284C268.383 92.9908 268.135 92.8437 267.878 92.7134L267.08 92.3664C266.818 92.2475 266.548 92.1465 266.272 92.064C266.003 91.9631 265.729 91.8766 265.45 91.8047C264.345 91.4996 263.205 91.3449 262.058 91.3448C261.489 91.343 260.92 91.3776 260.355 91.4485C259.778 91.5251 259.209 91.6518 258.654 91.827C258.528 91.88 258.426 91.977 258.366 92.0998C258.306 92.2227 258.292 92.3632 258.327 92.4954C258.363 92.6276 258.445 92.7424 258.558 92.8188C258.671 92.8951 258.809 92.9277 258.944 92.9106L259.014 92.8851Z" fill="white"/>
<path d="M272.843 97.2495C272.207 97.4201 271.83 98.0748 272 98.7116C272.171 99.3485 272.824 99.7265 273.46 99.5558C274.096 99.3852 274.474 98.7305 274.303 98.0936C274.133 97.4568 273.479 97.0788 272.843 97.2495Z" fill="white"/>
<path d="M4.05546 100.509C4.0508 98.9582 4.36538 97.4229 4.97958 95.9991C5.59378 94.5754 6.49441 93.2936 7.62529 92.2338C14.6237 85.5323 24.9954 89.8756 29.16 93.7456C32.5263 96.8233 35.3156 100.479 37.3961 104.54C39.4364 108.569 40.4375 111.64 40.3995 113.752C40.3814 115.051 39.8974 115.452 38.9476 114.956C34.423 112.554 30.3234 111.321 26.6488 111.256C25.4341 111.232 24.2197 111.312 23.0189 111.497C21.8206 111.676 21.0546 111.802 20.71 111.867C19.0196 112.168 17.3086 112.338 15.5922 112.376C14.0434 112.377 12.5109 112.061 11.0891 111.445C9.6674 110.83 8.38669 109.93 7.32609 108.8C6.24417 107.714 5.39592 106.418 4.83368 104.992C4.27144 103.565 4.00714 102.038 4.0571 100.505L4.05546 100.509Z" fill="black"/>
<path d="M20.4458 92.5034C20.0989 92.3642 19.7413 92.2534 19.3765 92.1719C19.0024 92.0901 18.6234 92.0332 18.2418 92.0016C17.4798 91.9321 16.7119 91.9665 15.9592 92.104C15.773 92.1349 15.5885 92.176 15.4067 92.2269C15.2212 92.2658 15.0386 92.3172 14.86 92.3807L14.331 92.5761L13.812 92.8068C13.4686 92.9634 13.1346 93.1397 12.8115 93.3347C12.4862 93.5314 12.1797 93.7614 11.8668 93.976L11.7955 94.023C11.6263 94.1294 11.4223 94.1654 11.227 94.1235C11.0317 94.0815 10.8605 93.9649 10.7497 93.7984C10.639 93.6319 10.5976 93.4287 10.6343 93.2321C10.6709 93.0354 10.7828 92.8609 10.946 92.7456L10.9886 92.7195C11.3641 92.5035 11.7202 92.2674 12.1137 92.0763C12.4965 91.8809 12.8896 91.7065 13.2912 91.5538C13.4938 91.4821 13.6935 91.4029 13.9002 91.3357L14.5308 91.1741C14.7387 91.1168 14.9503 91.0735 15.164 91.0447C15.3751 91.0015 15.5882 90.9695 15.8026 90.9487C16.6569 90.8517 17.5203 90.8703 18.3696 91.0041C18.7918 91.0695 19.2094 91.1619 19.6198 91.2808C20.0385 91.4056 20.4456 91.5667 20.8364 91.7621C20.9286 91.8133 20.9983 91.8973 21.0318 91.9974C21.0652 92.0975 21.06 92.2066 21.0171 92.3031C20.9742 92.3995 20.8968 92.4764 20.8001 92.5185C20.7034 92.5606 20.5944 92.5649 20.4947 92.5306L20.4458 92.5034Z" fill="white"/>
<path d="M8.96314 95.7476C9.4143 95.9487 9.94287 95.7456 10.1437 95.2938C10.3446 94.842 10.1417 94.3128 9.69055 94.1116C9.23939 93.9105 8.71082 94.1137 8.50995 94.5654C8.30909 95.0172 8.51199 95.5465 8.96314 95.7476Z" fill="white"/>
<path d="M101.427 52.9385C101.779 50.9012 102.547 48.9584 103.682 47.2314C104.818 45.5044 106.297 44.0303 108.026 42.9009C118.762 35.7226 131.375 43.8285 135.951 49.8735C139.66 54.6942 142.477 60.1405 144.27 65.9548C146.017 71.7164 146.622 75.9799 146.084 78.7455C145.761 80.4459 145.033 80.8604 143.9 79.9889C138.516 75.7863 133.418 73.2174 128.607 72.2821C127.018 71.9693 125.404 71.7937 123.785 71.7573C122.17 71.7154 121.135 71.7032 120.668 71.7086C118.38 71.7111 116.095 71.538 113.833 71.1907C111.799 70.8337 109.86 70.0629 108.136 68.926C106.411 67.789 104.938 66.3101 103.806 64.5804C102.637 62.9042 101.823 61.0056 101.414 59.0019C101.006 56.9983 101.012 54.9321 101.433 52.931L101.427 52.9385Z" fill="black"/>
<path d="M124.795 46.2253C124.372 45.9623 123.928 45.7341 123.468 45.5429C122.996 45.3487 122.511 45.1863 122.017 45.0565C121.034 44.7886 120.018 44.6555 118.999 44.6611C118.747 44.6587 118.495 44.6701 118.244 44.695C117.992 44.7035 117.74 44.729 117.491 44.7713L116.749 44.9036L116.012 45.089C115.526 45.2143 115.046 45.3675 114.577 45.548C114.105 45.7308 113.652 45.9641 113.188 46.1647L113.084 46.2094C112.843 46.2878 112.581 46.2737 112.35 46.17C112.119 46.0662 111.934 45.8801 111.833 45.6479C111.731 45.4156 111.719 45.1537 111.799 44.913C111.879 44.6723 112.045 44.47 112.266 44.3454L112.327 44.3213C112.871 44.1245 113.396 43.9021 113.953 43.7366C114.501 43.5678 115.058 43.429 115.621 43.3208C115.904 43.2727 116.186 43.2143 116.471 43.175L117.338 43.1069C117.625 43.0798 117.913 43.0722 118.2 43.084C118.488 43.0764 118.775 43.084 119.062 43.1068C120.205 43.1778 121.333 43.4026 122.416 43.7752C122.956 43.958 123.483 44.1752 123.995 44.4255C124.515 44.6874 125.012 44.9941 125.48 45.3422C125.582 45.4334 125.647 45.5584 125.664 45.6942C125.681 45.8299 125.648 45.9672 125.572 46.0807C125.495 46.1941 125.38 46.276 125.248 46.3112C125.116 46.3464 124.976 46.3326 124.853 46.2722L124.795 46.2253Z" fill="white"/>
<path d="M108.97 47.8252C109.516 48.1938 110.257 48.0494 110.625 47.5028C110.993 46.9562 110.849 46.2143 110.303 45.8458C109.757 45.4772 109.016 45.6215 108.648 46.1681C108.28 46.7147 108.424 47.4566 108.97 47.8252Z" fill="white"/>
<path d="M165.237 77.2728C165.025 76.4732 164.652 75.7259 164.139 75.0774C163.626 74.4289 162.986 73.8931 162.257 73.5035C157.728 71.0186 152.984 74.6893 151.372 77.2593C150.062 79.3102 149.129 81.5792 148.617 83.9591C148.122 86.3162 148.029 88.0365 148.34 89.1201C148.529 89.7867 148.833 89.9265 149.254 89.5395C150.887 87.8968 152.881 86.6599 155.077 85.9277C155.699 85.7478 156.337 85.6219 156.981 85.5513C157.623 85.478 158.033 85.4389 158.222 85.4225C159.134 85.345 160.04 85.1974 160.93 84.9812C161.728 84.7678 162.474 84.3928 163.122 83.8795C163.769 83.3661 164.305 82.7253 164.696 81.9965C165.103 81.288 165.362 80.5032 165.455 79.6908C165.548 78.8783 165.474 78.0554 165.237 77.2728V77.2728Z" fill="black"/>
<path d="M155.689 75.4127C155.848 75.2932 156.017 75.1867 156.194 75.0944C156.375 75.0002 156.562 74.918 156.754 74.8486C157.137 74.7079 157.538 74.6201 157.945 74.5875C158.045 74.5778 158.146 74.5736 158.247 74.5749C158.347 74.5693 158.448 74.5706 158.549 74.5786L158.849 74.6056L159.15 74.651C159.348 74.6847 159.544 74.7297 159.737 74.7859C159.929 74.8435 160.12 74.9188 160.311 74.9837L160.356 75.0005C160.457 75.0311 160.567 75.021 160.661 74.9722C160.755 74.9234 160.827 74.8398 160.861 74.7391C160.895 74.6384 160.888 74.5284 160.843 74.4325C160.797 74.3366 160.716 74.2622 160.616 74.2251L160.591 74.2178C160.367 74.1586 160.15 74.0869 159.922 74.0416C159.698 73.9936 159.471 73.9579 159.243 73.9345C159.13 73.9225 159.016 73.9106 158.897 73.9032L158.549 73.9063C158.434 73.9054 158.319 73.9124 158.205 73.927C158.09 73.9339 157.976 73.9469 157.863 73.9658C157.41 74.0344 156.968 74.1637 156.55 74.3503C156.341 74.4423 156.139 74.5476 155.944 74.6655C155.746 74.7876 155.558 74.9266 155.384 75.0811C155.342 75.1197 155.316 75.1731 155.312 75.2302C155.307 75.2874 155.325 75.344 155.361 75.3885C155.397 75.4331 155.449 75.4621 155.505 75.4698C155.562 75.4775 155.62 75.4633 155.666 75.4299L155.689 75.4127Z" fill="white"/>
<path d="M161.452 74.7547C161.248 74.9206 161.216 75.2211 161.382 75.4259C161.547 75.6307 161.847 75.6623 162.052 75.4964C162.256 75.3306 162.288 75.0301 162.122 74.8252C161.957 74.6204 161.657 74.5888 161.452 74.7547Z" fill="white"/>
<path d="M207.945 16.9672C206.907 14.0845 205.286 11.447 203.185 9.21916C201.083 6.99134 198.546 5.22104 195.731 4.01872C178.214 -3.69005 161.889 11.3944 156.766 21.3989C152.594 29.392 149.883 38.0682 148.762 47.0173C147.694 55.8769 147.907 62.2559 149.402 66.1543C150.312 68.5532 151.482 68.9705 152.91 67.406C159.689 59.8833 166.469 54.8181 173.249 52.2103C175.49 51.3449 177.8 50.6738 180.156 50.2042C182.502 49.7264 184.009 49.4427 184.693 49.3294C188.034 48.7443 191.326 47.9034 194.539 46.8141C197.415 45.7684 200.047 44.1433 202.271 42.0393C204.496 39.9352 206.267 37.3968 207.473 34.5809C208.749 31.833 209.45 28.8524 209.531 25.823C209.612 22.7935 209.072 19.7796 207.945 16.9672V16.9672Z" fill="black"/>
<path d="M172.111 13.1925C172.661 12.6996 173.251 12.2521 173.873 11.8544C174.513 11.4492 175.178 11.0871 175.866 10.7703C177.234 10.1255 178.684 9.66973 180.174 9.41558C180.541 9.34729 180.911 9.29895 181.283 9.27079C181.653 9.21854 182.026 9.19123 182.399 9.18905L183.514 9.18851L184.635 9.2676C185.379 9.32592 186.118 9.42708 186.85 9.57059C187.586 9.71559 188.307 9.93927 189.032 10.1167L189.196 10.155C189.571 10.2143 189.955 10.1303 190.271 9.91969C190.587 9.70909 190.813 9.38724 190.903 9.01792C190.993 8.64859 190.942 8.25875 190.759 7.92564C190.576 7.59252 190.274 7.34044 189.914 7.21934L189.818 7.19993C188.977 7.05423 188.15 6.85959 187.297 6.76745C186.453 6.66191 185.603 6.60238 184.753 6.58914C184.329 6.59259 183.904 6.58173 183.476 6.59541L182.192 6.71999C181.767 6.75424 181.345 6.81719 180.929 6.90841C180.508 6.9708 180.09 7.05535 179.678 7.1617C178.027 7.56117 176.438 8.1814 174.953 9.00569C174.213 9.41301 173.501 9.86733 172.819 10.3659C172.127 10.8803 171.48 11.4539 170.887 12.0802C170.748 12.2373 170.673 12.4413 170.677 12.6514C170.681 12.8616 170.765 13.0623 170.91 13.2135C171.056 13.3646 171.254 13.4551 171.463 13.4668C171.673 13.4785 171.879 13.4105 172.041 13.2765L172.111 13.1925Z" fill="white"/>
<path d="M193.165 8.90243C192.463 9.58109 192.443 10.701 193.121 11.4037C193.799 12.1065 194.917 12.126 195.619 11.4474C196.321 10.7687 196.34 9.64886 195.663 8.94609C194.985 8.24333 193.866 8.22378 193.165 8.90243Z" fill="white"/>
<defs>
<filter id="filter0_d" x="0.721741" y="122.352" width="96.6485" height="89.9873" filterUnits="userSpaceOnUse" color-interpolation-filters="sRGB">
<feFlood flood-opacity="0" result="BackgroundImageFix"/>
<feColorMatrix in="SourceAlpha" type="matrix" values="0 0 0 0 0 0 0 0 0 0 0 0 0 0 0 0 0 0 127 0"/>
<feOffset dx="-3" dy="4"/>
<feColorMatrix type="matrix" values="0 0 0 0 0 0 0 0 0 0 0 0 0 0 0 0 0 0 0.25 0"/>
<feBlend mode="normal" in2="BackgroundImageFix" result="effect1_dropShadow"/>
<feBlend mode="normal" in="SourceGraphic" in2="effect1_dropShadow" result="shape"/>
</filter>
<filter id="filter1_d" x="99.0779" y="126.584" width="56.6618" height="70.3139" filterUnits="userSpaceOnUse" color-interpolation-filters="sRGB">
<feFlood flood-opacity="0" result="BackgroundImageFix"/>
<feColorMatrix in="SourceAlpha" type="matrix" values="0 0 0 0 0 0 0 0 0 0 0 0 0 0 0 0 0 0 127 0"/>
<feOffset dx="-3" dy="4"/>
<feColorMatrix type="matrix" values="0 0 0 0 0 0 0 0 0 0 0 0 0 0 0 0 0 0 0.25 0"/>
<feBlend mode="normal" in2="BackgroundImageFix" result="effect1_dropShadow"/>
<feBlend mode="normal" in="SourceGraphic" in2="effect1_dropShadow" result="shape"/>
</filter>
<filter id="filter2_d" x="156.014" y="117.612" width="72.5127" height="71.8372" filterUnits="userSpaceOnUse" color-interpolation-filters="sRGB">
<feFlood flood-opacity="0" result="BackgroundImageFix"/>
<feColorMatrix in="SourceAlpha" type="matrix" values="0 0 0 0 0 0 0 0 0 0 0 0 0 0 0 0 0 0 127 0"/>
<feOffset dx="-3" dy="4"/>
<feColorMatrix type="matrix" values="0 0 0 0 0 0 0 0 0 0 0 0 0 0 0 0 0 0 0.25 0"/>
<feBlend mode="normal" in2="BackgroundImageFix" result="effect1_dropShadow"/>
<feBlend mode="normal" in="SourceGraphic" in2="effect1_dropShadow" result="shape"/>
</filter>
<filter id="filter3_d" x="229.146" y="133.619" width="60.5354" height="75.8948" filterUnits="userSpaceOnUse" color-interpolation-filters="sRGB">
<feFlood flood-opacity="0" result="BackgroundImageFix"/>
<feColorMatrix in="SourceAlpha" type="matrix" values="0 0 0 0 0 0 0 0 0 0 0 0 0 0 0 0 0 0 127 0"/>
<feOffset dx="-3" dy="4"/>
<feColorMatrix type="matrix" values="0 0 0 0 0 0 0 0 0 0 0 0 0 0 0 0 0 0 0.25 0"/>
<feBlend mode="normal" in2="BackgroundImageFix" result="effect1_dropShadow"/>
<feBlend mode="normal" in="SourceGraphic" in2="effect1_dropShadow" result="shape"/>
</filter>
</defs>
</svg>
