<svg width="434" height="121" viewBox="0 0 434 121" fill="none" xmlns="http://www.w3.org/2000/svg">
<path d="M38.0562 36.2943C36.8024 35.4528 35.7352 34.3616 34.9213 33.0888C34.1073 31.816 33.564 30.3889 33.3253 28.8965C31.7314 19.5835 40.8885 13.5601 46.2816 12.3011C50.5992 11.255 55.0688 10.9907 59.4792 11.5208C63.841 12.0662 66.8643 12.9297 68.549 14.1112C69.587 14.8333 69.6468 15.4435 68.7284 15.9418C64.3252 18.2932 61.0959 20.9378 59.0406 23.8758C58.3596 24.8461 57.7631 25.8731 57.2577 26.9456C56.7495 28.0133 56.4338 28.701 56.2979 29.0159C55.6194 30.5471 54.8247 32.0239 53.9206 33.4334C53.0776 34.687 51.9869 35.7542 50.7158 36.5692C49.4448 37.3842 48.0204 37.9296 46.5306 38.1718C45.0649 38.4553 43.5567 38.435 42.0992 38.1121C40.6416 37.7892 39.2656 37.1705 38.0562 36.2943V36.2943Z" fill="black"/>
<path d="M40.5301 18.6715C40.2287 18.8763 39.9444 19.1053 39.6799 19.356C39.4101 19.6142 39.1578 19.89 38.9245 20.1816C38.4533 20.7602 38.0628 21.4001 37.7637 22.0839C37.6872 22.2517 37.6198 22.4234 37.5618 22.5984C37.4923 22.7698 37.4343 22.9456 37.3883 23.1248L37.256 23.6606L37.159 24.2058C37.0982 24.5689 37.0584 24.9352 37.0397 25.3029C37.0212 25.6731 37.042 26.0454 37.0404 26.4136L37.0395 26.4962C37.0246 26.6843 36.9394 26.8598 36.8008 26.9875C36.6622 27.1153 36.4805 27.186 36.2921 27.1853C36.1037 27.1846 35.9225 27.1127 35.7848 26.984C35.647 26.8552 35.563 26.6792 35.5494 26.491L35.5526 26.4442C35.583 26.0227 35.5892 25.6039 35.6469 25.1834C35.6969 24.7663 35.7695 24.3521 35.8643 23.9429C35.9165 23.7395 35.962 23.5346 36.02 23.3314L36.2322 22.7313C36.2996 22.5316 36.3803 22.3367 36.474 22.148C36.5539 21.9538 36.6441 21.764 36.744 21.5794C37.1318 20.8358 37.6179 20.148 38.1891 19.5344C38.4719 19.2285 38.7739 18.9411 39.0933 18.6739C39.4219 18.4036 39.7733 18.1624 40.1435 17.9529C40.2354 17.9032 40.3426 17.8904 40.4435 17.9171C40.5445 17.9438 40.6314 18.008 40.6867 18.0966C40.742 18.1852 40.7615 18.2916 40.7413 18.3942C40.721 18.4967 40.6625 18.5876 40.5776 18.6484L40.5301 18.6715Z" fill="white"/>
<path d="M36.8896 29.7298C37.2978 29.4744 37.4219 28.936 37.1668 28.5272C36.9117 28.1184 36.374 27.9941 35.9658 28.2496C35.5576 28.505 35.4335 29.0434 35.6885 29.4522C35.9436 29.8609 36.4813 29.9852 36.8896 29.7298Z" fill="white"/>
<path d="M391.869 22.2997C392.671 20.9727 393.191 19.4945 393.397 17.9574C393.603 16.4202 393.49 14.857 393.066 13.3654C390.514 4.01092 379.389 2.38568 373.83 3.55197C369.361 4.45395 365.09 6.14911 361.218 8.55736C357.397 10.9583 354.959 13.074 353.905 14.9046C353.252 16.0271 353.461 16.6205 354.531 16.6847C359.644 16.9597 363.793 18.0168 366.976 19.856C368.029 20.462 369.029 21.1575 369.963 21.9347C370.898 22.7064 371.49 23.2095 371.752 23.443C373.046 24.5725 374.425 25.6011 375.876 26.5195C377.202 27.3204 378.679 27.8405 380.214 28.0477C381.749 28.2548 383.311 28.1445 384.802 27.7236C386.287 27.351 387.681 26.6775 388.896 25.7446C390.112 24.8117 391.124 23.6393 391.869 22.2997V22.2997Z" fill="black"/>
<path d="M381.938 6.98459C382.307 7.04416 382.67 7.13355 383.025 7.25188C383.387 7.37461 383.742 7.52134 384.085 7.6911C384.774 8.0245 385.414 8.45004 385.989 8.95606C386.132 9.07863 386.269 9.20891 386.399 9.34633C386.538 9.47534 386.668 9.61358 386.789 9.76012L387.142 10.2004L387.468 10.6659C387.682 10.9772 387.877 11.3005 388.054 11.6343C388.232 11.9708 388.376 12.3259 388.534 12.6713L388.574 12.7454C388.67 12.9117 388.825 13.0357 389.008 13.093C389.191 13.1503 389.389 13.1366 389.563 13.0548C389.737 12.9729 389.873 12.8287 389.946 12.6508C390.019 12.4729 390.022 12.2742 389.956 12.0939L389.933 12.0495C389.722 11.6707 389.538 11.2847 389.299 10.9179C389.071 10.5522 388.824 10.1992 388.559 9.86039C388.422 9.69445 388.291 9.52358 388.149 9.35936L387.691 8.89565C387.543 8.73926 387.384 8.5931 387.215 8.45817C387.057 8.31229 386.89 8.17488 386.717 8.04652C386.035 7.52223 385.285 7.09236 384.489 6.76853C384.093 6.60712 383.688 6.47125 383.275 6.36175C382.852 6.25274 382.421 6.18063 381.986 6.14626C381.88 6.14261 381.778 6.17862 381.697 6.24721C381.617 6.3158 381.566 6.41197 381.553 6.51677C381.54 6.62157 381.567 6.72739 381.628 6.81336C381.689 6.89933 381.78 6.95921 381.883 6.98119L381.938 6.98459Z" fill="white"/>
<path d="M390.329 13.9099C389.839 13.8497 389.393 14.1987 389.333 14.6895C389.273 15.1804 389.621 15.6271 390.111 15.6874C390.602 15.7477 391.048 15.3986 391.108 14.9078C391.168 14.417 390.82 13.9702 390.329 13.9099Z" fill="white"/>
<path d="M195.136 22.7231H197.099C197.39 22.7231 197.608 22.4901 197.608 22.199L197.594 16.8412L199.993 19.8549C200.152 20.0733 200.429 20.2044 200.72 20.2044C200.981 20.2044 201.258 20.0879 201.461 19.8113L203.802 16.8412V22.199C203.802 22.4901 204.064 22.7231 204.354 22.7231H206.303C206.594 22.7231 206.812 22.4901 206.812 22.199V13.0412C206.812 12.7646 206.579 12.5316 206.303 12.5316H204.34C204.165 12.5316 203.715 12.5025 203.453 12.75L200.618 15.7056L197.913 12.7355C197.841 12.6336 197.579 12.5316 197.39 12.5316H195.136C194.845 12.5316 194.613 12.7792 194.613 13.0412V22.199C194.613 22.4756 194.845 22.7231 195.136 22.7231Z" fill="#111111"/>
<path d="M216.455 23.0143C219.392 23.0143 221.791 20.6266 221.791 17.6856C221.791 14.7446 219.392 12.3569 216.455 12.3569C213.518 12.3569 211.134 14.7446 211.134 17.6856C211.134 20.6266 213.518 23.0143 216.455 23.0143ZM216.412 19.8695C215.118 19.8695 214.1 18.8212 214.1 17.5546C214.1 16.2879 215.118 15.2542 216.412 15.2542C217.647 15.2542 218.723 16.2879 218.723 17.5546C218.723 18.8212 217.647 19.8695 216.412 19.8695Z" fill="#111111"/>
<path d="M232.291 22.7377H234.065C234.501 22.7377 234.734 22.5338 234.734 22.199C234.792 21.2235 234.443 19.2871 232.902 18.5446L232.887 18.53C233.513 18.0933 234.196 17.54 234.312 16.2734C234.312 15.9094 234.327 15.8803 234.312 15.6036C234.196 13.4634 232.858 12.5025 229.95 12.5171H226.65C226.228 12.5171 225.908 12.7792 225.908 13.0703V18.1369L225.894 22.0679C225.894 22.4901 226.257 22.7522 226.868 22.7377H228.22C229.238 22.7377 229.253 22.3446 229.253 21.9078V20.0442L229.267 20.0296C229.369 20.0005 229.442 20.0005 229.514 20.0005C229.587 20.0005 229.66 20.0005 229.761 20.0151C230.576 20.0879 231.433 20.3936 231.666 21.8495C231.71 22.1553 231.608 22.7377 232.291 22.7377ZM229.5 17.2925H228.802H228.758H228.656V14.6864H229.849C230.779 14.6864 231.288 15.1086 231.288 15.9385C231.288 17.2925 229.95 17.2925 229.5 17.2925Z" fill="#111111"/>
<path d="M242.325 15.0941H246.658C246.978 15.0941 247.283 14.7883 247.283 14.4389V13.1722C247.283 12.7937 246.978 12.5316 246.658 12.5316H239.751C239.432 12.5316 239.141 12.7937 239.141 13.1722V20.8013V22.0679C239.141 22.4174 239.432 22.7231 239.751 22.7231H246.658C246.978 22.7231 247.283 22.4174 247.283 22.0679V20.8013C247.283 20.4082 246.978 20.1461 246.658 20.1461H242.325V18.8358H246.454C246.76 18.8358 247.05 18.53 247.05 18.1952V16.914C247.05 16.5354 246.76 16.2734 246.454 16.2734H242.325V15.0941Z" fill="#111111"/>
<g filter="url(#filter0_d)">
<path d="M100.147 55.5518L100.825 63.0951L127.05 60.7317C127.548 60.6897 128.049 60.7501 128.523 60.9092C128.996 61.0683 129.433 61.3227 129.805 61.6568C130.222 62.0059 130.565 62.437 130.81 62.9235C131.055 63.41 131.198 63.9417 131.231 64.4857L131.959 72.5871C132.052 73.6498 131.726 74.7068 131.052 75.5325C130.761 75.9494 130.383 76.2987 129.946 76.5567C129.508 76.8148 129.02 76.9756 128.514 77.0283L102.29 79.3917L103.034 87.6799L130.561 85.1992C131.074 85.1487 131.591 85.204 132.082 85.3616C132.572 85.5192 133.025 85.7758 133.412 86.1156C133.838 86.4792 134.184 86.9259 134.431 87.4283C134.678 87.9308 134.819 88.4784 134.847 89.0376L135.567 97.0451C135.675 98.1366 135.352 99.2272 134.668 100.084C134.363 100.509 133.97 100.864 133.515 101.124C133.061 101.383 132.556 101.542 132.034 101.588L88.139 105.544C87.6179 105.592 87.0927 105.526 86.5992 105.352C86.1058 105.178 85.6557 104.899 85.2796 104.534C84.4546 103.814 83.9437 102.799 83.8561 101.706L78.7755 45.18C78.7103 44.6389 78.7564 44.0902 78.911 43.5677C79.0655 43.0451 79.3253 42.5598 79.6742 42.1415C79.9946 41.7383 80.394 41.405 80.848 41.1623C81.3019 40.9196 81.8007 40.7726 82.3136 40.7303L126.209 36.7744C126.722 36.7239 127.239 36.7792 127.729 36.9368C128.22 37.0944 128.673 37.3511 129.06 37.6909C129.478 38.04 129.82 38.4711 130.065 38.9576C130.311 39.4441 130.454 39.9758 130.486 40.5198L131.214 48.6212C131.259 49.1518 131.197 49.686 131.033 50.1925C130.868 50.699 130.605 51.1676 130.258 51.571C129.956 51.9877 129.569 52.3364 129.124 52.5948C128.679 52.8531 128.185 53.0153 127.674 53.0711L100.147 55.5518Z" fill="#0A660F"/>
</g>
<g filter="url(#filter1_d)">
<path d="M19.0167 103.04L0.721693 49.4235C0.611382 49.1072 0.574174 48.77 0.612871 48.4372C0.665332 47.6692 0.96596 46.939 1.46935 46.3571C1.66775 46.0813 1.93133 45.8591 2.23652 45.7102C2.54171 45.5614 2.87898 45.4907 3.21816 45.5043L20.2886 46.7009C20.7541 46.7311 21.1955 46.9188 21.5404 47.2332C21.8886 47.5342 22.1525 47.9208 22.3062 48.3549L36.145 86.8848L54.5962 50.5297C54.8022 50.129 55.1187 49.7959 55.5083 49.5703C55.9024 49.3332 56.3606 49.2252 56.8189 49.2614L73.8902 50.458C74.2132 50.4998 74.5211 50.6204 74.7869 50.8091C75.0526 50.9977 75.2681 51.2488 75.4144 51.5402C75.8312 52.1855 76.0274 52.9489 75.9734 53.7155C75.965 54.0493 75.8814 54.3768 75.7287 54.6737L49.8304 106.001C49.2411 107.089 48.4977 108.086 47.6234 108.961C47.2374 109.396 46.764 109.745 46.2342 109.984C45.7044 110.223 45.1301 110.347 44.5491 110.348L23.6748 108.885C23.0529 108.736 22.469 108.458 21.9603 108.07C21.4517 107.682 21.0296 107.191 20.7211 106.63C19.9623 105.534 19.3866 104.322 19.0167 103.04V103.04Z" fill="#0A660F"/>
</g>
<g filter="url(#filter2_d)">
<path d="M140.134 82.5437C139.552 76.7639 140.504 70.9327 142.895 65.6396C145.178 60.5164 148.781 56.0934 153.335 52.8242C157.838 49.5524 163.149 47.5763 168.693 47.1095C169.813 47.0085 170.671 46.9611 171.266 46.9673C173.962 46.8503 176.662 46.9958 179.33 47.4017L179.781 47.4508C180.067 47.437 180.353 47.4805 180.622 47.5789C180.891 47.6773 181.138 47.8286 181.348 48.0238C181.755 48.4391 181.995 48.9894 182.022 49.5702C182.077 50.1498 182.008 50.7344 181.82 51.2853L178.933 59.8494C178.208 62.3556 176.901 63.6937 175.014 63.8637C170.179 64.2995 166.363 65.6553 163.565 67.9313C160.716 70.3016 158.922 73.7064 158.576 77.3992C158.408 78.6155 158.369 79.8462 158.46 81.0708C158.693 84.0833 159.871 86.9449 161.825 89.2476C163.787 91.5713 166.577 93.0165 170.195 93.5831C171.885 93.7645 173.589 93.7903 175.284 93.6601C179 93.3252 181.881 92.1578 183.927 90.1578C185.94 88.23 187.236 85.6723 187.6 82.9073L182.65 83.3534C182.224 83.4079 181.792 83.3717 181.381 83.2471C180.971 83.1225 180.591 82.9124 180.267 82.6305C179.944 82.344 179.68 81.9964 179.491 81.6076C179.303 81.2187 179.193 80.7964 179.167 80.3649L178.15 73.6219C178.107 73.1961 178.149 72.7659 178.272 72.3563C178.396 71.9466 178.6 71.5657 178.872 71.2354C179.13 70.8978 179.457 70.6187 179.831 70.4164C180.204 70.2141 180.617 70.0932 181.04 70.0616L198.102 67.022C199.426 66.9239 200.758 67.0452 202.043 67.3811C202.832 67.7079 204.128 69.0376 205.77 72.6968C205.774 73.4106 205.813 74.6721 205.887 76.4811C205.96 78.2901 205.977 79.9701 205.938 81.5213C205.9 86.675 204.474 91.7231 201.812 96.134C199.144 100.612 195.448 104.387 191.031 107.148C186.656 109.952 181.669 111.657 176.495 112.119C170.75 112.646 164.969 111.642 159.737 109.21C154.415 106.806 149.787 103.093 146.284 98.4157C142.764 93.8207 140.63 88.3134 140.134 82.5437V82.5437Z" fill="#0A660F"/>
</g>
<g filter="url(#filter3_d)">
<path d="M213.141 61.5872C215.096 56.1178 218.458 51.2623 222.888 47.5115C227.149 43.868 232.301 41.4247 237.815 40.4321C243.285 39.4156 248.929 39.9166 254.135 41.8808C255.19 42.2718 255.985 42.5981 256.52 42.8598C259.004 43.9141 261.38 45.2076 263.615 46.722L264.001 46.9603C264.265 47.071 264.505 47.2335 264.706 47.4381C264.907 47.6428 265.065 47.8856 265.17 48.1523C265.359 48.7022 265.339 49.3023 265.115 49.8386C264.916 50.3854 264.603 50.8836 264.196 51.3001L257.915 57.7911C256.184 59.7417 254.43 60.3878 252.653 59.7294C248.1 58.0422 244.072 57.6242 240.569 58.4754C236.98 59.3899 233.898 61.6921 232.001 64.8776C231.327 65.9035 230.764 66.9981 230.32 68.1429C229.239 70.9636 229.074 74.0543 229.85 76.9743C230.624 79.9169 232.523 82.4223 235.547 84.4906C236.995 85.382 238.523 86.1384 240.11 86.7504C243.608 88.0469 246.711 88.2324 249.416 87.307C252.061 86.4324 254.329 84.6805 255.845 82.3407L251.184 80.6135C250.776 80.4795 250.401 80.2607 250.084 79.9715C249.766 79.6822 249.513 79.3291 249.342 78.9351C249.173 78.5373 249.084 78.11 249.081 77.6778C249.077 77.2455 249.159 76.8168 249.322 76.4163L251.297 69.89C251.441 69.4869 251.663 69.1163 251.95 68.7998C252.238 68.4832 252.586 68.2269 252.973 68.0458C253.351 67.8521 253.766 67.7407 254.19 67.7188C254.614 67.6969 255.038 67.765 255.434 67.9188L272.145 72.516C273.383 72.9974 274.533 73.6799 275.549 74.5361C276.121 75.1708 276.721 76.9292 276.633 80.9396C276.331 81.5862 275.825 82.742 275.115 84.4071C274.405 86.0721 273.699 87.5966 272.998 88.9803C270.751 93.6173 267.298 97.5621 263.001 100.399C258.671 103.294 253.713 105.113 248.54 105.705C243.385 106.354 238.151 105.748 233.281 103.939C227.867 101.943 223.078 98.5488 219.398 94.101C215.623 89.6404 213.038 84.2958 211.882 78.5651C210.676 72.9014 211.113 67.0104 213.141 61.5872V61.5872Z" fill="#0A660F"/>
</g>
<g filter="url(#filter4_d)">
<path d="M282.329 108.252L289.838 54.7502C289.963 53.6977 290.481 52.7318 291.29 52.0474C291.696 51.7047 292.173 51.4562 292.686 51.3197C293.199 51.1833 293.736 51.1622 294.259 51.258L306.257 52.9466C306.762 53.0107 307.248 53.1832 307.68 53.4524C308.113 53.7216 308.482 54.0812 308.763 54.5064C309.377 55.3787 309.627 56.4571 309.458 57.5112L301.948 111.016C301.898 111.558 301.739 112.083 301.48 112.561C301.221 113.039 300.868 113.459 300.442 113.796C300.045 114.103 299.59 114.326 299.104 114.449C298.618 114.573 298.112 114.596 297.616 114.517L285.618 112.828C285.097 112.779 284.593 112.62 284.137 112.364C283.682 112.107 283.285 111.757 282.972 111.338C282.667 110.891 282.454 110.389 282.343 109.859C282.233 109.33 282.228 108.783 282.329 108.252V108.252Z" fill="#0A660F"/>
</g>
<g filter="url(#filter5_d)">
<path d="M333.178 52.1374L334.459 59.5299L360.159 55.0657C360.648 54.9838 361.147 55.0027 361.628 55.1212C362.109 55.2398 362.56 55.4555 362.954 55.7552C363.395 56.0659 363.768 56.4637 364.049 56.9242C364.331 57.3846 364.515 57.8978 364.591 58.4323L365.967 66.3717C366.145 67.4133 365.909 68.4834 365.31 69.3534C365.056 69.7886 364.712 70.1641 364.301 70.4545C363.889 70.7449 363.421 70.9433 362.926 71.0364L337.226 75.5006L338.633 83.623L365.609 78.9372C366.111 78.8457 366.627 78.8582 367.123 78.974C367.62 79.0898 368.088 79.3063 368.498 79.6103C368.948 79.9347 369.326 80.3476 369.61 80.8236C369.894 81.2996 370.079 81.8288 370.151 82.3786L371.511 90.226C371.706 91.2948 371.476 92.3978 370.87 93.2989C370.603 93.744 370.244 94.1262 369.816 94.4195C369.388 94.7128 368.902 94.9102 368.392 94.9982L325.374 102.47C324.863 102.56 324.34 102.538 323.838 102.406C323.337 102.274 322.87 102.035 322.469 101.706C321.596 101.062 321.01 100.101 320.835 99.0294L311.238 43.6338C311.13 43.1049 311.131 42.5594 311.241 42.0309C311.351 41.5024 311.568 41.0022 311.879 40.5609C312.163 40.1367 312.53 39.7752 312.959 39.4987C313.387 39.2222 313.868 39.0365 314.37 38.9531L357.388 31.4809C357.89 31.3894 358.405 31.4019 358.902 31.5177C359.399 31.6335 359.867 31.8501 360.277 32.154C360.718 32.4648 361.091 32.8626 361.372 33.323C361.654 33.7834 361.838 34.2967 361.914 34.8312L363.29 42.7706C363.376 43.2909 363.359 43.8233 363.238 44.3367C363.117 44.8501 362.895 45.3342 362.585 45.7607C362.32 46.1966 361.967 46.5723 361.548 46.8635C361.13 47.1547 360.655 47.355 360.155 47.4516L333.178 52.1374Z" fill="#0A660F"/>
</g>
<g filter="url(#filter6_d)">
<path d="M373.001 102.673C383.049 109.143 392.694 111.164 401.034 111.063C418.617 110.76 430.775 99.0343 430.574 87.0054C430.373 77.0992 421.732 66.6876 400.833 64.0594C396.01 63.4529 393.599 61.128 393.599 58.3987C393.498 55.6695 396.01 53.0413 400.632 52.9402C403.847 52.8391 407.967 54.0521 413.192 57.1857C416.507 59.0052 418.015 60.1172 419.22 60.1172C420.326 60.0161 421.23 59.2074 422.837 57.3879L425.852 54.1532C427.861 51.8283 429.168 50.3121 429.168 48.8969C429.168 47.9871 428.665 47.1785 427.66 46.2687C424.646 43.2362 418.417 39.6983 411.986 38.0809C407.766 37.0701 403.747 36.5647 400.029 36.6658C383.651 36.969 372.699 47.6839 373.805 60.9258C374.709 71.5396 379.532 77.8068 398.12 81.0415H398.02C405.555 82.6588 407.565 84.7815 407.665 87.713C407.665 89.9368 405.756 91.9585 402.441 92.1606C394.001 92.6661 385.36 87.1065 384.154 86.5C381.24 84.7815 379.934 83.7707 378.628 83.8718C376.116 83.8718 375.01 86.7021 370.187 92.6661C368.982 94.2834 368.379 95.5975 368.379 96.9116C368.479 98.8322 369.987 100.652 373.001 102.673Z" fill="#0A660F"/>
</g>
<defs>
<filter id="filter0_d" x="78.7468" y="36.7563" width="59.8403" height="72.8027" filterUnits="userSpaceOnUse" color-interpolation-filters="sRGB">
<feFlood flood-opacity="0" result="BackgroundImageFix"/>
<feColorMatrix in="SourceAlpha" type="matrix" values="0 0 0 0 0 0 0 0 0 0 0 0 0 0 0 0 0 0 127 0"/>
<feOffset dx="3" dy="4"/>
<feColorMatrix type="matrix" values="0 0 0 0 0 0 0 0 0 0 0 0 0 0 0 0 0 0 0.25 0"/>
<feBlend mode="normal" in2="BackgroundImageFix" result="effect1_dropShadow"/>
<feBlend mode="normal" in="SourceGraphic" in2="effect1_dropShadow" result="shape"/>
</filter>
<filter id="filter1_d" x="0.598022" y="45.5027" width="78.3842" height="68.8453" filterUnits="userSpaceOnUse" color-interpolation-filters="sRGB">
<feFlood flood-opacity="0" result="BackgroundImageFix"/>
<feColorMatrix in="SourceAlpha" type="matrix" values="0 0 0 0 0 0 0 0 0 0 0 0 0 0 0 0 0 0 127 0"/>
<feOffset dx="3" dy="4"/>
<feColorMatrix type="matrix" values="0 0 0 0 0 0 0 0 0 0 0 0 0 0 0 0 0 0 0.25 0"/>
<feBlend mode="normal" in2="BackgroundImageFix" result="effect1_dropShadow"/>
<feBlend mode="normal" in="SourceGraphic" in2="effect1_dropShadow" result="shape"/>
</filter>
<filter id="filter2_d" x="139.968" y="46.9282" width="68.9909" height="69.3276" filterUnits="userSpaceOnUse" color-interpolation-filters="sRGB">
<feFlood flood-opacity="0" result="BackgroundImageFix"/>
<feColorMatrix in="SourceAlpha" type="matrix" values="0 0 0 0 0 0 0 0 0 0 0 0 0 0 0 0 0 0 127 0"/>
<feOffset dx="3" dy="4"/>
<feColorMatrix type="matrix" values="0 0 0 0 0 0 0 0 0 0 0 0 0 0 0 0 0 0 0.25 0"/>
<feBlend mode="normal" in2="BackgroundImageFix" result="effect1_dropShadow"/>
<feBlend mode="normal" in="SourceGraphic" in2="effect1_dropShadow" result="shape"/>
</filter>
<filter id="filter3_d" x="211.215" y="39.9193" width="68.4262" height="70.0387" filterUnits="userSpaceOnUse" color-interpolation-filters="sRGB">
<feFlood flood-opacity="0" result="BackgroundImageFix"/>
<feColorMatrix in="SourceAlpha" type="matrix" values="0 0 0 0 0 0 0 0 0 0 0 0 0 0 0 0 0 0 127 0"/>
<feOffset dx="3" dy="4"/>
<feColorMatrix type="matrix" values="0 0 0 0 0 0 0 0 0 0 0 0 0 0 0 0 0 0 0.25 0"/>
<feBlend mode="normal" in2="BackgroundImageFix" result="effect1_dropShadow"/>
<feBlend mode="normal" in="SourceGraphic" in2="effect1_dropShadow" result="shape"/>
</filter>
<filter id="filter4_d" x="282.257" y="51.199" width="30.2526" height="67.3642" filterUnits="userSpaceOnUse" color-interpolation-filters="sRGB">
<feFlood flood-opacity="0" result="BackgroundImageFix"/>
<feColorMatrix in="SourceAlpha" type="matrix" values="0 0 0 0 0 0 0 0 0 0 0 0 0 0 0 0 0 0 127 0"/>
<feOffset dx="3" dy="4"/>
<feColorMatrix type="matrix" values="0 0 0 0 0 0 0 0 0 0 0 0 0 0 0 0 0 0 0.25 0"/>
<feBlend mode="normal" in2="BackgroundImageFix" result="effect1_dropShadow"/>
<feBlend mode="normal" in="SourceGraphic" in2="effect1_dropShadow" result="shape"/>
</filter>
<filter id="filter5_d" x="311.158" y="31.4205" width="63.4211" height="75.1038" filterUnits="userSpaceOnUse" color-interpolation-filters="sRGB">
<feFlood flood-opacity="0" result="BackgroundImageFix"/>
<feColorMatrix in="SourceAlpha" type="matrix" values="0 0 0 0 0 0 0 0 0 0 0 0 0 0 0 0 0 0 127 0"/>
<feOffset dx="3" dy="4"/>
<feColorMatrix type="matrix" values="0 0 0 0 0 0 0 0 0 0 0 0 0 0 0 0 0 0 0.25 0"/>
<feBlend mode="normal" in2="BackgroundImageFix" result="effect1_dropShadow"/>
<feBlend mode="normal" in="SourceGraphic" in2="effect1_dropShadow" result="shape"/>
</filter>
<filter id="filter6_d" x="368.379" y="36.6531" width="65.1978" height="78.4138" filterUnits="userSpaceOnUse" color-interpolation-filters="sRGB">
<feFlood flood-opacity="0" result="BackgroundImageFix"/>
<feColorMatrix in="SourceAlpha" type="matrix" values="0 0 0 0 0 0 0 0 0 0 0 0 0 0 0 0 0 0 127 0"/>
<feOffset dx="3" dy="4"/>
<feColorMatrix type="matrix" values="0 0 0 0 0 0 0 0 0 0 0 0 0 0 0 0 0 0 0.25 0"/>
<feBlend mode="normal" in2="BackgroundImageFix" result="effect1_dropShadow"/>
<feBlend mode="normal" in="SourceGraphic" in2="effect1_dropShadow" result="shape"/>
</filter>
</defs>
</svg>
