<svg width="221" height="633" viewBox="0 0 221 633" fill="none" xmlns="http://www.w3.org/2000/svg">
<path fill-rule="evenodd" clip-rule="evenodd" d="M62.5317 263.701C76.0269 281.873 89.0209 299.37 91.5613 319C100.133 385.236 42.1024 401.17 12.0611 442.339V583.661C33.8846 613.568 69.2036 633 109.061 633C152.812 633 191.094 609.587 212.061 574.607V451.393C188.722 412.456 97.0868 371.426 137.061 319C155.085 295.362 150.06 279.581 144.482 262.061C140.62 249.935 136.493 236.975 139.561 220C141.724 208.03 152.998 194.866 166.008 179.673C193.868 147.139 229.692 105.306 201.061 46C195.113 35.0432 190.061 18 220.561 0H19.0611C-14.9389 33 5.24154 67.1878 13.5612 78C42.7008 115.87 38.8493 131.896 33.723 153.227C31.1392 163.979 28.2316 176.078 29.0611 193C30.4064 220.444 46.8092 242.531 62.5317 263.701Z" fill="#D92C27"/>
</svg>
