<svg width="37" height="66" viewBox="0 0 37 66" fill="none" xmlns="http://www.w3.org/2000/svg">
<g clip-path="url(#clip0)">
<path d="M27.42 1.10998C33.84 4.36998 36.28 12.54 35.63 19.71C34.98 26.88 32 33.6 30.32 40.61C28.64 47.62 28.59 55.67 33.11 61.27L32.55 61.68C32.1401 61.1417 31.5674 60.7502 30.917 60.5637C30.2666 60.3773 29.5734 60.4059 28.9406 60.6453C28.3078 60.8847 27.7693 61.3221 27.4052 61.8923C27.0411 62.4626 26.8709 63.1352 26.92 63.81C25.42 63.94 24.13 62.81 22.87 62.01C21.61 61.21 19.79 60.63 18.69 61.67C18.05 62.28 17.86 63.3 17.12 63.8C16.6703 64.0083 16.1735 64.094 15.68 64.0483C15.1865 64.0026 14.7138 63.8273 14.31 63.54C13.5077 62.9579 12.5587 62.6115 11.57 62.54C10.57 62.59 9.66 63.8 10.29 64.54L9.05 64.17C6.48189 62.7119 4.36931 60.5691 2.94789 57.9806C1.52647 55.392 0.852102 52.4594 1 49.51C1.32 45 3.53 40.88 5.67 36.9C7.81 32.92 10 28.75 10.12 24.24C10.24 19.73 7.84 14.78 3.49 13.58L4.05 12.9C7.17 12.39 11.26 11.67 12.05 8.27998C12.201 7.83299 12.487 7.44385 12.8685 7.16624C13.25 6.88862 13.7082 6.7362 14.18 6.72998C14.7533 6.81252 15.3101 6.98462 15.83 7.23998C17.3 7.69998 19.26 8.01998 20.23 6.81998C21.2 5.61998 21.37 2.99998 21.8 1.48998L26.08 4.35998C26.35 3.20998 26.95 0.61998 26.84 1.03998L27.42 1.10998Z" fill="#F4A24E"/>
<path d="M28.94 60.65C29.5709 60.4193 30.2581 60.3917 30.9054 60.571C31.5527 60.7503 32.1277 61.1276 32.55 61.65L33.11 61.24C28.59 55.64 28.66 47.59 30.32 40.58C31.98 33.57 35 26.88 35.63 19.71C36.26 12.54 33.84 4.37 27.42 1.11L26.85 1C26.78 1.32 26.31 3.34 26.08 4.32L21.8 1.49C21.87 5.84 20.3 7.07 18.99 7.49C21.44 10.49 24.18 13.07 24.63 19.96C25 25 23.31 29.1 22 34C20.69 38.9 18.53 42.53 18.17 47.63C17.8725 52.1878 18.467 56.7598 19.92 61.09C20.9905 61.038 22.0473 61.348 22.92 61.97C24.18 62.8 25.47 63.9 26.97 63.77C26.9419 63.1113 27.1155 62.4597 27.4675 61.9022C27.8195 61.3447 28.3332 60.9078 28.94 60.65Z" fill="#D93F33"/>
<path d="M9.16 56.45C8.49 52.45 9.58 48.45 11.08 44.74C12.58 41.03 14.61 37.51 15.66 33.65C18.82 21.97 16.05 13.81 10.66 10.65C8.97 12.65 6.85 12.45 4.02 12.91L3.46 13.59C7.81 14.79 10.25 19.74 10.09 24.25C9.93 28.76 7.8 32.92 5.67 36.9C3.54 40.88 1.32 45 1 49.51C0.847218 52.4544 1.51406 55.3835 2.92639 57.9715C4.33871 60.5596 6.44117 62.7053 9 64.17L10.24 64.54C9.61 63.77 10.53 62.54 11.52 62.54C11.745 62.5297 11.9704 62.5499 12.19 62.6C10.5881 60.8989 9.53265 58.7567 9.16 56.45Z" fill="#D93F33"/>
<path d="M10.31 65.54C10.2071 65.554 10.1029 65.554 10 65.54L8.77 65.17C8.69693 65.1522 8.62638 65.1253 8.56 65.09C5.81485 63.5401 3.55824 61.2529 2.04546 58.4872C0.532694 55.7214 -0.175848 52.5875 8.90344e-07 49.44C0.310001 44.72 2.57 40.51 4.76 36.44C6.64 33 9 28.64 9.12 24.2C9.26 20.35 7.24 15.66 3.22 14.55C3.06092 14.5048 2.91553 14.4208 2.79686 14.3056C2.67819 14.1905 2.58993 14.0476 2.54 13.89C2.49765 13.738 2.49188 13.5781 2.52316 13.4234C2.55445 13.2687 2.6219 13.1236 2.72 13L3.28 12.31C3.43425 12.1233 3.651 11.9989 3.89 11.96C7.34 11.4 10.49 10.68 11.12 8.08998C11.3156 7.42013 11.7197 6.83011 12.2736 6.40569C12.8275 5.98127 13.5023 5.74456 14.2 5.72998C14.7268 5.75521 15.2433 5.88435 15.72 6.10998C15.87 6.16998 16.02 6.23998 16.17 6.28998C17.17 6.58998 18.86 6.97998 19.5 6.18998C20.0432 5.2006 20.3832 4.11262 20.5 2.98998C20.62 2.33998 20.73 1.72998 20.88 1.20998C20.9257 1.0647 21.0041 0.931798 21.109 0.821404C21.2139 0.711009 21.3427 0.626042 21.4855 0.572986C21.6282 0.51993 21.7812 0.500187 21.9328 0.515264C22.0844 0.53034 22.2305 0.579837 22.36 0.659978L25.44 2.71998C25.61 1.96998 25.79 1.20998 25.85 0.919978C25.8452 0.880123 25.8452 0.839833 25.85 0.799978C25.8732 0.663124 25.9247 0.5326 26.0011 0.416714C26.0775 0.300828 26.1772 0.202118 26.2938 0.126866C26.4104 0.0516151 26.5415 0.00147077 26.6785 -0.0203749C26.8156 -0.0422205 26.9557 -0.035289 27.09 -2.15583e-05L27.31 0.0599784H27.54C27.655 0.0739522 27.7666 0.107788 27.87 0.159978C34.87 3.68998 37.28 12.53 36.62 19.74C36.0415 24.3358 34.9789 28.8575 33.45 33.23C32.68 35.7 31.89 38.23 31.29 40.78C30.16 45.57 29 54.51 33.89 60.59C33.9734 60.6946 34.0349 60.8149 34.071 60.9437C34.1071 61.0725 34.1169 61.2073 34.1 61.34C34.0829 61.4745 34.0387 61.6042 33.9699 61.7211C33.9011 61.838 33.8093 61.9397 33.7 62.02L33.14 62.43C32.9285 62.586 32.6641 62.6524 32.404 62.615C32.1439 62.5776 31.9089 62.4393 31.75 62.23C31.4734 61.8592 31.0836 61.5885 30.6395 61.4589C30.1954 61.3292 29.7212 61.3477 29.2885 61.5115C28.8559 61.6753 28.4883 61.9755 28.2414 62.3667C27.9945 62.758 27.8817 63.2189 27.92 63.68C27.9381 63.8153 27.9283 63.9529 27.8912 64.0842C27.8541 64.2156 27.7905 64.338 27.7043 64.4439C27.6181 64.5497 27.5112 64.6368 27.39 64.6998C27.2689 64.7628 27.1362 64.8003 27 64.81C25.39 64.96 24.05 64.04 22.88 63.23L22.32 62.85C21.32 62.21 20.01 61.8 19.38 62.39C19.1804 62.6164 19.0122 62.8687 18.88 63.14C18.6064 63.7264 18.1946 64.2377 17.68 64.63C16.68 65.3 15.31 65.22 13.83 64.42L13.42 64.18C12.891 63.8062 12.2744 63.5754 11.63 63.51C11.5046 63.5278 11.3866 63.5803 11.2894 63.6616C11.1923 63.7429 11.1197 63.8497 11.08 63.97C11.1819 64.1164 11.2428 64.2874 11.2564 64.4653C11.2699 64.6432 11.2356 64.8214 11.1571 64.9816C11.0785 65.1418 10.9586 65.278 10.8096 65.3762C10.6607 65.4744 10.4882 65.5309 10.31 65.54ZM6 13.58C9.55 15.77 11.31 20.39 11.17 24.28C10.99 29.18 8.55 33.72 6.6 37.37C4.46 41.26 2.31 45.28 2 49.57C1.87811 52.2745 2.48705 54.962 3.76282 57.3499C5.03858 59.7378 6.93405 61.7379 9.25 63.14C9.44954 62.7006 9.76197 62.322 10.1555 62.0427C10.5489 61.7634 11.0094 61.5934 11.49 61.55C12.529 61.5659 13.5392 61.8934 14.39 62.49L14.77 62.7C15.54 63.12 16.2 63.24 16.54 63.01C16.7849 62.787 16.9793 62.5143 17.11 62.21C17.3357 61.7411 17.6363 61.3122 18 60.94C19.53 59.5 21.87 60.17 23.42 61.18L24.01 61.58C24.62 62.0517 25.2933 62.4354 26.01 62.72C26.1619 62.0485 26.4754 61.4243 26.9233 60.9015C27.3712 60.3787 27.9398 59.9732 28.58 59.72C29.2648 59.4575 30.0085 59.3883 30.73 59.52C27.35 53.43 28.04 45.92 29.34 40.38C29.96 37.78 30.76 35.2 31.54 32.7C33.0241 28.4599 34.0597 24.076 34.63 19.62C35.21 13.31 33.23 5.61998 27.58 2.33998C27.58 2.38998 27.58 2.44998 27.58 2.49998L27.1 4.58998C27.0625 4.74728 26.9874 4.89315 26.8812 5.01507C26.7749 5.13698 26.6407 5.23132 26.49 5.28998C26.3399 5.34866 26.1779 5.37022 26.0177 5.3528C25.8576 5.33539 25.7039 5.27953 25.57 5.18998L22.47 3.13998C22.47 3.20998 22.47 3.26998 22.47 3.33998C22.3333 4.79811 21.861 6.20481 21.09 7.44998C20.37 8.34998 18.83 9.19998 15.61 8.18998C15.4026 8.14064 15.1988 8.07716 15 7.99998C14.7761 7.89037 14.5366 7.81615 14.29 7.77998C14.0402 7.7874 13.7976 7.86557 13.5905 8.00542C13.3834 8.14527 13.2202 8.34105 13.12 8.56998C12.24 11.89 8.86 13 6 13.58Z" fill="black"/>
<path d="M24 18.45C23.7618 18.4534 23.5301 18.3717 23.3468 18.2195C23.1635 18.0674 23.0405 17.8547 23 17.62C22.48 14.62 21.51 10.79 18.67 8.18995C18.5635 8.10413 18.4758 7.99739 18.4122 7.87632C18.3486 7.75526 18.3106 7.62243 18.3003 7.48607C18.2901 7.3497 18.308 7.21269 18.3528 7.0835C18.3977 6.95431 18.4685 6.83569 18.561 6.73497C18.6535 6.63425 18.7657 6.55358 18.8906 6.49793C19.0155 6.44228 19.1505 6.41284 19.2873 6.41143C19.424 6.41002 19.5596 6.43668 19.6856 6.48974C19.8116 6.54281 19.9255 6.62116 20.02 6.71995C23.31 9.71995 24.39 13.94 25.02 17.28C25.0636 17.5397 25.003 17.8061 24.8514 18.0214C24.6997 18.2368 24.4692 18.3836 24.21 18.43L24 18.45Z" fill="black"/>
<path d="M19.89 62.13C19.7015 62.1294 19.517 62.0756 19.3578 61.9748C19.1985 61.8739 19.071 61.7301 18.99 61.56C16.36 56.05 15.6 52.41 17.68 44.09C17.7438 43.8328 17.9071 43.6115 18.134 43.4746C18.3608 43.3378 18.6328 43.2965 18.89 43.36C19.0184 43.3915 19.1393 43.4482 19.2456 43.5268C19.352 43.6053 19.4417 43.7042 19.5096 43.8176C19.5775 43.9311 19.6222 44.0569 19.6411 44.1877C19.6601 44.3186 19.6529 44.4519 19.62 44.58C17.72 52.18 18.28 55.41 20.79 60.7C20.8941 60.9355 20.9033 61.2021 20.8158 61.4443C20.7282 61.6864 20.5506 61.8855 20.32 62C20.1875 62.0732 20.0409 62.1175 19.89 62.13Z" fill="black"/>
<path d="M19.56 41.83C19.4773 41.8443 19.3927 41.8443 19.31 41.83C19.0543 41.7619 18.8361 41.5953 18.703 41.3666C18.5699 41.138 18.5329 40.8659 18.6 40.61C18.9097 39.4032 19.3559 38.2357 19.93 37.13C20.0498 36.8988 20.2551 36.7234 20.5021 36.6412C20.7492 36.559 21.0186 36.5764 21.2531 36.6897C21.4875 36.803 21.6685 37.0033 21.7576 37.248C21.8466 37.4927 21.8367 37.7625 21.73 38C21.2088 38.9892 20.806 40.0364 20.53 41.12C20.4671 41.3275 20.3385 41.5089 20.1636 41.637C19.9886 41.765 19.7768 41.8328 19.56 41.83Z" fill="black"/>
<path d="M13.8 14.32C13.643 14.3177 13.4888 14.2785 13.3499 14.2055C13.2109 14.1325 13.091 14.0279 13 13.9C12.4377 12.9309 11.6263 12.1298 10.65 11.58C10.5178 11.5255 10.3989 11.4433 10.3012 11.339C10.2034 11.2346 10.1292 11.1105 10.0835 10.9751C10.0379 10.8396 10.0217 10.6959 10.0363 10.5537C10.0508 10.4115 10.0957 10.2741 10.1679 10.1506C10.24 10.0272 10.3378 9.92074 10.4546 9.83833C10.5715 9.75592 10.7046 9.69951 10.845 9.67292C10.9855 9.64632 11.13 9.65015 11.2689 9.68414C11.4078 9.71814 11.5377 9.78151 11.65 9.86999C12.8557 10.5599 13.8671 11.5438 14.59 12.73C14.6672 12.8369 14.7226 12.958 14.7528 13.0863C14.7831 13.2147 14.7877 13.3477 14.7663 13.4778C14.7449 13.608 14.698 13.7326 14.6283 13.8445C14.5585 13.9564 14.4674 14.0534 14.36 14.13C14.1968 14.2483 14.0016 14.3146 13.8 14.32Z" fill="black"/>
<path d="M11.6 9.30999C11.6558 9.7292 11.7427 10.1437 11.86 10.55C11.98 10.92 12.27 11.28 12.25 11.68C12.25 12.32 13.25 12.32 13.25 11.68C13.2271 11.2476 13.1038 10.8265 12.89 10.45C12.7201 9.98281 12.6125 9.49528 12.57 8.99999C12.47 8.36999 11.51 8.63999 11.57 9.26999L11.6 9.30999Z" fill="black"/>
<path d="M12.77 6.86998C11 8.28998 12.21 11.17 13.04 12.78C13.34 13.36 14.2 12.85 13.91 12.28C13.28 11.07 12.13 8.64999 13.47 7.56999C13.98 7.16999 13.27 6.46998 12.77 6.86998Z" fill="black"/>
<path d="M12.34 7.76995C12.1372 8.80996 12.2237 9.88569 12.59 10.88C12.7121 11.2653 12.866 11.64 13.05 12C13.25 12.4 13.79 12.88 13.84 13.32C13.9 13.95 14.9 13.9599 14.84 13.32C14.78 12.68 14.33 12.24 13.99 11.65C13.3372 10.5525 13.0929 9.25991 13.3 7.99995C13.44 7.36995 12.47 7.10995 12.3 7.73995L12.34 7.76995Z" fill="black"/>
<path d="M19.91 7.99997C20.1229 8.65636 20.4627 9.26453 20.91 9.78997C21.2074 10.1739 21.4188 10.6172 21.53 11.09C21.53 11.2226 21.5827 11.3498 21.6764 11.4435C21.7702 11.5373 21.8974 11.59 22.03 11.59C22.1626 11.59 22.2898 11.5373 22.3836 11.4435C22.4773 11.3498 22.53 11.2226 22.53 11.09C22.53 9.79997 21.1 8.92997 20.91 7.72997C20.81 7.09997 19.85 7.36997 19.91 7.99997Z" fill="black"/>
<path d="M20.64 6.41997C20.4683 7.8023 20.6865 9.20511 21.27 10.47C21.6631 11.7339 22.1859 12.9537 22.83 14.11C23.17 14.66 24.03 14.16 23.69 13.61C23.1524 12.6584 22.7167 11.6529 22.39 10.61C21.7779 9.3951 21.5083 8.03649 21.61 6.67997C21.73 6.04997 20.76 5.77997 20.61 6.40997L20.64 6.41997Z" fill="black"/>
<path d="M21.39 10.64C21.7 11.43 22.07 12.2 22.33 13.01C22.4996 13.6512 22.7238 14.2769 23 14.88C23.31 15.44 24.17 14.94 23.86 14.37C23.594 13.7672 23.3734 13.1455 23.2 12.51C22.94 11.79 22.62 11.09 22.35 10.37C22.08 9.64996 21.15 10.04 21.35 10.64H21.39Z" fill="black"/>
<path d="M21.49 11.31C22.22 12.77 22.64 14.31 23.32 15.85C23.58 16.44 24.44 15.93 24.18 15.35C23.5 13.86 23.09 12.27 22.35 10.81C22.06 10.23 21.2 10.74 21.49 11.31Z" fill="black"/>
<path d="M20.82 6.22996C20.8014 7.08982 20.9196 7.94717 21.17 8.76996C21.36 9.39996 21.86 10.02 21.86 10.69C21.86 10.8226 21.9127 10.9497 22.0064 11.0435C22.1002 11.1373 22.2274 11.19 22.36 11.19C22.4926 11.19 22.6198 11.1373 22.7136 11.0435C22.8073 10.9497 22.86 10.8226 22.86 10.69C22.7949 10.0948 22.6077 9.51944 22.31 8.99996C21.959 8.12684 21.7921 7.19059 21.82 6.24996C21.82 5.60996 20.82 5.60996 20.82 6.24996V6.22996Z" fill="black"/>
<path d="M20.78 5.62C20.8526 7.11221 21.1078 8.5899 21.54 10.02C21.69 10.65 22.66 10.38 22.54 9.75C22.1228 8.40978 21.8775 7.02201 21.81 5.62C21.81 5.48739 21.7573 5.36021 21.6636 5.26644C21.5698 5.17267 21.4426 5.12 21.31 5.12C21.1774 5.12 21.0502 5.17267 20.9564 5.26644C20.8627 5.36021 20.81 5.48739 20.81 5.62H20.78Z" fill="black"/>
<path d="M20.82 6.23V6.53C20.82 7.18 21.82 7.17 21.82 6.53V6.23C21.82 5.59 20.82 5.59 20.82 6.23Z" fill="black"/>
<path d="M21.83 5.92998V5.07998C21.83 4.43998 20.83 4.43998 20.83 5.07998V5.92998C20.83 6.56998 21.83 6.56998 21.83 5.92998Z" fill="black"/>
<path d="M21.88 5.99998V5.20998C21.88 4.56998 20.88 4.56998 20.88 5.20998V5.99998C20.88 6.63998 21.88 6.63998 21.88 5.99998Z" fill="black"/>
<path d="M21.1 5.20998C21.0331 6.41709 21.1273 7.62773 21.38 8.80998C21.67 10.1 22.38 11.26 22.66 12.54C22.6945 12.6726 22.7802 12.7861 22.8984 12.8555C23.0165 12.9248 23.1574 12.9445 23.29 12.91C23.4226 12.8755 23.5361 12.7898 23.6055 12.6716C23.6749 12.5535 23.6945 12.4126 23.66 12.28C23.38 11.14 22.81 10.11 22.5 8.97998C22.1757 7.75127 22.0541 6.47786 22.14 5.20998C22.14 4.56998 21.14 4.56998 21.14 5.20998H21.1Z" fill="black"/>
<path d="M18.11 8.66996C18.614 8.75082 19.0929 8.94578 19.51 9.23996C19.7817 9.37831 20.0396 9.54239 20.28 9.72996L20.57 9.98996C20.68 10.11 20.57 10.09 20.62 9.98996C20.5855 10.1226 20.6051 10.2634 20.6745 10.3816C20.7439 10.4997 20.8574 10.5855 20.99 10.62C21.1226 10.6544 21.2635 10.6348 21.3816 10.5654C21.4998 10.496 21.5855 10.3826 21.62 10.25C21.84 9.50996 20.9 8.92996 20.38 8.60996C19.7229 8.12286 18.9515 7.81293 18.14 7.70996C18.0074 7.70996 17.8802 7.76264 17.7864 7.85641C17.6927 7.95018 17.64 8.07735 17.64 8.20996C17.64 8.34257 17.6927 8.46975 17.7864 8.56351C17.8802 8.65728 18.0074 8.70996 18.14 8.70996L18.11 8.66996Z" fill="black"/>
<path d="M17.27 8.43995C19.63 8.89995 21.64 11.28 22.49 13.44C22.72 14.03 23.69 13.77 23.49 13.17C22.49 10.7 20.3 7.99995 17.57 7.47995C16.94 7.35995 16.67 8.31995 17.31 8.47995L17.27 8.43995Z" fill="black"/>
<path d="M17.21 8.54C17.8147 8.48768 18.4181 8.65449 18.91 9.01C19.39 9.44 20.1 8.74 19.62 8.31C18.9417 7.76007 18.0815 7.48522 17.21 7.54C17.0774 7.54 16.9502 7.59268 16.8564 7.68645C16.7627 7.78022 16.71 7.90739 16.71 8.04C16.71 8.17261 16.7627 8.29979 16.8564 8.39356C16.9502 8.48732 17.0774 8.54 17.21 8.54Z" fill="black"/>
<path d="M17.24 8.55C17.6684 8.57331 18.0936 8.63692 18.51 8.74C18.76 8.8 19 8.86 19.24 8.94C19.48 9.02 19.68 9.19 19.64 9.08C19.88 9.67 20.85 9.41 20.64 8.82C20.4897 8.55248 20.2798 8.32314 20.0266 8.14974C19.7734 7.97633 19.4838 7.86351 19.18 7.82C18.5582 7.63835 17.9171 7.53094 17.27 7.5C17.1374 7.5 17.0102 7.55268 16.9164 7.64645C16.8227 7.74021 16.77 7.86739 16.77 8C16.77 8.13261 16.8227 8.25979 16.9164 8.35355C17.0102 8.44732 17.1374 8.5 17.27 8.5L17.24 8.55Z" fill="black"/>
<path d="M17.6 8.68997C18.1626 8.70842 18.7191 8.81296 19.25 8.99997C19.5924 9.09721 19.9268 9.22092 20.25 9.36997C20.3697 9.42123 20.4836 9.48492 20.59 9.55997C20.7 9.63997 20.73 9.71997 20.73 9.62997C20.73 10.27 21.73 10.27 21.73 9.62997C21.73 8.82997 20.73 8.45997 20.09 8.22997C19.2942 7.89138 18.444 7.69832 17.58 7.65997C17.4474 7.65997 17.3202 7.71265 17.2264 7.80642C17.1327 7.90019 17.08 8.02736 17.08 8.15997C17.08 8.29258 17.1327 8.41976 17.2264 8.51353C17.3202 8.6073 17.4474 8.65997 17.58 8.65997L17.6 8.68997Z" fill="black"/>
<path d="M17.47 8.62001C18.52 9.09001 21.35 9.62001 21.31 11.08C21.31 11.72 22.31 11.72 22.31 11.08C22.37 8.94001 19.47 8.42001 17.97 7.76001C17.39 7.50001 16.88 8.36001 17.47 8.62001Z" fill="black"/>
<path d="M18.55 8.84996C19.2 9.21996 20.33 9.66996 20.55 10.45C20.5845 10.5826 20.6702 10.696 20.7884 10.7654C20.9065 10.8348 21.0474 10.8544 21.18 10.82C21.3126 10.7855 21.4261 10.6997 21.4955 10.5816C21.5649 10.4634 21.5845 10.3226 21.55 10.19C21.19 9.08996 20 8.50996 19.06 7.99996C19.0029 7.96647 18.9397 7.94456 18.8741 7.93549C18.8085 7.92641 18.7418 7.93034 18.6777 7.94705C18.6136 7.96377 18.5535 7.99294 18.5007 8.0329C18.4479 8.07286 18.4035 8.12283 18.37 8.17996C18.3365 8.23708 18.3146 8.30024 18.3055 8.36584C18.2965 8.43143 18.3004 8.49816 18.3171 8.56224C18.3338 8.62631 18.363 8.68646 18.4029 8.73926C18.4429 8.79206 18.4929 8.83647 18.55 8.86996V8.84996Z" fill="black"/>
<path d="M17 8.48C17.338 8.47254 17.67 8.5704 17.95 8.76C18.0639 8.82492 18.1988 8.84249 18.3255 8.80894C18.4522 8.77539 18.5607 8.69339 18.6276 8.58062C18.6945 8.46785 18.7144 8.33333 18.683 8.20602C18.6517 8.07872 18.5716 7.96882 18.46 7.9C18.027 7.6155 17.518 7.46905 17 7.48C16.36 7.48 16.36 8.48 17 8.48Z" fill="black"/>
<path d="M18.61 62C19.05 60.49 18.48 59 18.4 57.48C18.4 56.84 17.4 56.84 17.4 57.48C17.47 58.89 18.05 60.34 17.64 61.73C17.6042 61.8626 17.6225 62.004 17.691 62.1231C17.7594 62.2422 17.8724 62.3292 18.005 62.365C18.1376 62.4008 18.279 62.3825 18.3981 62.314C18.5172 62.2456 18.6042 62.1326 18.64 62H18.61Z" fill="black"/>
<path d="M17.4 56.09C17.3741 57.0029 17.4276 57.9163 17.56 58.82C17.5904 60.1199 17.4286 61.4173 17.08 62.67C17.0442 62.8026 17.0625 62.944 17.131 63.0631C17.1994 63.1822 17.3124 63.2692 17.445 63.305C17.5776 63.3408 17.719 63.3224 17.8381 63.254C17.9572 63.1855 18.0442 63.0726 18.08 62.94C18.3673 61.8984 18.5416 60.8289 18.6 59.75C18.6 58.66 18.25 57.42 18.39 56.35C18.47 55.72 17.51 55.45 17.39 56.09H17.4Z" fill="black"/>
<path d="M18.65 57.73C18.59 57.25 18.53 56.73 18.51 56.29C18.51 55.65 17.51 55.65 17.51 56.29C17.51 56.77 17.59 57.29 17.65 57.73C17.73 58.36 18.73 58.37 18.65 57.73Z" fill="black"/>
<path d="M18.45 57.27C18.4099 57.0082 18.4099 56.7418 18.45 56.48C18.45 55.84 17.45 55.84 17.45 56.48C17.4111 56.8304 17.428 57.1848 17.5 57.53C17.5345 57.6626 17.6202 57.7761 17.7384 57.8455C17.8565 57.9149 17.9974 57.9345 18.13 57.9C18.2626 57.8655 18.3761 57.7798 18.4455 57.6616C18.5149 57.5435 18.5345 57.4026 18.5 57.27H18.45Z" fill="black"/>
<path d="M18.34 57.13C18.3768 56.6709 18.3431 56.2089 18.24 55.76C18.1 55.13 17.14 55.39 17.24 56.02C17.3147 56.385 17.335 56.759 17.3 57.13C17.3 57.78 18.3 57.77 18.3 57.13H18.34Z" fill="black"/>
<path d="M18.2 56.9C18.3369 57.7627 18.7187 58.568 19.3 59.22C19.56 59.57 19.77 59.96 20.05 60.28C20.33 60.6 20.83 60.77 20.88 61.06C20.99 61.69 21.95 61.42 21.88 60.79C21.81 60.16 20.98 59.79 20.6 59.27C19.9417 58.6101 19.4602 57.795 19.2 56.9C19.14 56.27 18.14 56.26 18.2 56.9Z" fill="black"/>
<path d="M19.06 59.11C19.5549 59.7714 20.133 60.3663 20.78 60.88C21 61.05 21.98 61.42 22.01 61.68C22.01 62.32 23.01 62.33 23.01 61.68C23.01 61.03 22.39 60.68 21.83 60.35C21.0214 59.8463 20.3212 59.1869 19.77 58.41C19.37 57.9 18.67 58.61 19.06 59.11Z" fill="black"/>
<path d="M19.4 59.92C20.02 60.34 20.5 60.92 21.14 61.36C21.78 61.8 22.37 61.82 22.8 62.36C23.23 62.9 23.91 62.15 23.5 61.66C23.0009 61.2232 22.4242 60.884 21.8 60.66C21.09 60.26 20.57 59.59 19.9 59.14C19.23 58.69 18.9 59.64 19.4 60V59.92Z" fill="black"/>
<path d="M18.82 58.52C19.28 59.09 19.65 59.74 20.16 60.26C20.6756 60.7246 21.231 61.1429 21.82 61.51C22.35 61.88 22.82 61.02 22.32 60.65C21.7413 60.2994 21.2073 59.8796 20.73 59.4C20.29 58.91 19.95 58.33 19.53 57.81C19.11 57.29 18.42 58.02 18.82 58.52Z" fill="black"/>
<path d="M21.17 60.08C20.6193 59.6523 20.1773 59.1007 19.88 58.47C19.4107 57.8456 19.0053 57.1755 18.67 56.47C18.46 55.86 17.5 56.12 17.67 56.73C18.0532 57.5968 18.5258 58.4213 19.08 59.19C19.4511 59.9163 19.9976 60.5384 20.67 61C21.22 61.33 21.67 60.47 21.17 60.13V60.08Z" fill="black"/>
<path d="M18.52 57.7C18.8176 58.2933 19.1516 58.8678 19.52 59.42C19.83 59.99 20.69 59.48 20.38 58.92C20.0651 58.4418 19.7747 57.9478 19.51 57.44C19.28 56.85 18.31 57.1 18.51 57.7H18.52Z" fill="black"/>
<path d="M22.41 22C22.2258 28.8207 20.4811 35.5084 17.31 41.55C17.2499 41.6903 17.1618 41.8169 17.051 41.922C16.9403 42.027 16.8092 42.1083 16.6658 42.1609C16.5225 42.2134 16.3699 42.2361 16.2175 42.2275C16.0651 42.219 15.916 42.1793 15.7795 42.111C15.6429 42.0428 15.5218 41.9473 15.4234 41.8305C15.3251 41.7137 15.2518 41.578 15.2078 41.4318C15.1638 41.2856 15.1502 41.132 15.1678 40.9803C15.1854 40.8287 15.2338 40.6822 15.31 40.55C18.5379 34.8686 20.4195 28.5225 20.81 22C20.8193 21.7878 20.9125 21.588 21.0691 21.4445C21.2257 21.3011 21.4328 21.2257 21.645 21.235C21.8572 21.2442 22.057 21.3374 22.2004 21.494C22.3439 21.6506 22.4193 21.8578 22.41 22.07V22Z" fill="white"/>
<path d="M15.55 45.08C14.7965 46.7775 14.4375 48.6238 14.5 50.48C14.5144 50.6441 14.4964 50.8095 14.4469 50.9667C14.3975 51.1239 14.3175 51.2698 14.2117 51.3961C14.1058 51.5224 13.9761 51.6266 13.83 51.7027C13.6839 51.7789 13.5242 51.8255 13.36 51.84C13.1958 51.8544 13.0305 51.8364 12.8733 51.7869C12.7161 51.7375 12.5702 51.6575 12.4439 51.5517C12.3176 51.4458 12.2134 51.3161 12.1372 51.17C12.0611 51.0238 12.0144 50.8641 12 50.7V50.61C11.9768 49.4756 12.1182 48.3438 12.42 47.25C12.7082 46.2216 13.0794 45.2183 13.53 44.25C13.6688 44.0277 13.8824 43.8624 14.1323 43.7836C14.3822 43.7048 14.6521 43.7179 14.8932 43.8204C15.1344 43.9229 15.331 44.1081 15.4478 44.3427C15.5645 44.5772 15.5937 44.8458 15.53 45.1L15.55 45.08Z" fill="white"/>
<path d="M27.78 6.35997C29.0738 7.80218 29.9699 9.55638 30.38 11.45C30.4476 11.7152 30.4071 11.9964 30.2674 12.2318C30.1277 12.4671 29.9002 12.6373 29.635 12.705C29.3698 12.7726 29.0886 12.7321 28.8532 12.5924C28.6178 12.4527 28.4476 12.2252 28.38 11.96C28.3856 11.9269 28.3856 11.8931 28.38 11.86C28.2071 10.2422 27.6141 8.6978 26.66 7.37997C26.5962 7.3002 26.5489 7.20852 26.5208 7.11027C26.4928 7.01203 26.4846 6.90919 26.4967 6.80774C26.5088 6.70629 26.5409 6.60827 26.5913 6.51938C26.6417 6.43048 26.7092 6.3525 26.79 6.28997C26.9375 6.18491 27.1169 6.13444 27.2976 6.14721C27.4782 6.15998 27.6488 6.2352 27.78 6.35997Z" fill="white"/>
<path d="M30.86 14.59C31.3082 16.7797 31.4695 19.0185 31.34 21.25C31.2173 23.4506 30.9366 25.6396 30.5 27.8C30.4761 27.9679 30.4183 28.1293 30.3301 28.2742C30.2419 28.4191 30.1251 28.5445 29.9868 28.6429C29.8485 28.7412 29.6917 28.8103 29.5258 28.8461C29.36 28.8818 29.1886 28.8834 29.0221 28.8508C28.8556 28.8182 28.6975 28.752 28.5574 28.6563C28.4173 28.5606 28.2982 28.4374 28.2072 28.2942C28.1163 28.151 28.0554 27.9907 28.0284 27.8232C28.0014 27.6558 28.0087 27.4845 28.05 27.32V27.27C29.1724 23.2826 29.4953 19.1126 29 15C28.9768 14.7636 29.0429 14.5271 29.1854 14.3371C29.3279 14.1471 29.5364 14.0173 29.7698 13.9734C30.0032 13.9295 30.2446 13.9746 30.4464 14.0998C30.6482 14.225 30.7957 14.4213 30.86 14.65V14.59Z" fill="white"/>
</g>
<defs>
<clipPath id="clip0">
<rect width="36.73" height="65.54" fill="white"/>
</clipPath>
</defs>
</svg>
